<?xml version="1.0" encoding="UTF-8" standalone="no"?><svg xmlns="http://www.w3.org/2000/svg" xmlns:xlink="http://www.w3.org/1999/xlink" contentScriptType="application/ecmascript" contentStyleType="text/css" height="1071px" preserveAspectRatio="none" style="width:777px;height:1071px;" version="1.1" viewBox="0 0 777 1071" width="777px" zoomAndPan="magnify"><defs><filter height="300%" id="f6p1in57h6jgy" width="300%" x="-1" y="-1"><feGaussianBlur result="blurOut" stdDeviation="2.0"/><feColorMatrix in="blurOut" result="blurOut2" type="matrix" values="0 0 0 0 0 0 0 0 0 0 0 0 0 0 0 0 0 0 .4 0"/><feOffset dx="4.0" dy="4.0" in="blurOut2" result="blurOut3"/><feBlend in="SourceGraphic" in2="blurOut3" mode="normal"/></filter></defs><g><!--MD5=[3fd616f346a44cd59a91eb10b19e157c]
class User--><rect fill="#FEFECE" filter="url(#f6p1in57h6jgy)" height="142.4375" id="User" style="stroke: #A80036; stroke-width: 1.5;" width="143" x="6" y="342.5"/><ellipse cx="58.75" cy="358.5" fill="#ADD1B2" rx="11" ry="11" style="stroke: #A80036; stroke-width: 1.0;"/><path d="M61.7188,364.1406 Q61.1406,364.4375 60.5,364.5781 Q59.8594,364.7344 59.1563,364.7344 Q56.6563,364.7344 55.3281,363.0938 Q54.0156,361.4375 54.0156,358.3125 Q54.0156,355.1875 55.3281,353.5313 Q56.6563,351.875 59.1563,351.875 Q59.8594,351.875 60.5,352.0313 Q61.1563,352.1875 61.7188,352.4844 L61.7188,355.2031 Q61.0938,354.625 60.5,354.3594 Q59.9063,354.0781 59.2813,354.0781 Q57.9375,354.0781 57.25,355.1563 Q56.5625,356.2188 56.5625,358.3125 Q56.5625,360.4063 57.25,361.4844 Q57.9375,362.5469 59.2813,362.5469 Q59.9063,362.5469 60.5,362.2813 Q61.0938,362 61.7188,361.4219 L61.7188,364.1406 Z "/><text fill="#000000" font-family="sans-serif" font-size="12" lengthAdjust="spacingAndGlyphs" textLength="29" x="79.25" y="362.6543">User</text><line style="stroke: #A80036; stroke-width: 1.5;" x1="7" x2="148" y1="374.5" y2="374.5"/><ellipse cx="17" cy="385.5" fill="none" rx="3" ry="3" style="stroke: #038048; stroke-width: 1.0;"/><text fill="#000000" font-family="sans-serif" font-size="11" lengthAdjust="spacingAndGlyphs" textLength="48" x="26" y="388.7104">String id</text><ellipse cx="17" cy="398.3047" fill="none" rx="3" ry="3" style="stroke: #038048; stroke-width: 1.0;"/><text fill="#000000" font-family="sans-serif" font-size="11" lengthAdjust="spacingAndGlyphs" textLength="77" x="26" y="401.5151">String picture</text><ellipse cx="17" cy="411.1094" fill="none" rx="3" ry="3" style="stroke: #038048; stroke-width: 1.0;"/><text fill="#000000" font-family="sans-serif" font-size="11" lengthAdjust="spacingAndGlyphs" textLength="117" x="26" y="414.3198">String memberSince</text><ellipse cx="17" cy="423.9141" fill="none" rx="3" ry="3" style="stroke: #038048; stroke-width: 1.0;"/><text fill="#000000" font-family="sans-serif" font-size="11" lengthAdjust="spacingAndGlyphs" textLength="65" x="26" y="427.1245">int shaders</text><ellipse cx="17" cy="436.7188" fill="none" rx="3" ry="3" style="stroke: #038048; stroke-width: 1.0;"/><text fill="#000000" font-family="sans-serif" font-size="11" lengthAdjust="spacingAndGlyphs" textLength="78" x="26" y="439.9292">int comments</text><ellipse cx="17" cy="449.5234" fill="none" rx="3" ry="3" style="stroke: #038048; stroke-width: 1.0;"/><text fill="#000000" font-family="sans-serif" font-size="11" lengthAdjust="spacingAndGlyphs" textLength="68" x="26" y="452.7339">int following</text><ellipse cx="17" cy="462.3281" fill="none" rx="3" ry="3" style="stroke: #038048; stroke-width: 1.0;"/><text fill="#000000" font-family="sans-serif" font-size="11" lengthAdjust="spacingAndGlyphs" textLength="70" x="26" y="465.5386">int followers</text><ellipse cx="17" cy="475.1328" fill="none" rx="3" ry="3" style="stroke: #038048; stroke-width: 1.0;"/><text fill="#000000" font-family="sans-serif" font-size="11" lengthAdjust="spacingAndGlyphs" textLength="70" x="26" y="478.3433">String about</text><!--MD5=[042fa140da40c49659127f611bcff931]
class Comment--><rect fill="#FEFECE" filter="url(#f6p1in57h6jgy)" height="116.8281" id="Comment" style="stroke: #A80036; stroke-width: 1.5;" width="129" x="32" y="8"/><ellipse cx="64.1" cy="24" fill="#ADD1B2" rx="11" ry="11" style="stroke: #A80036; stroke-width: 1.0;"/><path d="M67.0688,29.6406 Q66.4906,29.9375 65.85,30.0781 Q65.2094,30.2344 64.5063,30.2344 Q62.0062,30.2344 60.6781,28.5938 Q59.3656,26.9375 59.3656,23.8125 Q59.3656,20.6875 60.6781,19.0313 Q62.0062,17.375 64.5063,17.375 Q65.2094,17.375 65.85,17.5313 Q66.5063,17.6875 67.0688,17.9844 L67.0688,20.7031 Q66.4438,20.125 65.85,19.8594 Q65.2563,19.5781 64.6313,19.5781 Q63.2875,19.5781 62.6,20.6563 Q61.9125,21.7188 61.9125,23.8125 Q61.9125,25.9063 62.6,26.9844 Q63.2875,28.0469 64.6313,28.0469 Q65.2563,28.0469 65.85,27.7813 Q66.4438,27.5 67.0688,26.9219 L67.0688,29.6406 Z "/><text fill="#000000" font-family="sans-serif" font-size="12" lengthAdjust="spacingAndGlyphs" textLength="59" x="81.9" y="28.1543">Comment</text><line style="stroke: #A80036; stroke-width: 1.5;" x1="33" x2="160" y1="40" y2="40"/><ellipse cx="43" cy="51" fill="none" rx="3" ry="3" style="stroke: #038048; stroke-width: 1.0;"/><text fill="#000000" font-family="sans-serif" font-size="11" lengthAdjust="spacingAndGlyphs" textLength="48" x="52" y="54.2104">String id</text><ellipse cx="43" cy="63.8047" fill="none" rx="3" ry="3" style="stroke: #038048; stroke-width: 1.0;"/><text fill="#000000" font-family="sans-serif" font-size="11" lengthAdjust="spacingAndGlyphs" textLength="74" x="52" y="67.0151">String userId</text><ellipse cx="43" cy="76.6094" fill="none" rx="3" ry="3" style="stroke: #038048; stroke-width: 1.0;"/><text fill="#000000" font-family="sans-serif" font-size="11" lengthAdjust="spacingAndGlyphs" textLength="103" x="52" y="79.8198">String userPicture</text><ellipse cx="43" cy="89.4141" fill="none" rx="3" ry="3" style="stroke: #038048; stroke-width: 1.0;"/><text fill="#000000" font-family="sans-serif" font-size="11" lengthAdjust="spacingAndGlyphs" textLength="83" x="52" y="92.6245">DateTime date</text><ellipse cx="43" cy="102.2188" fill="none" rx="3" ry="3" style="stroke: #038048; stroke-width: 1.0;"/><text fill="#000000" font-family="sans-serif" font-size="11" lengthAdjust="spacingAndGlyphs" textLength="59" x="52" y="105.4292">String text</text><ellipse cx="43" cy="115.0234" fill="none" rx="3" ry="3" style="stroke: #038048; stroke-width: 1.0;"/><text fill="#000000" font-family="sans-serif" font-size="11" lengthAdjust="spacingAndGlyphs" textLength="87" x="52" y="118.2339">boolean hidden</text><!--MD5=[44735da48838b6534abdeadabe06a1d6]
class PublishStatus--><rect fill="#FEFECE" filter="url(#f6p1in57h6jgy)" height="91.2188" id="PublishStatus" style="stroke: #A80036; stroke-width: 1.5;" width="118" x="193.5" y="577"/><ellipse cx="208.5" cy="593" fill="#EB937F" rx="11" ry="11" style="stroke: #A80036; stroke-width: 1.0;"/><path d="M212.6094,599 L204.8906,599 L204.8906,586.6094 L212.6094,586.6094 L212.6094,588.7656 L207.3438,588.7656 L207.3438,591.4375 L212.1094,591.4375 L212.1094,593.5938 L207.3438,593.5938 L207.3438,596.8438 L212.6094,596.8438 L212.6094,599 Z "/><text fill="#000000" font-family="sans-serif" font-size="12" lengthAdjust="spacingAndGlyphs" textLength="86" x="222.5" y="597.1543">PublishStatus</text><line style="stroke: #A80036; stroke-width: 1.5;" x1="194.5" x2="310.5" y1="609" y2="609"/><text fill="#000000" font-family="sans-serif" font-size="11" lengthAdjust="spacingAndGlyphs" textLength="39" x="199.5" y="623.2104">private</text><text fill="#000000" font-family="sans-serif" font-size="11" lengthAdjust="spacingAndGlyphs" textLength="45" x="199.5" y="636.0151">unlisted</text><text fill="#000000" font-family="sans-serif" font-size="11" lengthAdjust="spacingAndGlyphs" textLength="33" x="199.5" y="648.8198">public</text><text fill="#000000" font-family="sans-serif" font-size="11" lengthAdjust="spacingAndGlyphs" textLength="56" x="199.5" y="661.6245">public_api</text><!--MD5=[88dbfe8572c16244f15eec58f6037418]
class Info--><rect fill="#FEFECE" filter="url(#f6p1in57h6jgy)" height="180.8516" id="Info" style="stroke: #A80036; stroke-width: 1.5;" width="186" x="184.5" y="323"/><ellipse cx="261.75" cy="339" fill="#ADD1B2" rx="11" ry="11" style="stroke: #A80036; stroke-width: 1.0;"/><path d="M264.7188,344.6406 Q264.1406,344.9375 263.5,345.0781 Q262.8594,345.2344 262.1563,345.2344 Q259.6563,345.2344 258.3281,343.5938 Q257.0156,341.9375 257.0156,338.8125 Q257.0156,335.6875 258.3281,334.0313 Q259.6563,332.375 262.1563,332.375 Q262.8594,332.375 263.5,332.5313 Q264.1563,332.6875 264.7188,332.9844 L264.7188,335.7031 Q264.0938,335.125 263.5,334.8594 Q262.9063,334.5781 262.2813,334.5781 Q260.9375,334.5781 260.25,335.6563 Q259.5625,336.7188 259.5625,338.8125 Q259.5625,340.9063 260.25,341.9844 Q260.9375,343.0469 262.2813,343.0469 Q262.9063,343.0469 263.5,342.7813 Q264.0938,342.5 264.7188,341.9219 L264.7188,344.6406 Z "/><text fill="#000000" font-family="sans-serif" font-size="12" lengthAdjust="spacingAndGlyphs" textLength="23" x="282.25" y="343.1543">Info</text><line style="stroke: #A80036; stroke-width: 1.5;" x1="185.5" x2="369.5" y1="355" y2="355"/><ellipse cx="195.5" cy="366" fill="none" rx="3" ry="3" style="stroke: #038048; stroke-width: 1.0;"/><text fill="#000000" font-family="sans-serif" font-size="11" lengthAdjust="spacingAndGlyphs" textLength="48" x="204.5" y="369.2104">String id</text><ellipse cx="195.5" cy="378.8047" fill="none" rx="3" ry="3" style="stroke: #038048; stroke-width: 1.0;"/><text fill="#000000" font-family="sans-serif" font-size="11" lengthAdjust="spacingAndGlyphs" textLength="83" x="204.5" y="382.0151">DateTime date</text><ellipse cx="195.5" cy="391.6094" fill="none" rx="3" ry="3" style="stroke: #038048; stroke-width: 1.0;"/><text fill="#000000" font-family="sans-serif" font-size="11" lengthAdjust="spacingAndGlyphs" textLength="50" x="204.5" y="394.8198">int views</text><ellipse cx="195.5" cy="404.4141" fill="none" rx="3" ry="3" style="stroke: #038048; stroke-width: 1.0;"/><text fill="#000000" font-family="sans-serif" font-size="11" lengthAdjust="spacingAndGlyphs" textLength="70" x="204.5" y="407.6245">String name</text><ellipse cx="195.5" cy="417.2188" fill="none" rx="3" ry="3" style="stroke: #038048; stroke-width: 1.0;"/><text fill="#000000" font-family="sans-serif" font-size="11" lengthAdjust="spacingAndGlyphs" textLength="74" x="204.5" y="420.4292">String userId</text><ellipse cx="195.5" cy="430.0234" fill="none" rx="3" ry="3" style="stroke: #038048; stroke-width: 1.0;"/><text fill="#000000" font-family="sans-serif" font-size="11" lengthAdjust="spacingAndGlyphs" textLength="101" x="204.5" y="433.2339">String description</text><ellipse cx="195.5" cy="442.8281" fill="none" rx="3" ry="3" style="stroke: #038048; stroke-width: 1.0;"/><text fill="#000000" font-family="sans-serif" font-size="11" lengthAdjust="spacingAndGlyphs" textLength="44" x="204.5" y="446.0386">int likes</text><ellipse cx="195.5" cy="455.6328" fill="none" rx="3" ry="3" style="stroke: #038048; stroke-width: 1.0;"/><text fill="#000000" font-family="sans-serif" font-size="11" lengthAdjust="spacingAndGlyphs" textLength="160" x="204.5" y="458.8433">PublishStatus publishStatus</text><ellipse cx="195.5" cy="468.4375" fill="none" rx="3" ry="3" style="stroke: #038048; stroke-width: 1.0;"/><text fill="#000000" font-family="sans-serif" font-size="11" lengthAdjust="spacingAndGlyphs" textLength="46" x="204.5" y="471.6479">int flags</text><ellipse cx="195.5" cy="481.2422" fill="none" rx="3" ry="3" style="stroke: #038048; stroke-width: 1.0;"/><text fill="#000000" font-family="sans-serif" font-size="11" lengthAdjust="spacingAndGlyphs" textLength="101" x="204.5" y="484.4526">List&lt;String&gt; tags</text><ellipse cx="195.5" cy="494.0469" fill="none" rx="3" ry="3" style="stroke: #038048; stroke-width: 1.0;"/><text fill="#000000" font-family="sans-serif" font-size="11" lengthAdjust="spacingAndGlyphs" textLength="78" x="204.5" y="497.2573">bool hasLiked</text><!--MD5=[a936fc4126fe56f190c56d68d827f6b3]
class FilterType--><rect fill="#FEFECE" filter="url(#f6p1in57h6jgy)" height="91.2188" id="FilterType" style="stroke: #A80036; stroke-width: 1.5;" width="92" x="230.5" y="969"/><ellipse cx="245.5" cy="985" fill="#EB937F" rx="11" ry="11" style="stroke: #A80036; stroke-width: 1.0;"/><path d="M249.6094,991 L241.8906,991 L241.8906,978.6094 L249.6094,978.6094 L249.6094,980.7656 L244.3438,980.7656 L244.3438,983.4375 L249.1094,983.4375 L249.1094,985.5938 L244.3438,985.5938 L244.3438,988.8438 L249.6094,988.8438 L249.6094,991 Z "/><text fill="#000000" font-family="sans-serif" font-size="12" lengthAdjust="spacingAndGlyphs" textLength="60" x="259.5" y="989.1543">FilterType</text><line style="stroke: #A80036; stroke-width: 1.5;" x1="231.5" x2="321.5" y1="1001" y2="1001"/><text fill="#000000" font-family="sans-serif" font-size="11" lengthAdjust="spacingAndGlyphs" textLength="28" x="236.5" y="1015.2104">none</text><text fill="#000000" font-family="sans-serif" font-size="11" lengthAdjust="spacingAndGlyphs" textLength="44" x="236.5" y="1028.0151">nearest</text><text fill="#000000" font-family="sans-serif" font-size="11" lengthAdjust="spacingAndGlyphs" textLength="32" x="236.5" y="1040.8198">linear</text><text fill="#000000" font-family="sans-serif" font-size="11" lengthAdjust="spacingAndGlyphs" textLength="46" x="236.5" y="1053.6245">mipmap</text><!--MD5=[87ced7e318cf233d499af00967daf86d]
class WrapType--><rect fill="#FEFECE" filter="url(#f6p1in57h6jgy)" height="91.2188" id="WrapType" style="stroke: #A80036; stroke-width: 1.5;" width="93" x="358" y="969"/><ellipse cx="373" cy="985" fill="#EB937F" rx="11" ry="11" style="stroke: #A80036; stroke-width: 1.0;"/><path d="M377.1094,991 L369.3906,991 L369.3906,978.6094 L377.1094,978.6094 L377.1094,980.7656 L371.8438,980.7656 L371.8438,983.4375 L376.6094,983.4375 L376.6094,985.5938 L371.8438,985.5938 L371.8438,988.8438 L377.1094,988.8438 L377.1094,991 Z "/><text fill="#000000" font-family="sans-serif" font-size="12" lengthAdjust="spacingAndGlyphs" textLength="61" x="387" y="989.1543">WrapType</text><line style="stroke: #A80036; stroke-width: 1.5;" x1="359" x2="450" y1="1001" y2="1001"/><text fill="#000000" font-family="sans-serif" font-size="11" lengthAdjust="spacingAndGlyphs" textLength="28" x="364" y="1015.2104">none</text><text fill="#000000" font-family="sans-serif" font-size="11" lengthAdjust="spacingAndGlyphs" textLength="34" x="364" y="1028.0151">clamp</text><text fill="#000000" font-family="sans-serif" font-size="11" lengthAdjust="spacingAndGlyphs" textLength="37" x="364" y="1040.8198">repeat</text><text fill="#000000" font-family="sans-serif" font-size="11" lengthAdjust="spacingAndGlyphs" textLength="36" x="364" y="1053.6245">mirror</text><!--MD5=[c1863ae7a83f0d4114d1dc5ffc6f27df]
class Sampler--><rect fill="#FEFECE" filter="url(#f6p1in57h6jgy)" height="104.0234" id="Sampler" style="stroke: #A80036; stroke-width: 1.5;" width="113" x="284" y="773"/><ellipse cx="312.5" cy="789" fill="#ADD1B2" rx="11" ry="11" style="stroke: #A80036; stroke-width: 1.0;"/><path d="M315.4688,794.6406 Q314.8906,794.9375 314.25,795.0781 Q313.6094,795.2344 312.9063,795.2344 Q310.4063,795.2344 309.0781,793.5938 Q307.7656,791.9375 307.7656,788.8125 Q307.7656,785.6875 309.0781,784.0313 Q310.4063,782.375 312.9063,782.375 Q313.6094,782.375 314.25,782.5313 Q314.9063,782.6875 315.4688,782.9844 L315.4688,785.7031 Q314.8438,785.125 314.25,784.8594 Q313.6563,784.5781 313.0313,784.5781 Q311.6875,784.5781 311,785.6563 Q310.3125,786.7188 310.3125,788.8125 Q310.3125,790.9063 311,791.9844 Q311.6875,793.0469 313.0313,793.0469 Q313.6563,793.0469 314.25,792.7813 Q314.8438,792.5 315.4688,791.9219 L315.4688,794.6406 Z "/><text fill="#000000" font-family="sans-serif" font-size="12" lengthAdjust="spacingAndGlyphs" textLength="51" x="329.5" y="793.1543">Sampler</text><line style="stroke: #A80036; stroke-width: 1.5;" x1="285" x2="396" y1="805" y2="805"/><ellipse cx="295" cy="816" fill="none" rx="3" ry="3" style="stroke: #038048; stroke-width: 1.0;"/><text fill="#000000" font-family="sans-serif" font-size="11" lengthAdjust="spacingAndGlyphs" textLength="85" x="304" y="819.2104">FilterType filter</text><ellipse cx="295" cy="828.8047" fill="none" rx="3" ry="3" style="stroke: #038048; stroke-width: 1.0;"/><text fill="#000000" font-family="sans-serif" font-size="11" lengthAdjust="spacingAndGlyphs" textLength="87" x="304" y="832.0151">WrapType wrap</text><ellipse cx="295" cy="841.6094" fill="none" rx="3" ry="3" style="stroke: #038048; stroke-width: 1.0;"/><text fill="#000000" font-family="sans-serif" font-size="11" lengthAdjust="spacingAndGlyphs" textLength="51" x="304" y="844.8198">bool vflip</text><ellipse cx="295" cy="854.4141" fill="none" rx="3" ry="3" style="stroke: #038048; stroke-width: 1.0;"/><text fill="#000000" font-family="sans-serif" font-size="11" lengthAdjust="spacingAndGlyphs" textLength="54" x="304" y="857.6245">bool srgb</text><ellipse cx="295" cy="867.2188" fill="none" rx="3" ry="3" style="stroke: #038048; stroke-width: 1.0;"/><text fill="#000000" font-family="sans-serif" font-size="11" lengthAdjust="spacingAndGlyphs" textLength="81" x="304" y="870.4292">String internal</text><!--MD5=[d5414fa6b3869297190d3cd56d6ad7a9]
class InputType--><rect fill="#FEFECE" filter="url(#f6p1in57h6jgy)" height="168.0469" id="InputType" style="stroke: #A80036; stroke-width: 1.5;" width="93" x="432" y="741"/><ellipse cx="447" cy="757" fill="#EB937F" rx="11" ry="11" style="stroke: #A80036; stroke-width: 1.0;"/><path d="M451.1094,763 L443.3906,763 L443.3906,750.6094 L451.1094,750.6094 L451.1094,752.7656 L445.8438,752.7656 L445.8438,755.4375 L450.6094,755.4375 L450.6094,757.5938 L445.8438,757.5938 L445.8438,760.8438 L451.1094,760.8438 L451.1094,763 Z "/><text fill="#000000" font-family="sans-serif" font-size="12" lengthAdjust="spacingAndGlyphs" textLength="61" x="461" y="761.1543">InputType</text><line style="stroke: #A80036; stroke-width: 1.5;" x1="433" x2="524" y1="773" y2="773"/><text fill="#000000" font-family="sans-serif" font-size="11" lengthAdjust="spacingAndGlyphs" textLength="40" x="438" y="787.2104">texture</text><text fill="#000000" font-family="sans-serif" font-size="11" lengthAdjust="spacingAndGlyphs" textLength="41" x="438" y="800.0151">volume</text><text fill="#000000" font-family="sans-serif" font-size="11" lengthAdjust="spacingAndGlyphs" textLength="52" x="438" y="812.8198">cubemap</text><text fill="#000000" font-family="sans-serif" font-size="11" lengthAdjust="spacingAndGlyphs" textLength="34" x="438" y="825.6245">music</text><text fill="#000000" font-family="sans-serif" font-size="11" lengthAdjust="spacingAndGlyphs" textLength="75" x="438" y="838.4292">musicstream</text><text fill="#000000" font-family="sans-serif" font-size="11" lengthAdjust="spacingAndGlyphs" textLength="20" x="438" y="851.2339">mic</text><text fill="#000000" font-family="sans-serif" font-size="11" lengthAdjust="spacingAndGlyphs" textLength="34" x="438" y="864.0386">buffer</text><text fill="#000000" font-family="sans-serif" font-size="11" lengthAdjust="spacingAndGlyphs" textLength="52" x="438" y="876.8433">keyboard</text><text fill="#000000" font-family="sans-serif" font-size="11" lengthAdjust="spacingAndGlyphs" textLength="30" x="438" y="889.6479">video</text><text fill="#000000" font-family="sans-serif" font-size="11" lengthAdjust="spacingAndGlyphs" textLength="47" x="438" y="902.4526">webcam</text><!--MD5=[3cab58e622330109321580dbb0b85605]
class Input--><rect fill="#FEFECE" filter="url(#f6p1in57h6jgy)" height="116.8281" id="Input" style="stroke: #A80036; stroke-width: 1.5;" width="125" x="347" y="564"/><ellipse cx="389.45" cy="580" fill="#ADD1B2" rx="11" ry="11" style="stroke: #A80036; stroke-width: 1.0;"/><path d="M392.4188,585.6406 Q391.8406,585.9375 391.2,586.0781 Q390.5594,586.2344 389.8563,586.2344 Q387.3563,586.2344 386.0281,584.5938 Q384.7156,582.9375 384.7156,579.8125 Q384.7156,576.6875 386.0281,575.0313 Q387.3563,573.375 389.8563,573.375 Q390.5594,573.375 391.2,573.5313 Q391.8563,573.6875 392.4188,573.9844 L392.4188,576.7031 Q391.7938,576.125 391.2,575.8594 Q390.6063,575.5781 389.9813,575.5781 Q388.6375,575.5781 387.95,576.6563 Q387.2625,577.7188 387.2625,579.8125 Q387.2625,581.9063 387.95,582.9844 Q388.6375,584.0469 389.9813,584.0469 Q390.6063,584.0469 391.2,583.7813 Q391.7938,583.5 392.4188,582.9219 L392.4188,585.6406 Z "/><text fill="#000000" font-family="sans-serif" font-size="12" lengthAdjust="spacingAndGlyphs" textLength="32" x="409.55" y="584.1543">Input</text><line style="stroke: #A80036; stroke-width: 1.5;" x1="348" x2="471" y1="596" y2="596"/><ellipse cx="358" cy="607" fill="none" rx="3" ry="3" style="stroke: #038048; stroke-width: 1.0;"/><text fill="#000000" font-family="sans-serif" font-size="11" lengthAdjust="spacingAndGlyphs" textLength="48" x="367" y="610.2104">String id</text><ellipse cx="358" cy="619.8047" fill="none" rx="3" ry="3" style="stroke: #038048; stroke-width: 1.0;"/><text fill="#000000" font-family="sans-serif" font-size="11" lengthAdjust="spacingAndGlyphs" textLength="56" x="367" y="623.0151">String src</text><ellipse cx="358" cy="632.6094" fill="none" rx="3" ry="3" style="stroke: #038048; stroke-width: 1.0;"/><text fill="#000000" font-family="sans-serif" font-size="11" lengthAdjust="spacingAndGlyphs" textLength="89" x="367" y="635.8198">InputType ctype</text><ellipse cx="358" cy="645.4141" fill="none" rx="3" ry="3" style="stroke: #038048; stroke-width: 1.0;"/><text fill="#000000" font-family="sans-serif" font-size="11" lengthAdjust="spacingAndGlyphs" textLength="62" x="367" y="648.6245">int channel</text><ellipse cx="358" cy="658.2188" fill="none" rx="3" ry="3" style="stroke: #038048; stroke-width: 1.0;"/><text fill="#000000" font-family="sans-serif" font-size="11" lengthAdjust="spacingAndGlyphs" textLength="99" x="367" y="661.4292">Sampler sampler</text><ellipse cx="358" cy="671.0234" fill="none" rx="3" ry="3" style="stroke: #038048; stroke-width: 1.0;"/><text fill="#000000" font-family="sans-serif" font-size="11" lengthAdjust="spacingAndGlyphs" textLength="73" x="367" y="674.2339">int published</text><!--MD5=[847fc839c78cd68cdbea65b88e602834]
class Output--><rect fill="#FEFECE" filter="url(#f6p1in57h6jgy)" height="65.6094" id="Output" style="stroke: #A80036; stroke-width: 1.5;" width="88" x="507.5" y="589.5"/><ellipse cx="528.35" cy="605.5" fill="#ADD1B2" rx="11" ry="11" style="stroke: #A80036; stroke-width: 1.0;"/><path d="M531.3188,611.1406 Q530.7406,611.4375 530.1,611.5781 Q529.4594,611.7344 528.7563,611.7344 Q526.2563,611.7344 524.9281,610.0938 Q523.6156,608.4375 523.6156,605.3125 Q523.6156,602.1875 524.9281,600.5313 Q526.2563,598.875 528.7563,598.875 Q529.4594,598.875 530.1,599.0313 Q530.7563,599.1875 531.3188,599.4844 L531.3188,602.2031 Q530.6938,601.625 530.1,601.3594 Q529.5063,601.0781 528.8813,601.0781 Q527.5375,601.0781 526.85,602.1563 Q526.1625,603.2188 526.1625,605.3125 Q526.1625,607.4063 526.85,608.4844 Q527.5375,609.5469 528.8813,609.5469 Q529.5063,609.5469 530.1,609.2813 Q530.6938,609 531.3188,608.4219 L531.3188,611.1406 Z "/><text fill="#000000" font-family="sans-serif" font-size="12" lengthAdjust="spacingAndGlyphs" textLength="43" x="543.65" y="609.6543">Output</text><line style="stroke: #A80036; stroke-width: 1.5;" x1="508.5" x2="594.5" y1="621.5" y2="621.5"/><ellipse cx="518.5" cy="632.5" fill="none" rx="3" ry="3" style="stroke: #038048; stroke-width: 1.0;"/><text fill="#000000" font-family="sans-serif" font-size="11" lengthAdjust="spacingAndGlyphs" textLength="48" x="527.5" y="635.7104">String id</text><ellipse cx="518.5" cy="645.3047" fill="none" rx="3" ry="3" style="stroke: #038048; stroke-width: 1.0;"/><text fill="#000000" font-family="sans-serif" font-size="11" lengthAdjust="spacingAndGlyphs" textLength="62" x="527.5" y="648.5151">int channel</text><!--MD5=[e5a5830e1720fde2dd5bf575a16e759f]
class RenderPassType--><rect fill="#FEFECE" filter="url(#f6p1in57h6jgy)" height="104.0234" id="RenderPassType" style="stroke: #A80036; stroke-width: 1.5;" width="136" x="630.5" y="570.5"/><ellipse cx="645.5" cy="586.5" fill="#EB937F" rx="11" ry="11" style="stroke: #A80036; stroke-width: 1.0;"/><path d="M649.6094,592.5 L641.8906,592.5 L641.8906,580.1094 L649.6094,580.1094 L649.6094,582.2656 L644.3438,582.2656 L644.3438,584.9375 L649.1094,584.9375 L649.1094,587.0938 L644.3438,587.0938 L644.3438,590.3438 L649.6094,590.3438 L649.6094,592.5 Z "/><text fill="#000000" font-family="sans-serif" font-size="12" lengthAdjust="spacingAndGlyphs" textLength="104" x="659.5" y="590.6543">RenderPassType</text><line style="stroke: #A80036; stroke-width: 1.5;" x1="631.5" x2="765.5" y1="602.5" y2="602.5"/><text fill="#000000" font-family="sans-serif" font-size="11" lengthAdjust="spacingAndGlyphs" textLength="35" x="636.5" y="616.7104">sound</text><text fill="#000000" font-family="sans-serif" font-size="11" lengthAdjust="spacingAndGlyphs" textLength="49" x="636.5" y="629.5151">common</text><text fill="#000000" font-family="sans-serif" font-size="11" lengthAdjust="spacingAndGlyphs" textLength="35" x="636.5" y="642.3198">image</text><text fill="#000000" font-family="sans-serif" font-size="11" lengthAdjust="spacingAndGlyphs" textLength="34" x="636.5" y="655.1245">buffer</text><text fill="#000000" font-family="sans-serif" font-size="11" lengthAdjust="spacingAndGlyphs" textLength="52" x="636.5" y="667.9292">cubemap</text><!--MD5=[238882db1a9318ba3cb11d591dea3b78]
class RenderPass--><rect fill="#FEFECE" filter="url(#f6p1in57h6jgy)" height="116.8281" id="RenderPass" style="stroke: #A80036; stroke-width: 1.5;" width="149" x="453" y="355"/><ellipse cx="486.9" cy="371" fill="#ADD1B2" rx="11" ry="11" style="stroke: #A80036; stroke-width: 1.0;"/><path d="M489.8688,376.6406 Q489.2906,376.9375 488.65,377.0781 Q488.0094,377.2344 487.3063,377.2344 Q484.8063,377.2344 483.4781,375.5938 Q482.1656,373.9375 482.1656,370.8125 Q482.1656,367.6875 483.4781,366.0313 Q484.8063,364.375 487.3063,364.375 Q488.0094,364.375 488.65,364.5313 Q489.3063,364.6875 489.8688,364.9844 L489.8688,367.7031 Q489.2438,367.125 488.65,366.8594 Q488.0563,366.5781 487.4313,366.5781 Q486.0875,366.5781 485.4,367.6563 Q484.7125,368.7188 484.7125,370.8125 Q484.7125,372.9063 485.4,373.9844 Q486.0875,375.0469 487.4313,375.0469 Q488.0563,375.0469 488.65,374.7813 Q489.2438,374.5 489.8688,373.9219 L489.8688,376.6406 Z "/><text fill="#000000" font-family="sans-serif" font-size="12" lengthAdjust="spacingAndGlyphs" textLength="75" x="505.1" y="375.1543">RenderPass</text><line style="stroke: #A80036; stroke-width: 1.5;" x1="454" x2="601" y1="387" y2="387"/><ellipse cx="464" cy="398" fill="none" rx="3" ry="3" style="stroke: #038048; stroke-width: 1.0;"/><text fill="#000000" font-family="sans-serif" font-size="11" lengthAdjust="spacingAndGlyphs" textLength="70" x="473" y="401.2104">String name</text><ellipse cx="464" cy="410.8047" fill="none" rx="3" ry="3" style="stroke: #038048; stroke-width: 1.0;"/><text fill="#000000" font-family="sans-serif" font-size="11" lengthAdjust="spacingAndGlyphs" textLength="123" x="473" y="414.0151">RenderPassType type</text><ellipse cx="464" cy="423.6094" fill="none" rx="3" ry="3" style="stroke: #038048; stroke-width: 1.0;"/><text fill="#000000" font-family="sans-serif" font-size="11" lengthAdjust="spacingAndGlyphs" textLength="101" x="473" y="426.8198">String description</text><ellipse cx="464" cy="436.4141" fill="none" rx="3" ry="3" style="stroke: #038048; stroke-width: 1.0;"/><text fill="#000000" font-family="sans-serif" font-size="11" lengthAdjust="spacingAndGlyphs" textLength="65" x="473" y="439.6245">String code</text><ellipse cx="464" cy="449.2188" fill="none" rx="3" ry="3" style="stroke: #038048; stroke-width: 1.0;"/><text fill="#000000" font-family="sans-serif" font-size="11" lengthAdjust="spacingAndGlyphs" textLength="105" x="473" y="452.4292">List&lt;Input&gt; inputs</text><ellipse cx="464" cy="462.0234" fill="none" rx="3" ry="3" style="stroke: #038048; stroke-width: 1.0;"/><text fill="#000000" font-family="sans-serif" font-size="11" lengthAdjust="spacingAndGlyphs" textLength="123" x="473" y="465.2339">List&lt;Output&gt; outputs</text><!--MD5=[03b04ed89c1f7ac76f6e629bfb39a406]
class Shader--><rect fill="#FEFECE" filter="url(#f6p1in57h6jgy)" height="78.4141" id="Shader" style="stroke: #A80036; stroke-width: 1.5;" width="216" x="165.5" y="185"/><ellipse cx="246.75" cy="201" fill="#ADD1B2" rx="11" ry="11" style="stroke: #A80036; stroke-width: 1.0;"/><path d="M249.7188,206.6406 Q249.1406,206.9375 248.5,207.0781 Q247.8594,207.2344 247.1563,207.2344 Q244.6563,207.2344 243.3281,205.5938 Q242.0156,203.9375 242.0156,200.8125 Q242.0156,197.6875 243.3281,196.0313 Q244.6563,194.375 247.1563,194.375 Q247.8594,194.375 248.5,194.5313 Q249.1563,194.6875 249.7188,194.9844 L249.7188,197.7031 Q249.0938,197.125 248.5,196.8594 Q247.9063,196.5781 247.2813,196.5781 Q245.9375,196.5781 245.25,197.6563 Q244.5625,198.7188 244.5625,200.8125 Q244.5625,202.9063 245.25,203.9844 Q245.9375,205.0469 247.2813,205.0469 Q247.9063,205.0469 248.5,204.7813 Q249.0938,204.5 249.7188,203.9219 L249.7188,206.6406 Z "/><text fill="#000000" font-family="sans-serif" font-size="12" lengthAdjust="spacingAndGlyphs" textLength="45" x="267.25" y="205.1543">Shader</text><line style="stroke: #A80036; stroke-width: 1.5;" x1="166.5" x2="380.5" y1="217" y2="217"/><ellipse cx="176.5" cy="228" fill="none" rx="3" ry="3" style="stroke: #038048; stroke-width: 1.0;"/><text fill="#000000" font-family="sans-serif" font-size="11" lengthAdjust="spacingAndGlyphs" textLength="80" x="185.5" y="231.2104">String version</text><ellipse cx="176.5" cy="240.8047" fill="none" rx="3" ry="3" style="stroke: #038048; stroke-width: 1.0;"/><text fill="#000000" font-family="sans-serif" font-size="11" lengthAdjust="spacingAndGlyphs" textLength="46" x="185.5" y="244.0151">Info Info</text><ellipse cx="176.5" cy="253.6094" fill="none" rx="3" ry="3" style="stroke: #038048; stroke-width: 1.0;"/><text fill="#000000" font-family="sans-serif" font-size="11" lengthAdjust="spacingAndGlyphs" textLength="190" x="185.5" y="256.8198">List&lt;RenderPass&gt; renderPasses</text><!--MD5=[2ce409087c256806e794369f9639a134]
class Playlist--><rect fill="#FEFECE" filter="url(#f6p1in57h6jgy)" height="91.2188" id="Playlist" style="stroke: #A80036; stroke-width: 1.5;" width="149" x="199" y="21"/><ellipse cx="247.75" cy="37" fill="#ADD1B2" rx="11" ry="11" style="stroke: #A80036; stroke-width: 1.0;"/><path d="M250.7188,42.6406 Q250.1406,42.9375 249.5,43.0781 Q248.8594,43.2344 248.1563,43.2344 Q245.6563,43.2344 244.3281,41.5938 Q243.0156,39.9375 243.0156,36.8125 Q243.0156,33.6875 244.3281,32.0313 Q245.6563,30.375 248.1563,30.375 Q248.8594,30.375 249.5,30.5313 Q250.1563,30.6875 250.7188,30.9844 L250.7188,33.7031 Q250.0938,33.125 249.5,32.8594 Q248.9063,32.5781 248.2813,32.5781 Q246.9375,32.5781 246.25,33.6563 Q245.5625,34.7188 245.5625,36.8125 Q245.5625,38.9063 246.25,39.9844 Q246.9375,41.0469 248.2813,41.0469 Q248.9063,41.0469 249.5,40.7813 Q250.0938,40.5 250.7188,39.9219 L250.7188,42.6406 Z "/><text fill="#000000" font-family="sans-serif" font-size="12" lengthAdjust="spacingAndGlyphs" textLength="43" x="268.25" y="41.1543">Playlist</text><line style="stroke: #A80036; stroke-width: 1.5;" x1="200" x2="347" y1="53" y2="53"/><ellipse cx="210" cy="64" fill="none" rx="3" ry="3" style="stroke: #038048; stroke-width: 1.0;"/><text fill="#000000" font-family="sans-serif" font-size="11" lengthAdjust="spacingAndGlyphs" textLength="48" x="219" y="67.2104">String id</text><ellipse cx="210" cy="76.8047" fill="none" rx="3" ry="3" style="stroke: #038048; stroke-width: 1.0;"/><text fill="#000000" font-family="sans-serif" font-size="11" lengthAdjust="spacingAndGlyphs" textLength="70" x="219" y="80.0151">String name</text><ellipse cx="210" cy="89.6094" fill="none" rx="3" ry="3" style="stroke: #038048; stroke-width: 1.0;"/><text fill="#000000" font-family="sans-serif" font-size="11" lengthAdjust="spacingAndGlyphs" textLength="49" x="219" y="92.8198">int count</text><ellipse cx="210" cy="102.4141" fill="none" rx="3" ry="3" style="stroke: #038048; stroke-width: 1.0;"/><text fill="#000000" font-family="sans-serif" font-size="11" lengthAdjust="spacingAndGlyphs" textLength="123" x="219" y="105.6245">List&lt;String&gt; shaders</text><!--MD5=[ab66f24adcf2b00f77d0909c810dc1a9]
link Info to PublishStatus--><path d="M266.68,504.09 C263.64,529.22 260.48,555.47 257.9,576.75 " fill="none" id="Info-PublishStatus" style="stroke: #A80036; stroke-width: 1.0; stroke-dasharray: 7.0,7.0;"/><!--MD5=[e6c152588259b4f6ebf34b280c858812]
link Sampler to FilterType--><path d="M323.01,877.24 C313.24,905.86 301.18,941.19 291.79,968.71 " fill="none" id="Sampler-FilterType" style="stroke: #A80036; stroke-width: 1.0; stroke-dasharray: 7.0,7.0;"/><!--MD5=[fa07d61fb7493726bca773c5e9965c93]
link Sampler to WrapType--><path d="M357.99,877.24 C367.76,905.86 379.82,941.19 389.21,968.71 " fill="none" id="Sampler-WrapType" style="stroke: #A80036; stroke-width: 1.0; stroke-dasharray: 7.0,7.0;"/><!--MD5=[698a9c0837b0fead6b394295697c0722]
link Input to InputType--><path d="M429.37,681.22 C435.77,699.85 443.01,720.88 449.92,740.96 " fill="none" id="Input-InputType" style="stroke: #A80036; stroke-width: 1.0; stroke-dasharray: 7.0,7.0;"/><!--MD5=[54656a65a6b176d5f6a50ead8cca7705]
link RenderPass to RenderPassType--><path d="M575.13,472.16 C600.63,503.03 631.76,540.7 656.36,570.49 " fill="none" id="RenderPass-RenderPassType" style="stroke: #A80036; stroke-width: 1.0; stroke-dasharray: 7.0,7.0;"/><!--MD5=[8f19c8e5af5278cb995804fcff4b21af]
reverse link Shader to Info--><path d="M274.6,276.56 C274.91,290.87 275.25,306.85 275.58,322.67 " fill="none" id="Shader&lt;-Info" style="stroke: #A80036; stroke-width: 1.0;"/><polygon fill="#FFFFFF" points="274.32,263.4,270.4461,269.4822,274.5705,275.3974,278.4444,269.3152,274.32,263.4" style="stroke: #A80036; stroke-width: 1.0;"/><text fill="#000000" font-family="sans-serif" font-size="13" lengthAdjust="spacingAndGlyphs" textLength="23" x="249.4844" y="283.5037">info</text><text fill="#000000" font-family="sans-serif" font-size="13" lengthAdjust="spacingAndGlyphs" textLength="8" x="267.1083" y="311.9124">1</text><!--MD5=[caff0fb8dd27e7bce1db43d75c971a9b]
reverse link Shader to RenderPass--><path d="M335.86,271.03 C371.17,297.1 415.58,329.88 452.75,357.32 " fill="none" id="Shader&lt;-RenderPass" style="stroke: #A80036; stroke-width: 1.0;"/><polygon fill="#FFFFFF" points="325.21,263.17,327.6578,269.953,334.8604,270.3023,332.4126,263.5194,325.21,263.17" style="stroke: #A80036; stroke-width: 1.0;"/><text fill="#000000" font-family="sans-serif" font-size="13" lengthAdjust="spacingAndGlyphs" textLength="87" x="363.9505" y="283.5249">renderPasses</text><text fill="#000000" font-family="sans-serif" font-size="13" lengthAdjust="spacingAndGlyphs" textLength="23" x="413.9941" y="348.9275">1..*</text><!--MD5=[b192379bd1989d5bbc4c6d9a7d1e3228]
reverse link RenderPass to Input--><path d="M488.18,483.48 C473.33,509.53 456.6,538.88 442.4,563.79 " fill="none" id="RenderPass&lt;-Input" style="stroke: #A80036; stroke-width: 1.0;"/><polygon fill="#FFFFFF" points="494.63,472.16,488.1833,475.3911,488.6863,482.5846,495.133,479.3535,494.63,472.16" style="stroke: #A80036; stroke-width: 1.0;"/><text fill="#000000" font-family="sans-serif" font-size="13" lengthAdjust="spacingAndGlyphs" textLength="39" x="441.1122" y="491.8943">inputs</text><text fill="#000000" font-family="sans-serif" font-size="13" lengthAdjust="spacingAndGlyphs" textLength="23" x="422.0081" y="552.8061">1..*</text><!--MD5=[e49e12051756ad7174cb4f3543a7a0ec]
reverse link RenderPass to Output--><path d="M535.72,485.36 C539.8,520.63 544.55,561.53 547.76,589.22 " fill="none" id="RenderPass&lt;-Output" style="stroke: #A80036; stroke-width: 1.0;"/><polygon fill="#FFFFFF" points="534.19,472.16,530.909,478.5814,535.5745,484.0799,538.8555,477.6584,534.19,472.16" style="stroke: #A80036; stroke-width: 1.0;"/><text fill="#000000" font-family="sans-serif" font-size="13" lengthAdjust="spacingAndGlyphs" textLength="49" x="537.7963" y="491.8943">outputs</text><text fill="#000000" font-family="sans-serif" font-size="13" lengthAdjust="spacingAndGlyphs" textLength="23" x="521.7596" y="578.3099">1..*</text><!--MD5=[65c9f653de6ec396eae5b32b37f4e935]
reverse link Input to Sampler--><path d="M385.33,693.73 C376.37,719.78 366.38,748.8 358.11,772.82 " fill="none" id="Input&lt;-Sampler" style="stroke: #A80036; stroke-width: 1.0;"/><polygon fill="#FFFFFF" points="389.63,681.22,383.8966,685.5936,385.7287,692.5681,391.462,688.1945,389.63,681.22" style="stroke: #A80036; stroke-width: 1.0;"/><text fill="#000000" font-family="sans-serif" font-size="13" lengthAdjust="spacingAndGlyphs" textLength="52" x="328.095" y="700.9612">sampler</text><text fill="#000000" font-family="sans-serif" font-size="13" lengthAdjust="spacingAndGlyphs" textLength="8" x="351.9388" y="761.8747">1</text><!--MD5=[a4abcfdd359daed5df70e948831b1b3f]
link Shader to User--><path d="M231.64,263.05 C212.01,281.06 188.39,302.97 167.5,323 C160.98,329.25 154.24,335.8 147.52,342.38 " fill="none" id="Shader-User" style="stroke: #A80036; stroke-width: 1.0;"/><!--MD5=[21a768ec75f72a901c06d38d349b6d85]
link Playlist to Shader--><path d="M273.5,112.06 C273.5,135.04 273.5,162.77 273.5,184.76 " fill="none" id="Playlist-Shader" style="stroke: #A80036; stroke-width: 1.0;"/><!--MD5=[0cef6f557dad6ebaa7df7e990b22f0f8]
link Comment to Shader--><path d="M161.15,124.3 C184.06,144.43 209.28,166.58 230.01,184.79 " fill="none" id="Comment-Shader" style="stroke: #A80036; stroke-width: 1.0;"/><!--MD5=[6a06045152f20214b4760875fd259869]
link Comment to User--><path d="M93.32,125.25 C90.03,185 84.89,278.37 81.36,342.34 " fill="none" id="Comment-User" style="stroke: #A80036; stroke-width: 1.0;"/><!--MD5=[649679c88a013957ee38cd789ab407f5]
@startuml model

hide methods

class User {
 +String id
 +String picture
 +String memberSince
 +int shaders
 +int comments 
 +int following
 +int followers
 +String about
}

class Comment {
    +String id
    +String userId
    +String userPicture
    +DateTime date
    +String text
    +boolean hidden
}

enum PublishStatus {
    private
    unlisted
    public
    public_api
}

class Info {
    +String id
    +DateTime date
    +int views 
    +String name
    +String userId
    +String description
    +int likes
    +PublishStatus publishStatus
    +int flags
    +List<String> tags
    +bool hasLiked
}

enum FilterType {
    none
    nearest
    linear
    mipmap
}

enum WrapType {
    none
    clamp
    repeat
    mirror
}

class Sampler {
    +FilterType filter
    +WrapType wrap
    +bool vflip
    +bool srgb
    +String internal
}

enum InputType {
    texture
    volume
    cubemap
    music
    musicstream
    mic
    buffer
    keyboard
    video
    webcam
}

class Input {
    +String id
    +String src
    +InputType ctype
    +int channel
    +Sampler sampler
    +int published
}

class Output {
    +String id
    +int channel
}

enum RenderPassType {
    sound
    common
    image
    buffer
    cubemap
}

class RenderPass {
    +String name
    +RenderPassType type
    +String description
    +String code
    +List<Input> inputs
    +List<Output> outputs

}

class Shader {
    +String version
    +Info Info
    +List<RenderPass> renderPasses
}

class Playlist {
    +String id
    +String name
    +int count
    +List<String> shaders
}

Info  .. PublishStatus
Sampler .. FilterType
Sampler .. WrapType
Input .. InputType
RenderPass .. RenderPassType

Shader "info" o- - "1" Info
Shader "     renderPasses" o- - "1..*  " RenderPass
RenderPass "inputs  " o- - "1..*" Input
RenderPass "outputs" o- - "1..*" Output
Input "sampler " o- - "1" Sampler

Shader - - User
Playlist - - Shader
Comment - - Shader
Comment - - User


@enduml

PlantUML version 1.2020.02(Sun Mar 01 10:22:07 GMT 2020)
(GPL source distribution)
Java Runtime: OpenJDK Runtime Environment
JVM: OpenJDK 64-Bit Server VM
Java Version: 11.0.8+10-post-Ubuntu-0ubuntu1
Operating System: Linux
Default Encoding: ANSI_X3.4-1968
Language: en
Country: US
--></g></svg>