<?xml version="1.0" encoding="UTF-8" standalone="no"?><svg xmlns="http://www.w3.org/2000/svg" xmlns:xlink="http://www.w3.org/1999/xlink" contentScriptType="application/ecmascript" contentStyleType="text/css" height="933px" preserveAspectRatio="none" style="width:904px;height:933px;" version="1.1" viewBox="0 0 904 933" width="904px" zoomAndPan="magnify"><defs><filter height="300%" id="fubjsc8i6q9zb" width="300%" x="-1" y="-1"><feGaussianBlur result="blurOut" stdDeviation="2.0"/><feColorMatrix in="blurOut" result="blurOut2" type="matrix" values="0 0 0 0 0 0 0 0 0 0 0 0 0 0 0 0 0 0 .4 0"/><feOffset dx="4.0" dy="4.0" in="blurOut2" result="blurOut3"/><feBlend in="SourceGraphic" in2="blurOut3" mode="normal"/></filter></defs><g><!--MD5=[3fd616f346a44cd59a91eb10b19e157c]
class User--><rect fill="#FEFECE" filter="url(#fubjsc8i6q9zb)" height="116.8281" id="User" style="stroke: #A80036; stroke-width: 1.5;" width="143" x="54" y="426"/><ellipse cx="106.75" cy="442" fill="#ADD1B2" rx="11" ry="11" style="stroke: #A80036; stroke-width: 1.0;"/><path d="M109.7188,447.6406 Q109.1406,447.9375 108.5,448.0781 Q107.8594,448.2344 107.1563,448.2344 Q104.6563,448.2344 103.3281,446.5938 Q102.0156,444.9375 102.0156,441.8125 Q102.0156,438.6875 103.3281,437.0313 Q104.6563,435.375 107.1563,435.375 Q107.8594,435.375 108.5,435.5313 Q109.1563,435.6875 109.7188,435.9844 L109.7188,438.7031 Q109.0938,438.125 108.5,437.8594 Q107.9063,437.5781 107.2813,437.5781 Q105.9375,437.5781 105.25,438.6563 Q104.5625,439.7188 104.5625,441.8125 Q104.5625,443.9063 105.25,444.9844 Q105.9375,446.0469 107.2813,446.0469 Q107.9063,446.0469 108.5,445.7813 Q109.0938,445.5 109.7188,444.9219 L109.7188,447.6406 Z "/><text fill="#000000" font-family="sans-serif" font-size="12" lengthAdjust="spacingAndGlyphs" textLength="29" x="127.25" y="446.1543">User</text><line style="stroke: #A80036; stroke-width: 1.5;" x1="55" x2="196" y1="458" y2="458"/><ellipse cx="65" cy="469" fill="none" rx="3" ry="3" style="stroke: #038048; stroke-width: 1.0;"/><text fill="#000000" font-family="sans-serif" font-size="11" lengthAdjust="spacingAndGlyphs" textLength="48" x="74" y="472.2104">String id</text><ellipse cx="65" cy="481.8047" fill="none" rx="3" ry="3" style="stroke: #038048; stroke-width: 1.0;"/><text fill="#000000" font-family="sans-serif" font-size="11" lengthAdjust="spacingAndGlyphs" textLength="77" x="74" y="485.0151">String picture</text><ellipse cx="65" cy="494.6094" fill="none" rx="3" ry="3" style="stroke: #038048; stroke-width: 1.0;"/><text fill="#000000" font-family="sans-serif" font-size="11" lengthAdjust="spacingAndGlyphs" textLength="117" x="74" y="497.8198">String memberSince</text><ellipse cx="65" cy="507.4141" fill="none" rx="3" ry="3" style="stroke: #038048; stroke-width: 1.0;"/><text fill="#000000" font-family="sans-serif" font-size="11" lengthAdjust="spacingAndGlyphs" textLength="68" x="74" y="510.6245">int following</text><ellipse cx="65" cy="520.2188" fill="none" rx="3" ry="3" style="stroke: #038048; stroke-width: 1.0;"/><text fill="#000000" font-family="sans-serif" font-size="11" lengthAdjust="spacingAndGlyphs" textLength="70" x="74" y="523.4292">int followers</text><ellipse cx="65" cy="533.0234" fill="none" rx="3" ry="3" style="stroke: #038048; stroke-width: 1.0;"/><text fill="#000000" font-family="sans-serif" font-size="11" lengthAdjust="spacingAndGlyphs" textLength="70" x="74" y="536.2339">String about</text><!--MD5=[042fa140da40c49659127f611bcff931]
class Comment--><rect fill="#FEFECE" filter="url(#fubjsc8i6q9zb)" height="116.8281" id="Comment" style="stroke: #A80036; stroke-width: 1.5;" width="113" x="6" y="8"/><ellipse cx="30.9" cy="24" fill="#ADD1B2" rx="11" ry="11" style="stroke: #A80036; stroke-width: 1.0;"/><path d="M33.8688,29.6406 Q33.2906,29.9375 32.65,30.0781 Q32.0094,30.2344 31.3063,30.2344 Q28.8063,30.2344 27.4781,28.5938 Q26.1656,26.9375 26.1656,23.8125 Q26.1656,20.6875 27.4781,19.0313 Q28.8063,17.375 31.3063,17.375 Q32.0094,17.375 32.65,17.5313 Q33.3063,17.6875 33.8688,17.9844 L33.8688,20.7031 Q33.2438,20.125 32.65,19.8594 Q32.0563,19.5781 31.4313,19.5781 Q30.0875,19.5781 29.4,20.6563 Q28.7125,21.7188 28.7125,23.8125 Q28.7125,25.9063 29.4,26.9844 Q30.0875,28.0469 31.4313,28.0469 Q32.0563,28.0469 32.65,27.7813 Q33.2438,27.5 33.8688,26.9219 L33.8688,29.6406 Z "/><text fill="#000000" font-family="sans-serif" font-size="12" lengthAdjust="spacingAndGlyphs" textLength="59" x="47.1" y="28.1543">Comment</text><line style="stroke: #A80036; stroke-width: 1.5;" x1="7" x2="118" y1="40" y2="40"/><ellipse cx="17" cy="51" fill="none" rx="3" ry="3" style="stroke: #038048; stroke-width: 1.0;"/><text fill="#000000" font-family="sans-serif" font-size="11" lengthAdjust="spacingAndGlyphs" textLength="48" x="26" y="54.2104">String id</text><ellipse cx="17" cy="63.8047" fill="none" rx="3" ry="3" style="stroke: #038048; stroke-width: 1.0;"/><text fill="#000000" font-family="sans-serif" font-size="11" lengthAdjust="spacingAndGlyphs" textLength="74" x="26" y="67.0151">String userId</text><ellipse cx="17" cy="76.6094" fill="none" rx="3" ry="3" style="stroke: #038048; stroke-width: 1.0;"/><text fill="#000000" font-family="sans-serif" font-size="11" lengthAdjust="spacingAndGlyphs" textLength="77" x="26" y="79.8198">String picture</text><ellipse cx="17" cy="89.4141" fill="none" rx="3" ry="3" style="stroke: #038048; stroke-width: 1.0;"/><text fill="#000000" font-family="sans-serif" font-size="11" lengthAdjust="spacingAndGlyphs" textLength="83" x="26" y="92.6245">DateTime date</text><ellipse cx="17" cy="102.2188" fill="none" rx="3" ry="3" style="stroke: #038048; stroke-width: 1.0;"/><text fill="#000000" font-family="sans-serif" font-size="11" lengthAdjust="spacingAndGlyphs" textLength="59" x="26" y="105.4292">String text</text><ellipse cx="17" cy="115.0234" fill="none" rx="3" ry="3" style="stroke: #038048; stroke-width: 1.0;"/><text fill="#000000" font-family="sans-serif" font-size="11" lengthAdjust="spacingAndGlyphs" textLength="87" x="26" y="118.2339">boolean hidden</text><!--MD5=[03c346c7ea445837e8975099d55cba7e]
class ShaderPrivacy--><rect fill="#FEFECE" filter="url(#fubjsc8i6q9zb)" height="91.2188" id="ShaderPrivacy" style="stroke: #A80036; stroke-width: 1.5;" width="120" x="318.5" y="439"/><ellipse cx="333.5" cy="455" fill="#EB937F" rx="11" ry="11" style="stroke: #A80036; stroke-width: 1.0;"/><path d="M337.6094,461 L329.8906,461 L329.8906,448.6094 L337.6094,448.6094 L337.6094,450.7656 L332.3438,450.7656 L332.3438,453.4375 L337.1094,453.4375 L337.1094,455.5938 L332.3438,455.5938 L332.3438,458.8438 L337.6094,458.8438 L337.6094,461 Z "/><text fill="#000000" font-family="sans-serif" font-size="12" lengthAdjust="spacingAndGlyphs" textLength="88" x="347.5" y="459.1543">ShaderPrivacy</text><line style="stroke: #A80036; stroke-width: 1.5;" x1="319.5" x2="437.5" y1="471" y2="471"/><text fill="#000000" font-family="sans-serif" font-size="11" lengthAdjust="spacingAndGlyphs" textLength="39" x="324.5" y="485.2104">private</text><text fill="#000000" font-family="sans-serif" font-size="11" lengthAdjust="spacingAndGlyphs" textLength="45" x="324.5" y="498.0151">unlisted</text><text fill="#000000" font-family="sans-serif" font-size="11" lengthAdjust="spacingAndGlyphs" textLength="33" x="324.5" y="510.8198">public</text><text fill="#000000" font-family="sans-serif" font-size="11" lengthAdjust="spacingAndGlyphs" textLength="56" x="324.5" y="523.6245">public_api</text><!--MD5=[88dbfe8572c16244f15eec58f6037418]
class Info--><rect fill="#FEFECE" filter="url(#fubjsc8i6q9zb)" height="180.8516" id="Info" style="stroke: #A80036; stroke-width: 1.5;" width="151" x="332" y="185"/><ellipse cx="391.75" cy="201" fill="#ADD1B2" rx="11" ry="11" style="stroke: #A80036; stroke-width: 1.0;"/><path d="M394.7188,206.6406 Q394.1406,206.9375 393.5,207.0781 Q392.8594,207.2344 392.1563,207.2344 Q389.6563,207.2344 388.3281,205.5938 Q387.0156,203.9375 387.0156,200.8125 Q387.0156,197.6875 388.3281,196.0313 Q389.6563,194.375 392.1563,194.375 Q392.8594,194.375 393.5,194.5313 Q394.1563,194.6875 394.7188,194.9844 L394.7188,197.7031 Q394.0938,197.125 393.5,196.8594 Q392.9063,196.5781 392.2813,196.5781 Q390.9375,196.5781 390.25,197.6563 Q389.5625,198.7188 389.5625,200.8125 Q389.5625,202.9063 390.25,203.9844 Q390.9375,205.0469 392.2813,205.0469 Q392.9063,205.0469 393.5,204.7813 Q394.0938,204.5 394.7188,203.9219 L394.7188,206.6406 Z "/><text fill="#000000" font-family="sans-serif" font-size="12" lengthAdjust="spacingAndGlyphs" textLength="23" x="412.25" y="205.1543">Info</text><line style="stroke: #A80036; stroke-width: 1.5;" x1="333" x2="482" y1="217" y2="217"/><ellipse cx="343" cy="228" fill="none" rx="3" ry="3" style="stroke: #038048; stroke-width: 1.0;"/><text fill="#000000" font-family="sans-serif" font-size="11" lengthAdjust="spacingAndGlyphs" textLength="48" x="352" y="231.2104">String id</text><ellipse cx="343" cy="240.8047" fill="none" rx="3" ry="3" style="stroke: #038048; stroke-width: 1.0;"/><text fill="#000000" font-family="sans-serif" font-size="11" lengthAdjust="spacingAndGlyphs" textLength="83" x="352" y="244.0151">DateTime date</text><ellipse cx="343" cy="253.6094" fill="none" rx="3" ry="3" style="stroke: #038048; stroke-width: 1.0;"/><text fill="#000000" font-family="sans-serif" font-size="11" lengthAdjust="spacingAndGlyphs" textLength="50" x="352" y="256.8198">int views</text><ellipse cx="343" cy="266.4141" fill="none" rx="3" ry="3" style="stroke: #038048; stroke-width: 1.0;"/><text fill="#000000" font-family="sans-serif" font-size="11" lengthAdjust="spacingAndGlyphs" textLength="70" x="352" y="269.6245">String name</text><ellipse cx="343" cy="279.2188" fill="none" rx="3" ry="3" style="stroke: #038048; stroke-width: 1.0;"/><text fill="#000000" font-family="sans-serif" font-size="11" lengthAdjust="spacingAndGlyphs" textLength="74" x="352" y="282.4292">String userId</text><ellipse cx="343" cy="292.0234" fill="none" rx="3" ry="3" style="stroke: #038048; stroke-width: 1.0;"/><text fill="#000000" font-family="sans-serif" font-size="11" lengthAdjust="spacingAndGlyphs" textLength="101" x="352" y="295.2339">String description</text><ellipse cx="343" cy="304.8281" fill="none" rx="3" ry="3" style="stroke: #038048; stroke-width: 1.0;"/><text fill="#000000" font-family="sans-serif" font-size="11" lengthAdjust="spacingAndGlyphs" textLength="44" x="352" y="308.0386">int likes</text><ellipse cx="343" cy="317.6328" fill="none" rx="3" ry="3" style="stroke: #038048; stroke-width: 1.0;"/><text fill="#000000" font-family="sans-serif" font-size="11" lengthAdjust="spacingAndGlyphs" textLength="125" x="352" y="320.8433">ShaderPrivacy privacy</text><ellipse cx="343" cy="330.4375" fill="none" rx="3" ry="3" style="stroke: #038048; stroke-width: 1.0;"/><text fill="#000000" font-family="sans-serif" font-size="11" lengthAdjust="spacingAndGlyphs" textLength="46" x="352" y="333.6479">int flags</text><ellipse cx="343" cy="343.2422" fill="none" rx="3" ry="3" style="stroke: #038048; stroke-width: 1.0;"/><text fill="#000000" font-family="sans-serif" font-size="11" lengthAdjust="spacingAndGlyphs" textLength="101" x="352" y="346.4526">List&lt;String&gt; tags</text><ellipse cx="343" cy="356.0469" fill="none" rx="3" ry="3" style="stroke: #038048; stroke-width: 1.0;"/><text fill="#000000" font-family="sans-serif" font-size="11" lengthAdjust="spacingAndGlyphs" textLength="78" x="352" y="359.2573">bool hasLiked</text><!--MD5=[a936fc4126fe56f190c56d68d827f6b3]
class FilterType--><rect fill="#FEFECE" filter="url(#fubjsc8i6q9zb)" height="91.2188" id="FilterType" style="stroke: #A80036; stroke-width: 1.5;" width="92" x="357.5" y="831"/><ellipse cx="372.5" cy="847" fill="#EB937F" rx="11" ry="11" style="stroke: #A80036; stroke-width: 1.0;"/><path d="M376.6094,853 L368.8906,853 L368.8906,840.6094 L376.6094,840.6094 L376.6094,842.7656 L371.3438,842.7656 L371.3438,845.4375 L376.1094,845.4375 L376.1094,847.5938 L371.3438,847.5938 L371.3438,850.8438 L376.6094,850.8438 L376.6094,853 Z "/><text fill="#000000" font-family="sans-serif" font-size="12" lengthAdjust="spacingAndGlyphs" textLength="60" x="386.5" y="851.1543">FilterType</text><line style="stroke: #A80036; stroke-width: 1.5;" x1="358.5" x2="448.5" y1="863" y2="863"/><text fill="#000000" font-family="sans-serif" font-size="11" lengthAdjust="spacingAndGlyphs" textLength="28" x="363.5" y="877.2104">none</text><text fill="#000000" font-family="sans-serif" font-size="11" lengthAdjust="spacingAndGlyphs" textLength="44" x="363.5" y="890.0151">nearest</text><text fill="#000000" font-family="sans-serif" font-size="11" lengthAdjust="spacingAndGlyphs" textLength="32" x="363.5" y="902.8198">linear</text><text fill="#000000" font-family="sans-serif" font-size="11" lengthAdjust="spacingAndGlyphs" textLength="46" x="363.5" y="915.6245">mipmap</text><!--MD5=[87ced7e318cf233d499af00967daf86d]
class WrapType--><rect fill="#FEFECE" filter="url(#fubjsc8i6q9zb)" height="91.2188" id="WrapType" style="stroke: #A80036; stroke-width: 1.5;" width="93" x="485" y="831"/><ellipse cx="500" cy="847" fill="#EB937F" rx="11" ry="11" style="stroke: #A80036; stroke-width: 1.0;"/><path d="M504.1094,853 L496.3906,853 L496.3906,840.6094 L504.1094,840.6094 L504.1094,842.7656 L498.8438,842.7656 L498.8438,845.4375 L503.6094,845.4375 L503.6094,847.5938 L498.8438,847.5938 L498.8438,850.8438 L504.1094,850.8438 L504.1094,853 Z "/><text fill="#000000" font-family="sans-serif" font-size="12" lengthAdjust="spacingAndGlyphs" textLength="61" x="514" y="851.1543">WrapType</text><line style="stroke: #A80036; stroke-width: 1.5;" x1="486" x2="577" y1="863" y2="863"/><text fill="#000000" font-family="sans-serif" font-size="11" lengthAdjust="spacingAndGlyphs" textLength="28" x="491" y="877.2104">none</text><text fill="#000000" font-family="sans-serif" font-size="11" lengthAdjust="spacingAndGlyphs" textLength="34" x="491" y="890.0151">clamp</text><text fill="#000000" font-family="sans-serif" font-size="11" lengthAdjust="spacingAndGlyphs" textLength="37" x="491" y="902.8198">repeat</text><text fill="#000000" font-family="sans-serif" font-size="11" lengthAdjust="spacingAndGlyphs" textLength="36" x="491" y="915.6245">mirror</text><!--MD5=[c1863ae7a83f0d4114d1dc5ffc6f27df]
class Sampler--><rect fill="#FEFECE" filter="url(#fubjsc8i6q9zb)" height="104.0234" id="Sampler" style="stroke: #A80036; stroke-width: 1.5;" width="113" x="411" y="635"/><ellipse cx="439.5" cy="651" fill="#ADD1B2" rx="11" ry="11" style="stroke: #A80036; stroke-width: 1.0;"/><path d="M442.4688,656.6406 Q441.8906,656.9375 441.25,657.0781 Q440.6094,657.2344 439.9063,657.2344 Q437.4063,657.2344 436.0781,655.5938 Q434.7656,653.9375 434.7656,650.8125 Q434.7656,647.6875 436.0781,646.0313 Q437.4063,644.375 439.9063,644.375 Q440.6094,644.375 441.25,644.5313 Q441.9063,644.6875 442.4688,644.9844 L442.4688,647.7031 Q441.8438,647.125 441.25,646.8594 Q440.6563,646.5781 440.0313,646.5781 Q438.6875,646.5781 438,647.6563 Q437.3125,648.7188 437.3125,650.8125 Q437.3125,652.9063 438,653.9844 Q438.6875,655.0469 440.0313,655.0469 Q440.6563,655.0469 441.25,654.7813 Q441.8438,654.5 442.4688,653.9219 L442.4688,656.6406 Z "/><text fill="#000000" font-family="sans-serif" font-size="12" lengthAdjust="spacingAndGlyphs" textLength="51" x="456.5" y="655.1543">Sampler</text><line style="stroke: #A80036; stroke-width: 1.5;" x1="412" x2="523" y1="667" y2="667"/><ellipse cx="422" cy="678" fill="none" rx="3" ry="3" style="stroke: #038048; stroke-width: 1.0;"/><text fill="#000000" font-family="sans-serif" font-size="11" lengthAdjust="spacingAndGlyphs" textLength="85" x="431" y="681.2104">FilterType filter</text><ellipse cx="422" cy="690.8047" fill="none" rx="3" ry="3" style="stroke: #038048; stroke-width: 1.0;"/><text fill="#000000" font-family="sans-serif" font-size="11" lengthAdjust="spacingAndGlyphs" textLength="87" x="431" y="694.0151">WrapType wrap</text><ellipse cx="422" cy="703.6094" fill="none" rx="3" ry="3" style="stroke: #038048; stroke-width: 1.0;"/><text fill="#000000" font-family="sans-serif" font-size="11" lengthAdjust="spacingAndGlyphs" textLength="51" x="431" y="706.8198">bool vflip</text><ellipse cx="422" cy="716.4141" fill="none" rx="3" ry="3" style="stroke: #038048; stroke-width: 1.0;"/><text fill="#000000" font-family="sans-serif" font-size="11" lengthAdjust="spacingAndGlyphs" textLength="54" x="431" y="719.6245">bool srgb</text><ellipse cx="422" cy="729.2188" fill="none" rx="3" ry="3" style="stroke: #038048; stroke-width: 1.0;"/><text fill="#000000" font-family="sans-serif" font-size="11" lengthAdjust="spacingAndGlyphs" textLength="81" x="431" y="732.4292">String internal</text><!--MD5=[d5414fa6b3869297190d3cd56d6ad7a9]
class InputType--><rect fill="#FEFECE" filter="url(#fubjsc8i6q9zb)" height="168.0469" id="InputType" style="stroke: #A80036; stroke-width: 1.5;" width="93" x="559" y="603"/><ellipse cx="574" cy="619" fill="#EB937F" rx="11" ry="11" style="stroke: #A80036; stroke-width: 1.0;"/><path d="M578.1094,625 L570.3906,625 L570.3906,612.6094 L578.1094,612.6094 L578.1094,614.7656 L572.8438,614.7656 L572.8438,617.4375 L577.6094,617.4375 L577.6094,619.5938 L572.8438,619.5938 L572.8438,622.8438 L578.1094,622.8438 L578.1094,625 Z "/><text fill="#000000" font-family="sans-serif" font-size="12" lengthAdjust="spacingAndGlyphs" textLength="61" x="588" y="623.1543">InputType</text><line style="stroke: #A80036; stroke-width: 1.5;" x1="560" x2="651" y1="635" y2="635"/><text fill="#000000" font-family="sans-serif" font-size="11" lengthAdjust="spacingAndGlyphs" textLength="40" x="565" y="649.2104">texture</text><text fill="#000000" font-family="sans-serif" font-size="11" lengthAdjust="spacingAndGlyphs" textLength="41" x="565" y="662.0151">volume</text><text fill="#000000" font-family="sans-serif" font-size="11" lengthAdjust="spacingAndGlyphs" textLength="52" x="565" y="674.8198">cubemap</text><text fill="#000000" font-family="sans-serif" font-size="11" lengthAdjust="spacingAndGlyphs" textLength="34" x="565" y="687.6245">music</text><text fill="#000000" font-family="sans-serif" font-size="11" lengthAdjust="spacingAndGlyphs" textLength="75" x="565" y="700.4292">musicstream</text><text fill="#000000" font-family="sans-serif" font-size="11" lengthAdjust="spacingAndGlyphs" textLength="20" x="565" y="713.2339">mic</text><text fill="#000000" font-family="sans-serif" font-size="11" lengthAdjust="spacingAndGlyphs" textLength="34" x="565" y="726.0386">buffer</text><text fill="#000000" font-family="sans-serif" font-size="11" lengthAdjust="spacingAndGlyphs" textLength="52" x="565" y="738.8433">keyboard</text><text fill="#000000" font-family="sans-serif" font-size="11" lengthAdjust="spacingAndGlyphs" textLength="30" x="565" y="751.6479">video</text><text fill="#000000" font-family="sans-serif" font-size="11" lengthAdjust="spacingAndGlyphs" textLength="47" x="565" y="764.4526">webcam</text><!--MD5=[3cab58e622330109321580dbb0b85605]
class Input--><rect fill="#FEFECE" filter="url(#fubjsc8i6q9zb)" height="116.8281" id="Input" style="stroke: #A80036; stroke-width: 1.5;" width="125" x="474" y="426"/><ellipse cx="516.45" cy="442" fill="#ADD1B2" rx="11" ry="11" style="stroke: #A80036; stroke-width: 1.0;"/><path d="M519.4188,447.6406 Q518.8406,447.9375 518.2,448.0781 Q517.5594,448.2344 516.8563,448.2344 Q514.3563,448.2344 513.0281,446.5938 Q511.7156,444.9375 511.7156,441.8125 Q511.7156,438.6875 513.0281,437.0313 Q514.3563,435.375 516.8563,435.375 Q517.5594,435.375 518.2,435.5313 Q518.8563,435.6875 519.4188,435.9844 L519.4188,438.7031 Q518.7938,438.125 518.2,437.8594 Q517.6063,437.5781 516.9813,437.5781 Q515.6375,437.5781 514.95,438.6563 Q514.2625,439.7188 514.2625,441.8125 Q514.2625,443.9063 514.95,444.9844 Q515.6375,446.0469 516.9813,446.0469 Q517.6063,446.0469 518.2,445.7813 Q518.7938,445.5 519.4188,444.9219 L519.4188,447.6406 Z "/><text fill="#000000" font-family="sans-serif" font-size="12" lengthAdjust="spacingAndGlyphs" textLength="32" x="536.55" y="446.1543">Input</text><line style="stroke: #A80036; stroke-width: 1.5;" x1="475" x2="598" y1="458" y2="458"/><ellipse cx="485" cy="469" fill="none" rx="3" ry="3" style="stroke: #038048; stroke-width: 1.0;"/><text fill="#000000" font-family="sans-serif" font-size="11" lengthAdjust="spacingAndGlyphs" textLength="48" x="494" y="472.2104">String id</text><ellipse cx="485" cy="481.8047" fill="none" rx="3" ry="3" style="stroke: #038048; stroke-width: 1.0;"/><text fill="#000000" font-family="sans-serif" font-size="11" lengthAdjust="spacingAndGlyphs" textLength="56" x="494" y="485.0151">String src</text><ellipse cx="485" cy="494.6094" fill="none" rx="3" ry="3" style="stroke: #038048; stroke-width: 1.0;"/><text fill="#000000" font-family="sans-serif" font-size="11" lengthAdjust="spacingAndGlyphs" textLength="83" x="494" y="497.8198">InputType type</text><ellipse cx="485" cy="507.4141" fill="none" rx="3" ry="3" style="stroke: #038048; stroke-width: 1.0;"/><text fill="#000000" font-family="sans-serif" font-size="11" lengthAdjust="spacingAndGlyphs" textLength="62" x="494" y="510.6245">int channel</text><ellipse cx="485" cy="520.2188" fill="none" rx="3" ry="3" style="stroke: #038048; stroke-width: 1.0;"/><text fill="#000000" font-family="sans-serif" font-size="11" lengthAdjust="spacingAndGlyphs" textLength="99" x="494" y="523.4292">Sampler sampler</text><ellipse cx="485" cy="533.0234" fill="none" rx="3" ry="3" style="stroke: #038048; stroke-width: 1.0;"/><text fill="#000000" font-family="sans-serif" font-size="11" lengthAdjust="spacingAndGlyphs" textLength="73" x="494" y="536.2339">int published</text><!--MD5=[847fc839c78cd68cdbea65b88e602834]
class Output--><rect fill="#FEFECE" filter="url(#fubjsc8i6q9zb)" height="65.6094" id="Output" style="stroke: #A80036; stroke-width: 1.5;" width="88" x="634.5" y="451.5"/><ellipse cx="655.35" cy="467.5" fill="#ADD1B2" rx="11" ry="11" style="stroke: #A80036; stroke-width: 1.0;"/><path d="M658.3188,473.1406 Q657.7406,473.4375 657.1,473.5781 Q656.4594,473.7344 655.7563,473.7344 Q653.2563,473.7344 651.9281,472.0938 Q650.6156,470.4375 650.6156,467.3125 Q650.6156,464.1875 651.9281,462.5313 Q653.2563,460.875 655.7563,460.875 Q656.4594,460.875 657.1,461.0313 Q657.7563,461.1875 658.3188,461.4844 L658.3188,464.2031 Q657.6938,463.625 657.1,463.3594 Q656.5063,463.0781 655.8813,463.0781 Q654.5375,463.0781 653.85,464.1563 Q653.1625,465.2188 653.1625,467.3125 Q653.1625,469.4063 653.85,470.4844 Q654.5375,471.5469 655.8813,471.5469 Q656.5063,471.5469 657.1,471.2813 Q657.6938,471 658.3188,470.4219 L658.3188,473.1406 Z "/><text fill="#000000" font-family="sans-serif" font-size="12" lengthAdjust="spacingAndGlyphs" textLength="43" x="670.65" y="471.6543">Output</text><line style="stroke: #A80036; stroke-width: 1.5;" x1="635.5" x2="721.5" y1="483.5" y2="483.5"/><ellipse cx="645.5" cy="494.5" fill="none" rx="3" ry="3" style="stroke: #038048; stroke-width: 1.0;"/><text fill="#000000" font-family="sans-serif" font-size="11" lengthAdjust="spacingAndGlyphs" textLength="48" x="654.5" y="497.7104">String id</text><ellipse cx="645.5" cy="507.3047" fill="none" rx="3" ry="3" style="stroke: #038048; stroke-width: 1.0;"/><text fill="#000000" font-family="sans-serif" font-size="11" lengthAdjust="spacingAndGlyphs" textLength="62" x="654.5" y="510.5151">int channel</text><!--MD5=[e5a5830e1720fde2dd5bf575a16e759f]
class RenderPassType--><rect fill="#FEFECE" filter="url(#fubjsc8i6q9zb)" height="104.0234" id="RenderPassType" style="stroke: #A80036; stroke-width: 1.5;" width="136" x="757.5" y="432.5"/><ellipse cx="772.5" cy="448.5" fill="#EB937F" rx="11" ry="11" style="stroke: #A80036; stroke-width: 1.0;"/><path d="M776.6094,454.5 L768.8906,454.5 L768.8906,442.1094 L776.6094,442.1094 L776.6094,444.2656 L771.3438,444.2656 L771.3438,446.9375 L776.1094,446.9375 L776.1094,449.0938 L771.3438,449.0938 L771.3438,452.3438 L776.6094,452.3438 L776.6094,454.5 Z "/><text fill="#000000" font-family="sans-serif" font-size="12" lengthAdjust="spacingAndGlyphs" textLength="104" x="786.5" y="452.6543">RenderPassType</text><line style="stroke: #A80036; stroke-width: 1.5;" x1="758.5" x2="892.5" y1="464.5" y2="464.5"/><text fill="#000000" font-family="sans-serif" font-size="11" lengthAdjust="spacingAndGlyphs" textLength="35" x="763.5" y="478.7104">sound</text><text fill="#000000" font-family="sans-serif" font-size="11" lengthAdjust="spacingAndGlyphs" textLength="49" x="763.5" y="491.5151">common</text><text fill="#000000" font-family="sans-serif" font-size="11" lengthAdjust="spacingAndGlyphs" textLength="35" x="763.5" y="504.3198">image</text><text fill="#000000" font-family="sans-serif" font-size="11" lengthAdjust="spacingAndGlyphs" textLength="34" x="763.5" y="517.1245">buffer</text><text fill="#000000" font-family="sans-serif" font-size="11" lengthAdjust="spacingAndGlyphs" textLength="52" x="763.5" y="529.9292">cubemap</text><!--MD5=[238882db1a9318ba3cb11d591dea3b78]
class RenderPass--><rect fill="#FEFECE" filter="url(#fubjsc8i6q9zb)" height="116.8281" id="RenderPass" style="stroke: #A80036; stroke-width: 1.5;" width="149" x="575" y="217"/><ellipse cx="608.9" cy="233" fill="#ADD1B2" rx="11" ry="11" style="stroke: #A80036; stroke-width: 1.0;"/><path d="M611.8688,238.6406 Q611.2906,238.9375 610.65,239.0781 Q610.0094,239.2344 609.3063,239.2344 Q606.8063,239.2344 605.4781,237.5938 Q604.1656,235.9375 604.1656,232.8125 Q604.1656,229.6875 605.4781,228.0313 Q606.8063,226.375 609.3063,226.375 Q610.0094,226.375 610.65,226.5313 Q611.3063,226.6875 611.8688,226.9844 L611.8688,229.7031 Q611.2438,229.125 610.65,228.8594 Q610.0563,228.5781 609.4313,228.5781 Q608.0875,228.5781 607.4,229.6563 Q606.7125,230.7188 606.7125,232.8125 Q606.7125,234.9063 607.4,235.9844 Q608.0875,237.0469 609.4313,237.0469 Q610.0563,237.0469 610.65,236.7813 Q611.2438,236.5 611.8688,235.9219 L611.8688,238.6406 Z "/><text fill="#000000" font-family="sans-serif" font-size="12" lengthAdjust="spacingAndGlyphs" textLength="75" x="627.1" y="237.1543">RenderPass</text><line style="stroke: #A80036; stroke-width: 1.5;" x1="576" x2="723" y1="249" y2="249"/><ellipse cx="586" cy="260" fill="none" rx="3" ry="3" style="stroke: #038048; stroke-width: 1.0;"/><text fill="#000000" font-family="sans-serif" font-size="11" lengthAdjust="spacingAndGlyphs" textLength="70" x="595" y="263.2104">String name</text><ellipse cx="586" cy="272.8047" fill="none" rx="3" ry="3" style="stroke: #038048; stroke-width: 1.0;"/><text fill="#000000" font-family="sans-serif" font-size="11" lengthAdjust="spacingAndGlyphs" textLength="123" x="595" y="276.0151">RenderPassType type</text><ellipse cx="586" cy="285.6094" fill="none" rx="3" ry="3" style="stroke: #038048; stroke-width: 1.0;"/><text fill="#000000" font-family="sans-serif" font-size="11" lengthAdjust="spacingAndGlyphs" textLength="101" x="595" y="288.8198">String description</text><ellipse cx="586" cy="298.4141" fill="none" rx="3" ry="3" style="stroke: #038048; stroke-width: 1.0;"/><text fill="#000000" font-family="sans-serif" font-size="11" lengthAdjust="spacingAndGlyphs" textLength="65" x="595" y="301.6245">String code</text><ellipse cx="586" cy="311.2188" fill="none" rx="3" ry="3" style="stroke: #038048; stroke-width: 1.0;"/><text fill="#000000" font-family="sans-serif" font-size="11" lengthAdjust="spacingAndGlyphs" textLength="105" x="595" y="314.4292">List&lt;Input&gt; inputs</text><ellipse cx="586" cy="324.0234" fill="none" rx="3" ry="3" style="stroke: #038048; stroke-width: 1.0;"/><text fill="#000000" font-family="sans-serif" font-size="11" lengthAdjust="spacingAndGlyphs" textLength="123" x="595" y="327.2339">List&lt;Output&gt; outputs</text><!--MD5=[03b04ed89c1f7ac76f6e629bfb39a406]
class Shader--><rect fill="#FEFECE" filter="url(#fubjsc8i6q9zb)" height="78.4141" id="Shader" style="stroke: #A80036; stroke-width: 1.5;" width="216" x="415.5" y="27.5"/><ellipse cx="496.75" cy="43.5" fill="#ADD1B2" rx="11" ry="11" style="stroke: #A80036; stroke-width: 1.0;"/><path d="M499.7188,49.1406 Q499.1406,49.4375 498.5,49.5781 Q497.8594,49.7344 497.1563,49.7344 Q494.6563,49.7344 493.3281,48.0938 Q492.0156,46.4375 492.0156,43.3125 Q492.0156,40.1875 493.3281,38.5313 Q494.6563,36.875 497.1563,36.875 Q497.8594,36.875 498.5,37.0313 Q499.1563,37.1875 499.7188,37.4844 L499.7188,40.2031 Q499.0938,39.625 498.5,39.3594 Q497.9063,39.0781 497.2813,39.0781 Q495.9375,39.0781 495.25,40.1563 Q494.5625,41.2188 494.5625,43.3125 Q494.5625,45.4063 495.25,46.4844 Q495.9375,47.5469 497.2813,47.5469 Q497.9063,47.5469 498.5,47.2813 Q499.0938,47 499.7188,46.4219 L499.7188,49.1406 Z "/><text fill="#000000" font-family="sans-serif" font-size="12" lengthAdjust="spacingAndGlyphs" textLength="45" x="517.25" y="47.6543">Shader</text><line style="stroke: #A80036; stroke-width: 1.5;" x1="416.5" x2="630.5" y1="59.5" y2="59.5"/><ellipse cx="426.5" cy="70.5" fill="none" rx="3" ry="3" style="stroke: #038048; stroke-width: 1.0;"/><text fill="#000000" font-family="sans-serif" font-size="11" lengthAdjust="spacingAndGlyphs" textLength="80" x="435.5" y="73.7104">String version</text><ellipse cx="426.5" cy="83.3047" fill="none" rx="3" ry="3" style="stroke: #038048; stroke-width: 1.0;"/><text fill="#000000" font-family="sans-serif" font-size="11" lengthAdjust="spacingAndGlyphs" textLength="46" x="435.5" y="86.5151">Info Info</text><ellipse cx="426.5" cy="96.1094" fill="none" rx="3" ry="3" style="stroke: #038048; stroke-width: 1.0;"/><text fill="#000000" font-family="sans-serif" font-size="11" lengthAdjust="spacingAndGlyphs" textLength="190" x="435.5" y="99.3198">List&lt;RenderPass&gt; renderPasses</text><!--MD5=[51f5317a6dc5adfb9dc1aa9e10bafca5]
class PlaylistPrivacy--><rect fill="#FEFECE" filter="url(#fubjsc8i6q9zb)" height="78.4141" id="PlaylistPrivacy" style="stroke: #A80036; stroke-width: 1.5;" width="118" x="178.5" y="236.5"/><ellipse cx="193.5" cy="252.5" fill="#EB937F" rx="11" ry="11" style="stroke: #A80036; stroke-width: 1.0;"/><path d="M197.6094,258.5 L189.8906,258.5 L189.8906,246.1094 L197.6094,246.1094 L197.6094,248.2656 L192.3438,248.2656 L192.3438,250.9375 L197.1094,250.9375 L197.1094,253.0938 L192.3438,253.0938 L192.3438,256.3438 L197.6094,256.3438 L197.6094,258.5 Z "/><text fill="#000000" font-family="sans-serif" font-size="12" lengthAdjust="spacingAndGlyphs" textLength="86" x="207.5" y="256.6543">PlaylistPrivacy</text><line style="stroke: #A80036; stroke-width: 1.5;" x1="179.5" x2="295.5" y1="268.5" y2="268.5"/><text fill="#000000" font-family="sans-serif" font-size="11" lengthAdjust="spacingAndGlyphs" textLength="39" x="184.5" y="282.7104">private</text><text fill="#000000" font-family="sans-serif" font-size="11" lengthAdjust="spacingAndGlyphs" textLength="45" x="184.5" y="295.5151">unlisted</text><text fill="#000000" font-family="sans-serif" font-size="11" lengthAdjust="spacingAndGlyphs" textLength="33" x="184.5" y="308.3198">public</text><!--MD5=[2ce409087c256806e794369f9639a134]
class Playlist--><rect fill="#FEFECE" filter="url(#fubjsc8i6q9zb)" height="104.0234" id="Playlist" style="stroke: #A80036; stroke-width: 1.5;" width="150" x="162.5" y="14.5"/><ellipse cx="211.75" cy="30.5" fill="#ADD1B2" rx="11" ry="11" style="stroke: #A80036; stroke-width: 1.0;"/><path d="M214.7188,36.1406 Q214.1406,36.4375 213.5,36.5781 Q212.8594,36.7344 212.1563,36.7344 Q209.6563,36.7344 208.3281,35.0938 Q207.0156,33.4375 207.0156,30.3125 Q207.0156,27.1875 208.3281,25.5313 Q209.6563,23.875 212.1563,23.875 Q212.8594,23.875 213.5,24.0313 Q214.1563,24.1875 214.7188,24.4844 L214.7188,27.2031 Q214.0938,26.625 213.5,26.3594 Q212.9063,26.0781 212.2813,26.0781 Q210.9375,26.0781 210.25,27.1563 Q209.5625,28.2188 209.5625,30.3125 Q209.5625,32.4063 210.25,33.4844 Q210.9375,34.5469 212.2813,34.5469 Q212.9063,34.5469 213.5,34.2813 Q214.0938,34 214.7188,33.4219 L214.7188,36.1406 Z "/><text fill="#000000" font-family="sans-serif" font-size="12" lengthAdjust="spacingAndGlyphs" textLength="43" x="232.25" y="34.6543">Playlist</text><line style="stroke: #A80036; stroke-width: 1.5;" x1="163.5" x2="311.5" y1="46.5" y2="46.5"/><ellipse cx="173.5" cy="57.5" fill="none" rx="3" ry="3" style="stroke: #038048; stroke-width: 1.0;"/><text fill="#000000" font-family="sans-serif" font-size="11" lengthAdjust="spacingAndGlyphs" textLength="48" x="182.5" y="60.7104">String id</text><ellipse cx="173.5" cy="70.3047" fill="none" rx="3" ry="3" style="stroke: #038048; stroke-width: 1.0;"/><text fill="#000000" font-family="sans-serif" font-size="11" lengthAdjust="spacingAndGlyphs" textLength="74" x="182.5" y="73.5151">String userId</text><ellipse cx="173.5" cy="83.1094" fill="none" rx="3" ry="3" style="stroke: #038048; stroke-width: 1.0;"/><text fill="#000000" font-family="sans-serif" font-size="11" lengthAdjust="spacingAndGlyphs" textLength="70" x="182.5" y="86.3198">String name</text><ellipse cx="173.5" cy="95.9141" fill="none" rx="3" ry="3" style="stroke: #038048; stroke-width: 1.0;"/><text fill="#000000" font-family="sans-serif" font-size="11" lengthAdjust="spacingAndGlyphs" textLength="101" x="182.5" y="99.1245">String description</text><ellipse cx="173.5" cy="108.7188" fill="none" rx="3" ry="3" style="stroke: #038048; stroke-width: 1.0;"/><text fill="#000000" font-family="sans-serif" font-size="11" lengthAdjust="spacingAndGlyphs" textLength="124" x="182.5" y="111.9292">PlaylistPrivacy privacy</text><!--MD5=[279d4fab721081fe8028071c83eb16bd]
link Info to ShaderPrivacy--><path d="M394.95,366.09 C391.43,391.22 387.75,417.47 384.77,438.75 " fill="none" id="Info-ShaderPrivacy" style="stroke: #A80036; stroke-width: 1.0; stroke-dasharray: 7.0,7.0;"/><!--MD5=[e6c152588259b4f6ebf34b280c858812]
link Sampler to FilterType--><path d="M450.01,739.24 C440.24,767.86 428.18,803.19 418.79,830.71 " fill="none" id="Sampler-FilterType" style="stroke: #A80036; stroke-width: 1.0; stroke-dasharray: 7.0,7.0;"/><!--MD5=[fa07d61fb7493726bca773c5e9965c93]
link Sampler to WrapType--><path d="M484.99,739.24 C494.76,767.86 506.82,803.19 516.21,830.71 " fill="none" id="Sampler-WrapType" style="stroke: #A80036; stroke-width: 1.0; stroke-dasharray: 7.0,7.0;"/><!--MD5=[698a9c0837b0fead6b394295697c0722]
link Input to InputType--><path d="M556.37,543.22 C562.77,561.85 570.01,582.88 576.92,602.96 " fill="none" id="Input-InputType" style="stroke: #A80036; stroke-width: 1.0; stroke-dasharray: 7.0,7.0;"/><!--MD5=[54656a65a6b176d5f6a50ead8cca7705]
link RenderPass to RenderPassType--><path d="M698.53,334.16 C724.77,365.03 756.8,402.7 782.13,432.49 " fill="none" id="RenderPass-RenderPassType" style="stroke: #A80036; stroke-width: 1.0; stroke-dasharray: 7.0,7.0;"/><!--MD5=[282f3bf7ae85f06707cf7ceb38c271ec]
link Playlist to PlaylistPrivacy--><path d="M237.5,118.67 C237.5,155.06 237.5,203.18 237.5,236.26 " fill="none" id="Playlist-PlaylistPrivacy" style="stroke: #A80036; stroke-width: 1.0; stroke-dasharray: 7.0,7.0;"/><!--MD5=[8f19c8e5af5278cb995804fcff4b21af]
reverse link Shader to Info--><path d="M495.54,117.39 C484.2,137.62 470.75,161.63 457.81,184.72 " fill="none" id="Shader&lt;-Info" style="stroke: #A80036; stroke-width: 1.0;"/><polygon fill="#FFFFFF" points="501.95,105.95,495.5272,109.2284,496.0831,116.418,502.5059,113.1396,501.95,105.95" style="stroke: #A80036; stroke-width: 1.0;"/><text fill="#000000" font-family="sans-serif" font-size="13" lengthAdjust="spacingAndGlyphs" textLength="23" x="468.8008" y="126.0623">info</text><text fill="#000000" font-family="sans-serif" font-size="13" lengthAdjust="spacingAndGlyphs" textLength="8" x="453.5003" y="173.9664">1</text><!--MD5=[caff0fb8dd27e7bce1db43d75c971a9b]
reverse link Shader to RenderPass--><path d="M553.87,117.39 C572.08,147.31 595.31,185.47 614.32,216.7 " fill="none" id="Shader&lt;-RenderPass" style="stroke: #A80036; stroke-width: 1.0;"/><polygon fill="#FFFFFF" points="546.9,105.95,546.6032,113.155,553.1398,116.2001,553.4366,108.9951,546.9,105.95" style="stroke: #A80036; stroke-width: 1.0;"/><text fill="#000000" font-family="sans-serif" font-size="13" lengthAdjust="spacingAndGlyphs" textLength="87" x="580.1172" y="126.0623">renderPasses</text><text fill="#000000" font-family="sans-serif" font-size="13" lengthAdjust="spacingAndGlyphs" textLength="23" x="577.4601" y="206.1186">1..*</text><!--MD5=[b192379bd1989d5bbc4c6d9a7d1e3228]
reverse link RenderPass to Input--><path d="M611.65,345.83 C597.48,371.8 581.54,400.99 568,425.79 " fill="none" id="RenderPass&lt;-Input" style="stroke: #A80036; stroke-width: 1.0;"/><polygon fill="#FFFFFF" points="618.02,334.16,611.6347,337.5108,612.2719,344.6937,618.6572,341.3429,618.02,334.16" style="stroke: #A80036; stroke-width: 1.0;"/><text fill="#000000" font-family="sans-serif" font-size="13" lengthAdjust="spacingAndGlyphs" textLength="39" x="564.6629" y="353.8943">inputs</text><text fill="#000000" font-family="sans-serif" font-size="13" lengthAdjust="spacingAndGlyphs" textLength="23" x="547.4375" y="414.8061">1..*</text><!--MD5=[e49e12051756ad7174cb4f3543a7a0ec]
reverse link RenderPass to Output--><path d="M659.43,347.36 C664.37,382.63 670.1,423.53 673.98,451.22 " fill="none" id="RenderPass&lt;-Output" style="stroke: #A80036; stroke-width: 1.0;"/><polygon fill="#FFFFFF" points="657.58,334.16,654.4566,340.6596,659.2549,346.0425,662.3783,339.543,657.58,334.16" style="stroke: #A80036; stroke-width: 1.0;"/><text fill="#000000" font-family="sans-serif" font-size="13" lengthAdjust="spacingAndGlyphs" textLength="49" x="661.3471" y="353.8943">outputs</text><text fill="#000000" font-family="sans-serif" font-size="13" lengthAdjust="spacingAndGlyphs" textLength="23" x="647.8261" y="440.3099">1..*</text><!--MD5=[65c9f653de6ec396eae5b32b37f4e935]
reverse link Input to Sampler--><path d="M512.33,555.73 C503.37,581.78 493.38,610.8 485.11,634.82 " fill="none" id="Input&lt;-Sampler" style="stroke: #A80036; stroke-width: 1.0;"/><polygon fill="#FFFFFF" points="516.63,543.22,510.8966,547.5936,512.7287,554.5681,518.462,550.1945,516.63,543.22" style="stroke: #A80036; stroke-width: 1.0;"/><text fill="#000000" font-family="sans-serif" font-size="13" lengthAdjust="spacingAndGlyphs" textLength="52" x="455.095" y="562.9612">sampler</text><text fill="#000000" font-family="sans-serif" font-size="13" lengthAdjust="spacingAndGlyphs" textLength="8" x="478.9388" y="623.8747">1</text><!--MD5=[41c570bcc2d1df6f5d63710391dac55c]
link Info to User--><path d="M331.76,351.81 C326.04,356.75 320.25,361.53 314.5,366 C277.76,394.59 233.73,422.3 197.41,443.62 " fill="none" id="Info-User" style="stroke: #A80036; stroke-width: 1.0;"/><!--MD5=[bae4ea4bf9c09909ed509b11f4a10ce1]
link Playlist to Info--><path d="M279.52,118.67 C295.94,138.66 315.27,162.19 333.85,184.82 " fill="none" id="Playlist-Info" style="stroke: #A80036; stroke-width: 1.0;"/><!--MD5=[03b83e5f34cd6aa5644f981585d82b91]
link Playlist to User--><path d="M196.65,118.52 C182.94,138.21 168.99,161.62 160.5,185 C131.42,265.06 125.19,364.4 124.5,425.87 " fill="none" id="Playlist-User" style="stroke: #A80036; stroke-width: 1.0;"/><!--MD5=[eefc92865afa0eb0479af9e237f1c4f7]
link Comment to Info--><path d="M119.05,110.08 C127.36,115.47 136,120.62 144.5,125 C215.74,161.67 246.31,142.93 314.5,185 C320.41,188.65 326.26,192.72 331.96,197.07 " fill="none" id="Comment-Info" style="stroke: #A80036; stroke-width: 1.0;"/><!--MD5=[6a06045152f20214b4760875fd259869]
link Comment to User--><path d="M68.02,125.24 C74.17,185.54 85.16,282.76 99.5,366 C102.87,385.56 107.32,406.78 111.58,425.74 " fill="none" id="Comment-User" style="stroke: #A80036; stroke-width: 1.0;"/><!--MD5=[4d9be21fd4b4c743e8755899d02fe7dc]
@startuml model

hide methods

class User {
 +String id
 +String picture
 +String memberSince
 +int following
 +int followers
 +String about
}

class Comment {
    +String id
    +String userId
    +String picture
    +DateTime date
    +String text
    +boolean hidden
}

enum ShaderPrivacy {
    private
    unlisted
    public
    public_api
}

class Info {
    +String id
    +DateTime date
    +int views 
    +String name
    +String userId
    +String description
    +int likes
    +ShaderPrivacy privacy
    +int flags
    +List<String> tags
    +bool hasLiked
}

enum FilterType {
    none
    nearest
    linear
    mipmap
}

enum WrapType {
    none
    clamp
    repeat
    mirror
}

class Sampler {
    +FilterType filter
    +WrapType wrap
    +bool vflip
    +bool srgb
    +String internal
}

enum InputType {
    texture
    volume
    cubemap
    music
    musicstream
    mic
    buffer
    keyboard
    video
    webcam
}

class Input {
    +String id
    +String src
    +InputType type
    +int channel
    +Sampler sampler
    +int published
}

class Output {
    +String id
    +int channel
}

enum RenderPassType {
    sound
    common
    image
    buffer
    cubemap
}

class RenderPass {
    +String name
    +RenderPassType type
    +String description
    +String code
    +List<Input> inputs
    +List<Output> outputs

}

class Shader {
    +String version
    +Info Info
    +List<RenderPass> renderPasses
}

enum PlaylistPrivacy {
    private
    unlisted
    public
}

class Playlist {
    +String id
    +String userId
    +String name
    +String description
    +PlaylistPrivacy privacy
}

Info  .. ShaderPrivacy
Sampler .. FilterType
Sampler .. WrapType
Input .. InputType
RenderPass .. RenderPassType
Playlist .. PlaylistPrivacy

Shader "             info" o- - "1" Info
Shader "     renderPasses" o- - "1..*  " RenderPass
RenderPass "inputs  " o- - "1..*" Input
RenderPass "outputs" o- - "1..*" Output
Input "sampler " o- - "1" Sampler

Info - - User
Playlist - - Info
Playlist - - User
Comment - - Info
Comment - - User


@enduml

PlantUML version 1.2020.02(Sun Mar 01 10:22:07 GMT 2020)
(GPL source distribution)
Java Runtime: OpenJDK Runtime Environment
JVM: OpenJDK 64-Bit Server VM
Java Version: 11.0.9+11-Ubuntu-0ubuntu1
Operating System: Linux
Default Encoding: ANSI_X3.4-1968
Language: en
Country: US
--></g></svg>