<?xml version="1.0" encoding="UTF-8" standalone="no"?><svg xmlns="http://www.w3.org/2000/svg" xmlns:xlink="http://www.w3.org/1999/xlink" contentScriptType="application/ecmascript" contentStyleType="text/css" height="1071px" preserveAspectRatio="none" style="width:769px;height:1071px;" version="1.1" viewBox="0 0 769 1071" width="769px" zoomAndPan="magnify"><defs><filter height="300%" id="f13nxh40k7z2v2" width="300%" x="-1" y="-1"><feGaussianBlur result="blurOut" stdDeviation="2.0"/><feColorMatrix in="blurOut" result="blurOut2" type="matrix" values="0 0 0 0 0 0 0 0 0 0 0 0 0 0 0 0 0 0 .4 0"/><feOffset dx="4.0" dy="4.0" in="blurOut2" result="blurOut3"/><feBlend in="SourceGraphic" in2="blurOut3" mode="normal"/></filter></defs><g><!--MD5=[3fd616f346a44cd59a91eb10b19e157c]
class User--><rect fill="#FEFECE" filter="url(#f13nxh40k7z2v2)" height="116.8281" id="User" style="stroke: #A80036; stroke-width: 1.5;" width="144" x="6" y="355"/><ellipse cx="59.25" cy="371" fill="#ADD1B2" rx="11" ry="11" style="stroke: #A80036; stroke-width: 1.0;"/><path d="M61.5938,366.6719 C60.6563,366.2344 60.0625,366.0938 59.1875,366.0938 C56.5625,366.0938 54.5625,368.1719 54.5625,370.8906 L54.5625,372.0156 C54.5625,374.5938 56.6719,376.4844 59.5625,376.4844 C60.7813,376.4844 61.9375,376.1875 62.6875,375.6406 C63.2656,375.2344 63.5938,374.7813 63.5938,374.3906 C63.5938,373.9375 63.2031,373.5469 62.7344,373.5469 C62.5156,373.5469 62.3125,373.625 62.125,373.8125 C61.6719,374.2969 61.6719,374.2969 61.4844,374.3906 C61.0625,374.6563 60.375,374.7813 59.6094,374.7813 C57.5625,374.7813 56.2656,373.6875 56.2656,371.9844 L56.2656,370.8906 C56.2656,369.1094 57.5156,367.7969 59.25,367.7969 C59.8281,367.7969 60.4375,367.9531 60.9063,368.2031 C61.3906,368.4844 61.5625,368.7031 61.6563,369.1094 C61.7188,369.5156 61.75,369.6406 61.8906,369.7656 C62.0313,369.9063 62.2656,370.0156 62.4844,370.0156 C62.75,370.0156 63.0156,369.875 63.1875,369.6563 C63.2969,369.5 63.3281,369.3125 63.3281,368.8906 L63.3281,367.4688 C63.3281,367.0313 63.3125,366.9063 63.2188,366.75 C63.0625,366.4844 62.7813,366.3438 62.4844,366.3438 C62.1875,366.3438 61.9844,366.4375 61.7656,366.75 L61.5938,366.6719 Z "/><text fill="#000000" font-family="sans-serif" font-size="12" lengthAdjust="spacingAndGlyphs" textLength="29" x="79.75" y="375.1543">User</text><line style="stroke: #A80036; stroke-width: 1.5;" x1="7" x2="149" y1="387" y2="387"/><ellipse cx="17" cy="398" fill="none" rx="3" ry="3" style="stroke: #038048; stroke-width: 1.0;"/><text fill="#000000" font-family="sans-serif" font-size="11" lengthAdjust="spacingAndGlyphs" textLength="47" x="26" y="401.2104">String id</text><ellipse cx="17" cy="410.8047" fill="none" rx="3" ry="3" style="stroke: #038048; stroke-width: 1.0;"/><text fill="#000000" font-family="sans-serif" font-size="11" lengthAdjust="spacingAndGlyphs" textLength="76" x="26" y="414.0151">String picture</text><ellipse cx="17" cy="423.6094" fill="none" rx="3" ry="3" style="stroke: #038048; stroke-width: 1.0;"/><text fill="#000000" font-family="sans-serif" font-size="11" lengthAdjust="spacingAndGlyphs" textLength="118" x="26" y="426.8198">String memberSince</text><ellipse cx="17" cy="436.4141" fill="none" rx="3" ry="3" style="stroke: #038048; stroke-width: 1.0;"/><text fill="#000000" font-family="sans-serif" font-size="11" lengthAdjust="spacingAndGlyphs" textLength="63" x="26" y="439.6245">int shaders</text><ellipse cx="17" cy="449.2188" fill="none" rx="3" ry="3" style="stroke: #038048; stroke-width: 1.0;"/><text fill="#000000" font-family="sans-serif" font-size="11" lengthAdjust="spacingAndGlyphs" textLength="78" x="26" y="452.4292">int comments</text><ellipse cx="17" cy="462.0234" fill="none" rx="3" ry="3" style="stroke: #038048; stroke-width: 1.0;"/><text fill="#000000" font-family="sans-serif" font-size="11" lengthAdjust="spacingAndGlyphs" textLength="69" x="26" y="465.2339">String about</text><!--MD5=[c74927aacb7973460d2c24e2e8ccb9a0]
class AccountType--><rect fill="#FEFECE" filter="url(#f13nxh40k7z2v2)" height="65.6094" id="AccountType" style="stroke: #A80036; stroke-width: 1.5;" width="110" x="411" y="191"/><ellipse cx="426" cy="207" fill="#EB937F" rx="11" ry="11" style="stroke: #A80036; stroke-width: 1.0;"/><path d="M424.7969,207.875 L426.25,207.875 L426.25,207.9844 C426.25,208.3906 426.2813,208.5469 426.3594,208.7031 C426.5156,208.9531 426.7969,209.1094 427.0938,209.1094 C427.3438,209.1094 427.6094,208.9688 427.7656,208.75 C427.8906,208.5938 427.9219,208.4375 427.9219,207.9844 L427.9219,206.0625 C427.9219,205.9063 427.9219,205.8594 427.9063,205.7031 C427.8438,205.2344 427.5313,204.9219 427.0781,204.9219 C426.8281,204.9219 426.5625,205.0625 426.3906,205.2813 C426.2813,205.4531 426.25,205.6094 426.25,206.0625 L426.25,206.1875 L424.7969,206.1875 L424.7969,203.7813 L428.7813,203.7813 L428.7813,204.6406 C428.7813,205.0469 428.8125,205.2188 428.8906,205.375 C429.0625,205.625 429.3438,205.7813 429.625,205.7813 C429.8906,205.7813 430.1563,205.6406 430.3281,205.4219 C430.4375,205.25 430.4688,205.1094 430.4688,204.6406 L430.4688,202.0938 L422.8438,202.0938 C422.4063,202.0938 422.2813,202.1094 422.125,202.2031 C421.875,202.3594 421.7188,202.6563 421.7188,202.9375 C421.7188,203.2188 421.8594,203.4688 422.0781,203.6406 C422.2344,203.75 422.4219,203.7813 422.8438,203.7813 L423.0938,203.7813 L423.0938,210.2969 L422.8438,210.2969 C422.4375,210.2969 422.2813,210.3125 422.125,210.4219 C421.875,210.5938 421.7188,210.8594 421.7188,211.1563 C421.7188,211.4219 421.8594,211.6719 422.0781,211.8281 C422.2188,211.9531 422.4531,212 422.8438,212 L430.8438,212 L430.8438,209.4219 C430.8438,208.9844 430.8125,208.8438 430.7344,208.6875 C430.5625,208.4375 430.2813,208.2813 430,208.2813 C429.7344,208.2813 429.4688,208.3906 429.2969,208.6406 C429.1875,208.7969 429.1563,208.9375 429.1563,209.4219 L429.1563,210.2969 L424.7969,210.2969 L424.7969,207.875 Z "/><text fill="#000000" font-family="sans-serif" font-size="12" lengthAdjust="spacingAndGlyphs" textLength="78" x="440" y="211.1543">AccountType</text><line style="stroke: #A80036; stroke-width: 1.5;" x1="412" x2="520" y1="223" y2="223"/><text fill="#000000" font-family="sans-serif" font-size="11" lengthAdjust="spacingAndGlyphs" textLength="21" x="417" y="237.2104">site</text><text fill="#000000" font-family="sans-serif" font-size="11" lengthAdjust="spacingAndGlyphs" textLength="17" x="417" y="250.0151">api</text><!--MD5=[f9a29335b499db729be669fd1bd54958]
class Account--><rect fill="#FEFECE" filter="url(#f13nxh40k7z2v2)" height="116.8281" id="Account" style="stroke: #A80036; stroke-width: 1.5;" width="137" x="397.5" y="8"/><ellipse cx="438.15" cy="24" fill="#ADD1B2" rx="11" ry="11" style="stroke: #A80036; stroke-width: 1.0;"/><path d="M440.4938,19.6719 C439.5563,19.2344 438.9625,19.0938 438.0875,19.0938 C435.4625,19.0938 433.4625,21.1719 433.4625,23.8906 L433.4625,25.0156 C433.4625,27.5938 435.5719,29.4844 438.4625,29.4844 C439.6813,29.4844 440.8375,29.1875 441.5875,28.6406 C442.1656,28.2344 442.4938,27.7813 442.4938,27.3906 C442.4938,26.9375 442.1031,26.5469 441.6344,26.5469 C441.4156,26.5469 441.2125,26.625 441.025,26.8125 C440.5719,27.2969 440.5719,27.2969 440.3844,27.3906 C439.9625,27.6563 439.275,27.7813 438.5094,27.7813 C436.4625,27.7813 435.1656,26.6875 435.1656,24.9844 L435.1656,23.8906 C435.1656,22.1094 436.4156,20.7969 438.15,20.7969 C438.7281,20.7969 439.3375,20.9531 439.8063,21.2031 C440.2906,21.4844 440.4625,21.7031 440.5563,22.1094 C440.6188,22.5156 440.65,22.6406 440.7906,22.7656 C440.9313,22.9063 441.1656,23.0156 441.3844,23.0156 C441.65,23.0156 441.9156,22.875 442.0875,22.6563 C442.1969,22.5 442.2281,22.3125 442.2281,21.8906 L442.2281,20.4688 C442.2281,20.0313 442.2125,19.9063 442.1188,19.75 C441.9625,19.4844 441.6813,19.3438 441.3844,19.3438 C441.0875,19.3438 440.8844,19.4375 440.6656,19.75 L440.4938,19.6719 Z "/><text fill="#000000" font-family="sans-serif" font-size="12" lengthAdjust="spacingAndGlyphs" textLength="48" x="457.85" y="28.1543">Account</text><line style="stroke: #A80036; stroke-width: 1.5;" x1="398.5" x2="533.5" y1="40" y2="40"/><ellipse cx="408.5" cy="51" fill="none" rx="3" ry="3" style="stroke: #038048; stroke-width: 1.0;"/><text fill="#000000" font-family="sans-serif" font-size="11" lengthAdjust="spacingAndGlyphs" textLength="70" x="417.5" y="54.2104">String name</text><ellipse cx="408.5" cy="63.8047" fill="none" rx="3" ry="3" style="stroke: #038048; stroke-width: 1.0;"/><text fill="#000000" font-family="sans-serif" font-size="11" lengthAdjust="spacingAndGlyphs" textLength="104" x="417.5" y="67.0151">AccountType type</text><ellipse cx="408.5" cy="76.6094" fill="none" rx="3" ry="3" style="stroke: #038048; stroke-width: 1.0;"/><text fill="#000000" font-family="sans-serif" font-size="11" lengthAdjust="spacingAndGlyphs" textLength="70" x="417.5" y="79.8198">bool system</text><ellipse cx="408.5" cy="89.4141" fill="none" rx="3" ry="3" style="stroke: #038048; stroke-width: 1.0;"/><text fill="#000000" font-family="sans-serif" font-size="11" lengthAdjust="spacingAndGlyphs" textLength="100" x="417.5" y="92.6245">String credentials</text><ellipse cx="408.5" cy="102.2188" fill="none" rx="3" ry="3" style="stroke: #038048; stroke-width: 1.0;"/><text fill="#000000" font-family="sans-serif" font-size="11" lengthAdjust="spacingAndGlyphs" textLength="111" x="417.5" y="105.4292">String displayName</text><ellipse cx="408.5" cy="115.0234" fill="none" rx="3" ry="3" style="stroke: #038048; stroke-width: 1.0;"/><text fill="#000000" font-family="sans-serif" font-size="11" lengthAdjust="spacingAndGlyphs" textLength="76" x="417.5" y="118.2339">String picture</text><!--MD5=[042fa140da40c49659127f611bcff931]
class Comment--><rect fill="#FEFECE" filter="url(#f13nxh40k7z2v2)" height="91.2188" id="Comment" style="stroke: #A80036; stroke-width: 1.5;" width="113" x="33.5" y="21"/><ellipse cx="59.3" cy="37" fill="#ADD1B2" rx="11" ry="11" style="stroke: #A80036; stroke-width: 1.0;"/><path d="M61.6438,32.6719 C60.7063,32.2344 60.1125,32.0938 59.2375,32.0938 C56.6125,32.0938 54.6125,34.1719 54.6125,36.8906 L54.6125,38.0156 C54.6125,40.5938 56.7219,42.4844 59.6125,42.4844 C60.8313,42.4844 61.9875,42.1875 62.7375,41.6406 C63.3156,41.2344 63.6438,40.7813 63.6438,40.3906 C63.6438,39.9375 63.2531,39.5469 62.7844,39.5469 C62.5656,39.5469 62.3625,39.625 62.175,39.8125 C61.7219,40.2969 61.7219,40.2969 61.5344,40.3906 C61.1125,40.6563 60.425,40.7813 59.6594,40.7813 C57.6125,40.7813 56.3156,39.6875 56.3156,37.9844 L56.3156,36.8906 C56.3156,35.1094 57.5656,33.7969 59.3,33.7969 C59.8781,33.7969 60.4875,33.9531 60.9563,34.2031 C61.4406,34.4844 61.6125,34.7031 61.7063,35.1094 C61.7688,35.5156 61.8,35.6406 61.9406,35.7656 C62.0813,35.9063 62.3156,36.0156 62.5344,36.0156 C62.8,36.0156 63.0656,35.875 63.2375,35.6563 C63.3469,35.5 63.3781,35.3125 63.3781,34.8906 L63.3781,33.4688 C63.3781,33.0313 63.3625,32.9063 63.2688,32.75 C63.1125,32.4844 62.8313,32.3438 62.5344,32.3438 C62.2375,32.3438 62.0344,32.4375 61.8156,32.75 L61.6438,32.6719 Z "/><text fill="#000000" font-family="sans-serif" font-size="12" lengthAdjust="spacingAndGlyphs" textLength="57" x="75.7" y="41.1543">Comment</text><line style="stroke: #A80036; stroke-width: 1.5;" x1="34.5" x2="145.5" y1="53" y2="53"/><ellipse cx="44.5" cy="64" fill="none" rx="3" ry="3" style="stroke: #038048; stroke-width: 1.0;"/><text fill="#000000" font-family="sans-serif" font-size="11" lengthAdjust="spacingAndGlyphs" textLength="86" x="53.5" y="67.2104">String shaderId</text><ellipse cx="44.5" cy="76.8047" fill="none" rx="3" ry="3" style="stroke: #038048; stroke-width: 1.0;"/><text fill="#000000" font-family="sans-serif" font-size="11" lengthAdjust="spacingAndGlyphs" textLength="72" x="53.5" y="80.0151">String userId</text><ellipse cx="44.5" cy="89.6094" fill="none" rx="3" ry="3" style="stroke: #038048; stroke-width: 1.0;"/><text fill="#000000" font-family="sans-serif" font-size="11" lengthAdjust="spacingAndGlyphs" textLength="87" x="53.5" y="92.8198">DateTime date</text><ellipse cx="44.5" cy="102.4141" fill="none" rx="3" ry="3" style="stroke: #038048; stroke-width: 1.0;"/><text fill="#000000" font-family="sans-serif" font-size="11" lengthAdjust="spacingAndGlyphs" textLength="60" x="53.5" y="105.6245">String text</text><!--MD5=[44735da48838b6534abdeadabe06a1d6]
class PublishStatus--><rect fill="#FEFECE" filter="url(#f13nxh40k7z2v2)" height="91.2188" id="PublishStatus" style="stroke: #A80036; stroke-width: 1.5;" width="110" x="197" y="577"/><ellipse cx="212" cy="593" fill="#EB937F" rx="11" ry="11" style="stroke: #A80036; stroke-width: 1.0;"/><path d="M210.7969,593.875 L212.25,593.875 L212.25,593.9844 C212.25,594.3906 212.2813,594.5469 212.3594,594.7031 C212.5156,594.9531 212.7969,595.1094 213.0938,595.1094 C213.3438,595.1094 213.6094,594.9688 213.7656,594.75 C213.8906,594.5938 213.9219,594.4375 213.9219,593.9844 L213.9219,592.0625 C213.9219,591.9063 213.9219,591.8594 213.9063,591.7031 C213.8438,591.2344 213.5313,590.9219 213.0781,590.9219 C212.8281,590.9219 212.5625,591.0625 212.3906,591.2813 C212.2813,591.4531 212.25,591.6094 212.25,592.0625 L212.25,592.1875 L210.7969,592.1875 L210.7969,589.7813 L214.7813,589.7813 L214.7813,590.6406 C214.7813,591.0469 214.8125,591.2188 214.8906,591.375 C215.0625,591.625 215.3438,591.7813 215.625,591.7813 C215.8906,591.7813 216.1563,591.6406 216.3281,591.4219 C216.4375,591.25 216.4688,591.1094 216.4688,590.6406 L216.4688,588.0938 L208.8438,588.0938 C208.4063,588.0938 208.2813,588.1094 208.125,588.2031 C207.875,588.3594 207.7188,588.6563 207.7188,588.9375 C207.7188,589.2188 207.8594,589.4688 208.0781,589.6406 C208.2344,589.75 208.4219,589.7813 208.8438,589.7813 L209.0938,589.7813 L209.0938,596.2969 L208.8438,596.2969 C208.4375,596.2969 208.2813,596.3125 208.125,596.4219 C207.875,596.5938 207.7188,596.8594 207.7188,597.1563 C207.7188,597.4219 207.8594,597.6719 208.0781,597.8281 C208.2188,597.9531 208.4531,598 208.8438,598 L216.8438,598 L216.8438,595.4219 C216.8438,594.9844 216.8125,594.8438 216.7344,594.6875 C216.5625,594.4375 216.2813,594.2813 216,594.2813 C215.7344,594.2813 215.4688,594.3906 215.2969,594.6406 C215.1875,594.7969 215.1563,594.9375 215.1563,595.4219 L215.1563,596.2969 L210.7969,596.2969 L210.7969,593.875 Z "/><text fill="#000000" font-family="sans-serif" font-size="12" lengthAdjust="spacingAndGlyphs" textLength="78" x="226" y="597.1543">PublishStatus</text><line style="stroke: #A80036; stroke-width: 1.5;" x1="198" x2="306" y1="609" y2="609"/><text fill="#000000" font-family="sans-serif" font-size="11" lengthAdjust="spacingAndGlyphs" textLength="40" x="203" y="623.2104">private</text><text fill="#000000" font-family="sans-serif" font-size="11" lengthAdjust="spacingAndGlyphs" textLength="45" x="203" y="636.0151">unlisted</text><text fill="#000000" font-family="sans-serif" font-size="11" lengthAdjust="spacingAndGlyphs" textLength="33" x="203" y="648.8198">public</text><text fill="#000000" font-family="sans-serif" font-size="11" lengthAdjust="spacingAndGlyphs" textLength="56" x="203" y="661.6245">public_api</text><!--MD5=[88dbfe8572c16244f15eec58f6037418]
class Info--><rect fill="#FEFECE" filter="url(#f13nxh40k7z2v2)" height="180.8516" id="Info" style="stroke: #A80036; stroke-width: 1.5;" width="181" x="185.5" y="323"/><ellipse cx="260.75" cy="339" fill="#ADD1B2" rx="11" ry="11" style="stroke: #A80036; stroke-width: 1.0;"/><path d="M263.0938,334.6719 C262.1563,334.2344 261.5625,334.0938 260.6875,334.0938 C258.0625,334.0938 256.0625,336.1719 256.0625,338.8906 L256.0625,340.0156 C256.0625,342.5938 258.1719,344.4844 261.0625,344.4844 C262.2813,344.4844 263.4375,344.1875 264.1875,343.6406 C264.7656,343.2344 265.0938,342.7813 265.0938,342.3906 C265.0938,341.9375 264.7031,341.5469 264.2344,341.5469 C264.0156,341.5469 263.8125,341.625 263.625,341.8125 C263.1719,342.2969 263.1719,342.2969 262.9844,342.3906 C262.5625,342.6563 261.875,342.7813 261.1094,342.7813 C259.0625,342.7813 257.7656,341.6875 257.7656,339.9844 L257.7656,338.8906 C257.7656,337.1094 259.0156,335.7969 260.75,335.7969 C261.3281,335.7969 261.9375,335.9531 262.4063,336.2031 C262.8906,336.4844 263.0625,336.7031 263.1563,337.1094 C263.2188,337.5156 263.25,337.6406 263.3906,337.7656 C263.5313,337.9063 263.7656,338.0156 263.9844,338.0156 C264.25,338.0156 264.5156,337.875 264.6875,337.6563 C264.7969,337.5 264.8281,337.3125 264.8281,336.8906 L264.8281,335.4688 C264.8281,335.0313 264.8125,334.9063 264.7188,334.75 C264.5625,334.4844 264.2813,334.3438 263.9844,334.3438 C263.6875,334.3438 263.4844,334.4375 263.2656,334.75 L263.0938,334.6719 Z "/><text fill="#000000" font-family="sans-serif" font-size="12" lengthAdjust="spacingAndGlyphs" textLength="22" x="281.25" y="343.1543">Info</text><line style="stroke: #A80036; stroke-width: 1.5;" x1="186.5" x2="365.5" y1="355" y2="355"/><ellipse cx="196.5" cy="366" fill="none" rx="3" ry="3" style="stroke: #038048; stroke-width: 1.0;"/><text fill="#000000" font-family="sans-serif" font-size="11" lengthAdjust="spacingAndGlyphs" textLength="47" x="205.5" y="369.2104">String id</text><ellipse cx="196.5" cy="378.8047" fill="none" rx="3" ry="3" style="stroke: #038048; stroke-width: 1.0;"/><text fill="#000000" font-family="sans-serif" font-size="11" lengthAdjust="spacingAndGlyphs" textLength="87" x="205.5" y="382.0151">DateTime date</text><ellipse cx="196.5" cy="391.6094" fill="none" rx="3" ry="3" style="stroke: #038048; stroke-width: 1.0;"/><text fill="#000000" font-family="sans-serif" font-size="11" lengthAdjust="spacingAndGlyphs" textLength="51" x="205.5" y="394.8198">int views</text><ellipse cx="196.5" cy="404.4141" fill="none" rx="3" ry="3" style="stroke: #038048; stroke-width: 1.0;"/><text fill="#000000" font-family="sans-serif" font-size="11" lengthAdjust="spacingAndGlyphs" textLength="70" x="205.5" y="407.6245">String name</text><ellipse cx="196.5" cy="417.2188" fill="none" rx="3" ry="3" style="stroke: #038048; stroke-width: 1.0;"/><text fill="#000000" font-family="sans-serif" font-size="11" lengthAdjust="spacingAndGlyphs" textLength="72" x="205.5" y="420.4292">String userId</text><ellipse cx="196.5" cy="430.0234" fill="none" rx="3" ry="3" style="stroke: #038048; stroke-width: 1.0;"/><text fill="#000000" font-family="sans-serif" font-size="11" lengthAdjust="spacingAndGlyphs" textLength="99" x="205.5" y="433.2339">String description</text><ellipse cx="196.5" cy="442.8281" fill="none" rx="3" ry="3" style="stroke: #038048; stroke-width: 1.0;"/><text fill="#000000" font-family="sans-serif" font-size="11" lengthAdjust="spacingAndGlyphs" textLength="44" x="205.5" y="446.0386">int likes</text><ellipse cx="196.5" cy="455.6328" fill="none" rx="3" ry="3" style="stroke: #038048; stroke-width: 1.0;"/><text fill="#000000" font-family="sans-serif" font-size="11" lengthAdjust="spacingAndGlyphs" textLength="155" x="205.5" y="458.8433">PublishStatus publishStatus</text><ellipse cx="196.5" cy="468.4375" fill="none" rx="3" ry="3" style="stroke: #038048; stroke-width: 1.0;"/><text fill="#000000" font-family="sans-serif" font-size="11" lengthAdjust="spacingAndGlyphs" textLength="45" x="205.5" y="471.6479">int flags</text><ellipse cx="196.5" cy="481.2422" fill="none" rx="3" ry="3" style="stroke: #038048; stroke-width: 1.0;"/><text fill="#000000" font-family="sans-serif" font-size="11" lengthAdjust="spacingAndGlyphs" textLength="98" x="205.5" y="484.4526">List&lt;String&gt; tags</text><ellipse cx="196.5" cy="494.0469" fill="none" rx="3" ry="3" style="stroke: #038048; stroke-width: 1.0;"/><text fill="#000000" font-family="sans-serif" font-size="11" lengthAdjust="spacingAndGlyphs" textLength="78" x="205.5" y="497.2573">bool hasLiked</text><!--MD5=[a936fc4126fe56f190c56d68d827f6b3]
class FilterType--><rect fill="#FEFECE" filter="url(#f13nxh40k7z2v2)" height="91.2188" id="FilterType" style="stroke: #A80036; stroke-width: 1.5;" width="92" x="225" y="969"/><ellipse cx="240" cy="985" fill="#EB937F" rx="11" ry="11" style="stroke: #A80036; stroke-width: 1.0;"/><path d="M238.7969,985.875 L240.25,985.875 L240.25,985.9844 C240.25,986.3906 240.2813,986.5469 240.3594,986.7031 C240.5156,986.9531 240.7969,987.1094 241.0938,987.1094 C241.3438,987.1094 241.6094,986.9688 241.7656,986.75 C241.8906,986.5938 241.9219,986.4375 241.9219,985.9844 L241.9219,984.0625 C241.9219,983.9063 241.9219,983.8594 241.9063,983.7031 C241.8438,983.2344 241.5313,982.9219 241.0781,982.9219 C240.8281,982.9219 240.5625,983.0625 240.3906,983.2813 C240.2813,983.4531 240.25,983.6094 240.25,984.0625 L240.25,984.1875 L238.7969,984.1875 L238.7969,981.7813 L242.7813,981.7813 L242.7813,982.6406 C242.7813,983.0469 242.8125,983.2188 242.8906,983.375 C243.0625,983.625 243.3438,983.7813 243.625,983.7813 C243.8906,983.7813 244.1563,983.6406 244.3281,983.4219 C244.4375,983.25 244.4688,983.1094 244.4688,982.6406 L244.4688,980.0938 L236.8438,980.0938 C236.4063,980.0938 236.2813,980.1094 236.125,980.2031 C235.875,980.3594 235.7188,980.6563 235.7188,980.9375 C235.7188,981.2188 235.8594,981.4688 236.0781,981.6406 C236.2344,981.75 236.4219,981.7813 236.8438,981.7813 L237.0938,981.7813 L237.0938,988.2969 L236.8438,988.2969 C236.4375,988.2969 236.2813,988.3125 236.125,988.4219 C235.875,988.5938 235.7188,988.8594 235.7188,989.1563 C235.7188,989.4219 235.8594,989.6719 236.0781,989.8281 C236.2188,989.9531 236.4531,990 236.8438,990 L244.8438,990 L244.8438,987.4219 C244.8438,986.9844 244.8125,986.8438 244.7344,986.6875 C244.5625,986.4375 244.2813,986.2813 244,986.2813 C243.7344,986.2813 243.4688,986.3906 243.2969,986.6406 C243.1875,986.7969 243.1563,986.9375 243.1563,987.4219 L243.1563,988.2969 L238.7969,988.2969 L238.7969,985.875 Z "/><text fill="#000000" font-family="sans-serif" font-size="12" lengthAdjust="spacingAndGlyphs" textLength="60" x="254" y="989.1543">FilterType</text><line style="stroke: #A80036; stroke-width: 1.5;" x1="226" x2="316" y1="1001" y2="1001"/><text fill="#000000" font-family="sans-serif" font-size="11" lengthAdjust="spacingAndGlyphs" textLength="29" x="231" y="1015.2104">none</text><text fill="#000000" font-family="sans-serif" font-size="11" lengthAdjust="spacingAndGlyphs" textLength="44" x="231" y="1028.0151">nearest</text><text fill="#000000" font-family="sans-serif" font-size="11" lengthAdjust="spacingAndGlyphs" textLength="32" x="231" y="1040.8198">linear</text><text fill="#000000" font-family="sans-serif" font-size="11" lengthAdjust="spacingAndGlyphs" textLength="46" x="231" y="1053.6245">mipmap</text><!--MD5=[87ced7e318cf233d499af00967daf86d]
class WrapType--><rect fill="#FEFECE" filter="url(#f13nxh40k7z2v2)" height="91.2188" id="WrapType" style="stroke: #A80036; stroke-width: 1.5;" width="94" x="352" y="969"/><ellipse cx="367" cy="985" fill="#EB937F" rx="11" ry="11" style="stroke: #A80036; stroke-width: 1.0;"/><path d="M365.7969,985.875 L367.25,985.875 L367.25,985.9844 C367.25,986.3906 367.2813,986.5469 367.3594,986.7031 C367.5156,986.9531 367.7969,987.1094 368.0938,987.1094 C368.3438,987.1094 368.6094,986.9688 368.7656,986.75 C368.8906,986.5938 368.9219,986.4375 368.9219,985.9844 L368.9219,984.0625 C368.9219,983.9063 368.9219,983.8594 368.9063,983.7031 C368.8438,983.2344 368.5313,982.9219 368.0781,982.9219 C367.8281,982.9219 367.5625,983.0625 367.3906,983.2813 C367.2813,983.4531 367.25,983.6094 367.25,984.0625 L367.25,984.1875 L365.7969,984.1875 L365.7969,981.7813 L369.7813,981.7813 L369.7813,982.6406 C369.7813,983.0469 369.8125,983.2188 369.8906,983.375 C370.0625,983.625 370.3438,983.7813 370.625,983.7813 C370.8906,983.7813 371.1563,983.6406 371.3281,983.4219 C371.4375,983.25 371.4688,983.1094 371.4688,982.6406 L371.4688,980.0938 L363.8438,980.0938 C363.4063,980.0938 363.2813,980.1094 363.125,980.2031 C362.875,980.3594 362.7188,980.6563 362.7188,980.9375 C362.7188,981.2188 362.8594,981.4688 363.0781,981.6406 C363.2344,981.75 363.4219,981.7813 363.8438,981.7813 L364.0938,981.7813 L364.0938,988.2969 L363.8438,988.2969 C363.4375,988.2969 363.2813,988.3125 363.125,988.4219 C362.875,988.5938 362.7188,988.8594 362.7188,989.1563 C362.7188,989.4219 362.8594,989.6719 363.0781,989.8281 C363.2188,989.9531 363.4531,990 363.8438,990 L371.8438,990 L371.8438,987.4219 C371.8438,986.9844 371.8125,986.8438 371.7344,986.6875 C371.5625,986.4375 371.2813,986.2813 371,986.2813 C370.7344,986.2813 370.4688,986.3906 370.2969,986.6406 C370.1875,986.7969 370.1563,986.9375 370.1563,987.4219 L370.1563,988.2969 L365.7969,988.2969 L365.7969,985.875 Z "/><text fill="#000000" font-family="sans-serif" font-size="12" lengthAdjust="spacingAndGlyphs" textLength="62" x="381" y="989.1543">WrapType</text><line style="stroke: #A80036; stroke-width: 1.5;" x1="353" x2="445" y1="1001" y2="1001"/><text fill="#000000" font-family="sans-serif" font-size="11" lengthAdjust="spacingAndGlyphs" textLength="29" x="358" y="1015.2104">none</text><text fill="#000000" font-family="sans-serif" font-size="11" lengthAdjust="spacingAndGlyphs" textLength="34" x="358" y="1028.0151">clamp</text><text fill="#000000" font-family="sans-serif" font-size="11" lengthAdjust="spacingAndGlyphs" textLength="38" x="358" y="1040.8198">repeat</text><text fill="#000000" font-family="sans-serif" font-size="11" lengthAdjust="spacingAndGlyphs" textLength="33" x="358" y="1053.6245">mirror</text><!--MD5=[c1863ae7a83f0d4114d1dc5ffc6f27df]
class Sampler--><rect fill="#FEFECE" filter="url(#f13nxh40k7z2v2)" height="104.0234" id="Sampler" style="stroke: #A80036; stroke-width: 1.5;" width="115" x="277.5" y="773"/><ellipse cx="307.35" cy="789" fill="#ADD1B2" rx="11" ry="11" style="stroke: #A80036; stroke-width: 1.0;"/><path d="M309.6938,784.6719 C308.7563,784.2344 308.1625,784.0938 307.2875,784.0938 C304.6625,784.0938 302.6625,786.1719 302.6625,788.8906 L302.6625,790.0156 C302.6625,792.5938 304.7719,794.4844 307.6625,794.4844 C308.8813,794.4844 310.0375,794.1875 310.7875,793.6406 C311.3656,793.2344 311.6938,792.7813 311.6938,792.3906 C311.6938,791.9375 311.3031,791.5469 310.8344,791.5469 C310.6156,791.5469 310.4125,791.625 310.225,791.8125 C309.7719,792.2969 309.7719,792.2969 309.5844,792.3906 C309.1625,792.6563 308.475,792.7813 307.7094,792.7813 C305.6625,792.7813 304.3656,791.6875 304.3656,789.9844 L304.3656,788.8906 C304.3656,787.1094 305.6156,785.7969 307.35,785.7969 C307.9281,785.7969 308.5375,785.9531 309.0063,786.2031 C309.4906,786.4844 309.6625,786.7031 309.7563,787.1094 C309.8188,787.5156 309.85,787.6406 309.9906,787.7656 C310.1313,787.9063 310.3656,788.0156 310.5844,788.0156 C310.85,788.0156 311.1156,787.875 311.2875,787.6563 C311.3969,787.5 311.4281,787.3125 311.4281,786.8906 L311.4281,785.4688 C311.4281,785.0313 311.4125,784.9063 311.3188,784.75 C311.1625,784.4844 310.8813,784.3438 310.5844,784.3438 C310.2875,784.3438 310.0844,784.4375 309.8656,784.75 L309.6938,784.6719 Z "/><text fill="#000000" font-family="sans-serif" font-size="12" lengthAdjust="spacingAndGlyphs" textLength="50" x="324.65" y="793.1543">Sampler</text><line style="stroke: #A80036; stroke-width: 1.5;" x1="278.5" x2="391.5" y1="805" y2="805"/><ellipse cx="288.5" cy="816" fill="none" rx="3" ry="3" style="stroke: #038048; stroke-width: 1.0;"/><text fill="#000000" font-family="sans-serif" font-size="11" lengthAdjust="spacingAndGlyphs" textLength="87" x="297.5" y="819.2104">FilterType filter</text><ellipse cx="288.5" cy="828.8047" fill="none" rx="3" ry="3" style="stroke: #038048; stroke-width: 1.0;"/><text fill="#000000" font-family="sans-serif" font-size="11" lengthAdjust="spacingAndGlyphs" textLength="89" x="297.5" y="832.0151">WrapType wrap</text><ellipse cx="288.5" cy="841.6094" fill="none" rx="3" ry="3" style="stroke: #038048; stroke-width: 1.0;"/><text fill="#000000" font-family="sans-serif" font-size="11" lengthAdjust="spacingAndGlyphs" textLength="52" x="297.5" y="844.8198">bool vflip</text><ellipse cx="288.5" cy="854.4141" fill="none" rx="3" ry="3" style="stroke: #038048; stroke-width: 1.0;"/><text fill="#000000" font-family="sans-serif" font-size="11" lengthAdjust="spacingAndGlyphs" textLength="52" x="297.5" y="857.6245">bool srgb</text><ellipse cx="288.5" cy="867.2188" fill="none" rx="3" ry="3" style="stroke: #038048; stroke-width: 1.0;"/><text fill="#000000" font-family="sans-serif" font-size="11" lengthAdjust="spacingAndGlyphs" textLength="80" x="297.5" y="870.4292">String internal</text><!--MD5=[d5414fa6b3869297190d3cd56d6ad7a9]
class InputType--><rect fill="#FEFECE" filter="url(#f13nxh40k7z2v2)" height="168.0469" id="InputType" style="stroke: #A80036; stroke-width: 1.5;" width="91" x="427.5" y="741"/><ellipse cx="442.5" cy="757" fill="#EB937F" rx="11" ry="11" style="stroke: #A80036; stroke-width: 1.0;"/><path d="M441.2969,757.875 L442.75,757.875 L442.75,757.9844 C442.75,758.3906 442.7813,758.5469 442.8594,758.7031 C443.0156,758.9531 443.2969,759.1094 443.5938,759.1094 C443.8438,759.1094 444.1094,758.9688 444.2656,758.75 C444.3906,758.5938 444.4219,758.4375 444.4219,757.9844 L444.4219,756.0625 C444.4219,755.9063 444.4219,755.8594 444.4063,755.7031 C444.3438,755.2344 444.0313,754.9219 443.5781,754.9219 C443.3281,754.9219 443.0625,755.0625 442.8906,755.2813 C442.7813,755.4531 442.75,755.6094 442.75,756.0625 L442.75,756.1875 L441.2969,756.1875 L441.2969,753.7813 L445.2813,753.7813 L445.2813,754.6406 C445.2813,755.0469 445.3125,755.2188 445.3906,755.375 C445.5625,755.625 445.8438,755.7813 446.125,755.7813 C446.3906,755.7813 446.6563,755.6406 446.8281,755.4219 C446.9375,755.25 446.9688,755.1094 446.9688,754.6406 L446.9688,752.0938 L439.3438,752.0938 C438.9063,752.0938 438.7813,752.1094 438.625,752.2031 C438.375,752.3594 438.2188,752.6563 438.2188,752.9375 C438.2188,753.2188 438.3594,753.4688 438.5781,753.6406 C438.7344,753.75 438.9219,753.7813 439.3438,753.7813 L439.5938,753.7813 L439.5938,760.2969 L439.3438,760.2969 C438.9375,760.2969 438.7813,760.3125 438.625,760.4219 C438.375,760.5938 438.2188,760.8594 438.2188,761.1563 C438.2188,761.4219 438.3594,761.6719 438.5781,761.8281 C438.7188,761.9531 438.9531,762 439.3438,762 L447.3438,762 L447.3438,759.4219 C447.3438,758.9844 447.3125,758.8438 447.2344,758.6875 C447.0625,758.4375 446.7813,758.2813 446.5,758.2813 C446.2344,758.2813 445.9688,758.3906 445.7969,758.6406 C445.6875,758.7969 445.6563,758.9375 445.6563,759.4219 L445.6563,760.2969 L441.2969,760.2969 L441.2969,757.875 Z "/><text fill="#000000" font-family="sans-serif" font-size="12" lengthAdjust="spacingAndGlyphs" textLength="59" x="456.5" y="761.1543">InputType</text><line style="stroke: #A80036; stroke-width: 1.5;" x1="428.5" x2="517.5" y1="773" y2="773"/><text fill="#000000" font-family="sans-serif" font-size="11" lengthAdjust="spacingAndGlyphs" textLength="42" x="433.5" y="787.2104">texture</text><text fill="#000000" font-family="sans-serif" font-size="11" lengthAdjust="spacingAndGlyphs" textLength="43" x="433.5" y="800.0151">volume</text><text fill="#000000" font-family="sans-serif" font-size="11" lengthAdjust="spacingAndGlyphs" textLength="53" x="433.5" y="812.8198">cubemap</text><text fill="#000000" font-family="sans-serif" font-size="11" lengthAdjust="spacingAndGlyphs" textLength="33" x="433.5" y="825.6245">music</text><text fill="#000000" font-family="sans-serif" font-size="11" lengthAdjust="spacingAndGlyphs" textLength="73" x="433.5" y="838.4292">musicstream</text><text fill="#000000" font-family="sans-serif" font-size="11" lengthAdjust="spacingAndGlyphs" textLength="20" x="433.5" y="851.2339">mic</text><text fill="#000000" font-family="sans-serif" font-size="11" lengthAdjust="spacingAndGlyphs" textLength="34" x="433.5" y="864.0386">buffer</text><text fill="#000000" font-family="sans-serif" font-size="11" lengthAdjust="spacingAndGlyphs" textLength="53" x="433.5" y="876.8433">keyboard</text><text fill="#000000" font-family="sans-serif" font-size="11" lengthAdjust="spacingAndGlyphs" textLength="32" x="433.5" y="889.6479">video</text><text fill="#000000" font-family="sans-serif" font-size="11" lengthAdjust="spacingAndGlyphs" textLength="48" x="433.5" y="902.4526">webcam</text><!--MD5=[3cab58e622330109321580dbb0b85605]
class Input--><rect fill="#FEFECE" filter="url(#f13nxh40k7z2v2)" height="116.8281" id="Input" style="stroke: #A80036; stroke-width: 1.5;" width="124" x="342" y="564"/><ellipse cx="385.35" cy="580" fill="#ADD1B2" rx="11" ry="11" style="stroke: #A80036; stroke-width: 1.0;"/><path d="M387.6938,575.6719 C386.7563,575.2344 386.1625,575.0938 385.2875,575.0938 C382.6625,575.0938 380.6625,577.1719 380.6625,579.8906 L380.6625,581.0156 C380.6625,583.5938 382.7719,585.4844 385.6625,585.4844 C386.8813,585.4844 388.0375,585.1875 388.7875,584.6406 C389.3656,584.2344 389.6938,583.7813 389.6938,583.3906 C389.6938,582.9375 389.3031,582.5469 388.8344,582.5469 C388.6156,582.5469 388.4125,582.625 388.225,582.8125 C387.7719,583.2969 387.7719,583.2969 387.5844,583.3906 C387.1625,583.6563 386.475,583.7813 385.7094,583.7813 C383.6625,583.7813 382.3656,582.6875 382.3656,580.9844 L382.3656,579.8906 C382.3656,578.1094 383.6156,576.7969 385.35,576.7969 C385.9281,576.7969 386.5375,576.9531 387.0063,577.2031 C387.4906,577.4844 387.6625,577.7031 387.7563,578.1094 C387.8188,578.5156 387.85,578.6406 387.9906,578.7656 C388.1313,578.9063 388.3656,579.0156 388.5844,579.0156 C388.85,579.0156 389.1156,578.875 389.2875,578.6563 C389.3969,578.5 389.4281,578.3125 389.4281,577.8906 L389.4281,576.4688 C389.4281,576.0313 389.4125,575.9063 389.3188,575.75 C389.1625,575.4844 388.8813,575.3438 388.5844,575.3438 C388.2875,575.3438 388.0844,575.4375 387.8656,575.75 L387.6938,575.6719 Z "/><text fill="#000000" font-family="sans-serif" font-size="12" lengthAdjust="spacingAndGlyphs" textLength="29" x="405.65" y="584.1543">Input</text><line style="stroke: #A80036; stroke-width: 1.5;" x1="343" x2="465" y1="596" y2="596"/><ellipse cx="353" cy="607" fill="none" rx="3" ry="3" style="stroke: #038048; stroke-width: 1.0;"/><text fill="#000000" font-family="sans-serif" font-size="11" lengthAdjust="spacingAndGlyphs" textLength="47" x="362" y="610.2104">String id</text><ellipse cx="353" cy="619.8047" fill="none" rx="3" ry="3" style="stroke: #038048; stroke-width: 1.0;"/><text fill="#000000" font-family="sans-serif" font-size="11" lengthAdjust="spacingAndGlyphs" textLength="53" x="362" y="623.0151">String src</text><ellipse cx="353" cy="632.6094" fill="none" rx="3" ry="3" style="stroke: #038048; stroke-width: 1.0;"/><text fill="#000000" font-family="sans-serif" font-size="11" lengthAdjust="spacingAndGlyphs" textLength="93" x="362" y="635.8198">InputType ctype</text><ellipse cx="353" cy="645.4141" fill="none" rx="3" ry="3" style="stroke: #038048; stroke-width: 1.0;"/><text fill="#000000" font-family="sans-serif" font-size="11" lengthAdjust="spacingAndGlyphs" textLength="63" x="362" y="648.6245">int channel</text><ellipse cx="353" cy="658.2188" fill="none" rx="3" ry="3" style="stroke: #038048; stroke-width: 1.0;"/><text fill="#000000" font-family="sans-serif" font-size="11" lengthAdjust="spacingAndGlyphs" textLength="98" x="362" y="661.4292">Sampler sampler</text><ellipse cx="353" cy="671.0234" fill="none" rx="3" ry="3" style="stroke: #038048; stroke-width: 1.0;"/><text fill="#000000" font-family="sans-serif" font-size="11" lengthAdjust="spacingAndGlyphs" textLength="73" x="362" y="674.2339">int published</text><!--MD5=[847fc839c78cd68cdbea65b88e602834]
class Output--><rect fill="#FEFECE" filter="url(#f13nxh40k7z2v2)" height="65.6094" id="Output" style="stroke: #A80036; stroke-width: 1.5;" width="89" x="501.5" y="589.5"/><ellipse cx="524.15" cy="605.5" fill="#ADD1B2" rx="11" ry="11" style="stroke: #A80036; stroke-width: 1.0;"/><path d="M526.4938,601.1719 C525.5563,600.7344 524.9625,600.5938 524.0875,600.5938 C521.4625,600.5938 519.4625,602.6719 519.4625,605.3906 L519.4625,606.5156 C519.4625,609.0938 521.5719,610.9844 524.4625,610.9844 C525.6813,610.9844 526.8375,610.6875 527.5875,610.1406 C528.1656,609.7344 528.4938,609.2813 528.4938,608.8906 C528.4938,608.4375 528.1031,608.0469 527.6344,608.0469 C527.4156,608.0469 527.2125,608.125 527.025,608.3125 C526.5719,608.7969 526.5719,608.7969 526.3844,608.8906 C525.9625,609.1563 525.275,609.2813 524.5094,609.2813 C522.4625,609.2813 521.1656,608.1875 521.1656,606.4844 L521.1656,605.3906 C521.1656,603.6094 522.4156,602.2969 524.15,602.2969 C524.7281,602.2969 525.3375,602.4531 525.8063,602.7031 C526.2906,602.9844 526.4625,603.2031 526.5563,603.6094 C526.6188,604.0156 526.65,604.1406 526.7906,604.2656 C526.9313,604.4063 527.1656,604.5156 527.3844,604.5156 C527.65,604.5156 527.9156,604.375 528.0875,604.1563 C528.1969,604 528.2281,603.8125 528.2281,603.3906 L528.2281,601.9688 C528.2281,601.5313 528.2125,601.4063 528.1188,601.25 C527.9625,600.9844 527.6813,600.8438 527.3844,600.8438 C527.0875,600.8438 526.8844,600.9375 526.6656,601.25 L526.4938,601.1719 Z "/><text fill="#000000" font-family="sans-serif" font-size="12" lengthAdjust="spacingAndGlyphs" textLength="40" x="539.85" y="609.6543">Output</text><line style="stroke: #A80036; stroke-width: 1.5;" x1="502.5" x2="589.5" y1="621.5" y2="621.5"/><ellipse cx="512.5" cy="632.5" fill="none" rx="3" ry="3" style="stroke: #038048; stroke-width: 1.0;"/><text fill="#000000" font-family="sans-serif" font-size="11" lengthAdjust="spacingAndGlyphs" textLength="47" x="521.5" y="635.7104">String id</text><ellipse cx="512.5" cy="645.3047" fill="none" rx="3" ry="3" style="stroke: #038048; stroke-width: 1.0;"/><text fill="#000000" font-family="sans-serif" font-size="11" lengthAdjust="spacingAndGlyphs" textLength="63" x="521.5" y="648.5151">int channel</text><!--MD5=[e5a5830e1720fde2dd5bf575a16e759f]
class RenderPassType--><rect fill="#FEFECE" filter="url(#f13nxh40k7z2v2)" height="104.0234" id="RenderPassType" style="stroke: #A80036; stroke-width: 1.5;" width="132" x="626" y="570.5"/><ellipse cx="641" cy="586.5" fill="#EB937F" rx="11" ry="11" style="stroke: #A80036; stroke-width: 1.0;"/><path d="M639.7969,587.375 L641.25,587.375 L641.25,587.4844 C641.25,587.8906 641.2813,588.0469 641.3594,588.2031 C641.5156,588.4531 641.7969,588.6094 642.0938,588.6094 C642.3438,588.6094 642.6094,588.4688 642.7656,588.25 C642.8906,588.0938 642.9219,587.9375 642.9219,587.4844 L642.9219,585.5625 C642.9219,585.4063 642.9219,585.3594 642.9063,585.2031 C642.8438,584.7344 642.5313,584.4219 642.0781,584.4219 C641.8281,584.4219 641.5625,584.5625 641.3906,584.7813 C641.2813,584.9531 641.25,585.1094 641.25,585.5625 L641.25,585.6875 L639.7969,585.6875 L639.7969,583.2813 L643.7813,583.2813 L643.7813,584.1406 C643.7813,584.5469 643.8125,584.7188 643.8906,584.875 C644.0625,585.125 644.3438,585.2813 644.625,585.2813 C644.8906,585.2813 645.1563,585.1406 645.3281,584.9219 C645.4375,584.75 645.4688,584.6094 645.4688,584.1406 L645.4688,581.5938 L637.8438,581.5938 C637.4063,581.5938 637.2813,581.6094 637.125,581.7031 C636.875,581.8594 636.7188,582.1563 636.7188,582.4375 C636.7188,582.7188 636.8594,582.9688 637.0781,583.1406 C637.2344,583.25 637.4219,583.2813 637.8438,583.2813 L638.0938,583.2813 L638.0938,589.7969 L637.8438,589.7969 C637.4375,589.7969 637.2813,589.8125 637.125,589.9219 C636.875,590.0938 636.7188,590.3594 636.7188,590.6563 C636.7188,590.9219 636.8594,591.1719 637.0781,591.3281 C637.2188,591.4531 637.4531,591.5 637.8438,591.5 L645.8438,591.5 L645.8438,588.9219 C645.8438,588.4844 645.8125,588.3438 645.7344,588.1875 C645.5625,587.9375 645.2813,587.7813 645,587.7813 C644.7344,587.7813 644.4688,587.8906 644.2969,588.1406 C644.1875,588.2969 644.1563,588.4375 644.1563,588.9219 L644.1563,589.7969 L639.7969,589.7969 L639.7969,587.375 Z "/><text fill="#000000" font-family="sans-serif" font-size="12" lengthAdjust="spacingAndGlyphs" textLength="100" x="655" y="590.6543">RenderPassType</text><line style="stroke: #A80036; stroke-width: 1.5;" x1="627" x2="757" y1="602.5" y2="602.5"/><text fill="#000000" font-family="sans-serif" font-size="11" lengthAdjust="spacingAndGlyphs" textLength="34" x="632" y="616.7104">sound</text><text fill="#000000" font-family="sans-serif" font-size="11" lengthAdjust="spacingAndGlyphs" textLength="49" x="632" y="629.5151">common</text><text fill="#000000" font-family="sans-serif" font-size="11" lengthAdjust="spacingAndGlyphs" textLength="36" x="632" y="642.3198">image</text><text fill="#000000" font-family="sans-serif" font-size="11" lengthAdjust="spacingAndGlyphs" textLength="34" x="632" y="655.1245">buffer</text><text fill="#000000" font-family="sans-serif" font-size="11" lengthAdjust="spacingAndGlyphs" textLength="53" x="632" y="667.9292">cubemap</text><!--MD5=[238882db1a9318ba3cb11d591dea3b78]
class RenderPass--><rect fill="#FEFECE" filter="url(#f13nxh40k7z2v2)" height="116.8281" id="RenderPass" style="stroke: #A80036; stroke-width: 1.5;" width="151" x="447.5" y="355"/><ellipse cx="484.55" cy="371" fill="#ADD1B2" rx="11" ry="11" style="stroke: #A80036; stroke-width: 1.0;"/><path d="M486.8938,366.6719 C485.9563,366.2344 485.3625,366.0938 484.4875,366.0938 C481.8625,366.0938 479.8625,368.1719 479.8625,370.8906 L479.8625,372.0156 C479.8625,374.5938 481.9719,376.4844 484.8625,376.4844 C486.0813,376.4844 487.2375,376.1875 487.9875,375.6406 C488.5656,375.2344 488.8938,374.7813 488.8938,374.3906 C488.8938,373.9375 488.5031,373.5469 488.0344,373.5469 C487.8156,373.5469 487.6125,373.625 487.425,373.8125 C486.9719,374.2969 486.9719,374.2969 486.7844,374.3906 C486.3625,374.6563 485.675,374.7813 484.9094,374.7813 C482.8625,374.7813 481.5656,373.6875 481.5656,371.9844 L481.5656,370.8906 C481.5656,369.1094 482.8156,367.7969 484.55,367.7969 C485.1281,367.7969 485.7375,367.9531 486.2063,368.2031 C486.6906,368.4844 486.8625,368.7031 486.9563,369.1094 C487.0188,369.5156 487.05,369.6406 487.1906,369.7656 C487.3313,369.9063 487.5656,370.0156 487.7844,370.0156 C488.05,370.0156 488.3156,369.875 488.4875,369.6563 C488.5969,369.5 488.6281,369.3125 488.6281,368.8906 L488.6281,367.4688 C488.6281,367.0313 488.6125,366.9063 488.5188,366.75 C488.3625,366.4844 488.0813,366.3438 487.7844,366.3438 C487.4875,366.3438 487.2844,366.4375 487.0656,366.75 L486.8938,366.6719 Z "/><text fill="#000000" font-family="sans-serif" font-size="12" lengthAdjust="spacingAndGlyphs" textLength="70" x="503.45" y="375.1543">RenderPass</text><line style="stroke: #A80036; stroke-width: 1.5;" x1="448.5" x2="597.5" y1="387" y2="387"/><ellipse cx="458.5" cy="398" fill="none" rx="3" ry="3" style="stroke: #038048; stroke-width: 1.0;"/><text fill="#000000" font-family="sans-serif" font-size="11" lengthAdjust="spacingAndGlyphs" textLength="70" x="467.5" y="401.2104">String name</text><ellipse cx="458.5" cy="410.8047" fill="none" rx="3" ry="3" style="stroke: #038048; stroke-width: 1.0;"/><text fill="#000000" font-family="sans-serif" font-size="11" lengthAdjust="spacingAndGlyphs" textLength="125" x="467.5" y="414.0151">RenderPassType type</text><ellipse cx="458.5" cy="423.6094" fill="none" rx="3" ry="3" style="stroke: #038048; stroke-width: 1.0;"/><text fill="#000000" font-family="sans-serif" font-size="11" lengthAdjust="spacingAndGlyphs" textLength="99" x="467.5" y="426.8198">String description</text><ellipse cx="458.5" cy="436.4141" fill="none" rx="3" ry="3" style="stroke: #038048; stroke-width: 1.0;"/><text fill="#000000" font-family="sans-serif" font-size="11" lengthAdjust="spacingAndGlyphs" textLength="65" x="467.5" y="439.6245">String code</text><ellipse cx="458.5" cy="449.2188" fill="none" rx="3" ry="3" style="stroke: #038048; stroke-width: 1.0;"/><text fill="#000000" font-family="sans-serif" font-size="11" lengthAdjust="spacingAndGlyphs" textLength="103" x="467.5" y="452.4292">List&lt;Input&gt; inputs</text><ellipse cx="458.5" cy="462.0234" fill="none" rx="3" ry="3" style="stroke: #038048; stroke-width: 1.0;"/><text fill="#000000" font-family="sans-serif" font-size="11" lengthAdjust="spacingAndGlyphs" textLength="121" x="467.5" y="465.2339">List&lt;Output&gt; outputs</text><!--MD5=[03b04ed89c1f7ac76f6e629bfb39a406]
class Shader--><rect fill="#FEFECE" filter="url(#f13nxh40k7z2v2)" height="78.4141" id="Shader" style="stroke: #A80036; stroke-width: 1.5;" width="210" x="166" y="185"/><ellipse cx="245.25" cy="201" fill="#ADD1B2" rx="11" ry="11" style="stroke: #A80036; stroke-width: 1.0;"/><path d="M247.5938,196.6719 C246.6563,196.2344 246.0625,196.0938 245.1875,196.0938 C242.5625,196.0938 240.5625,198.1719 240.5625,200.8906 L240.5625,202.0156 C240.5625,204.5938 242.6719,206.4844 245.5625,206.4844 C246.7813,206.4844 247.9375,206.1875 248.6875,205.6406 C249.2656,205.2344 249.5938,204.7813 249.5938,204.3906 C249.5938,203.9375 249.2031,203.5469 248.7344,203.5469 C248.5156,203.5469 248.3125,203.625 248.125,203.8125 C247.6719,204.2969 247.6719,204.2969 247.4844,204.3906 C247.0625,204.6563 246.375,204.7813 245.6094,204.7813 C243.5625,204.7813 242.2656,203.6875 242.2656,201.9844 L242.2656,200.8906 C242.2656,199.1094 243.5156,197.7969 245.25,197.7969 C245.8281,197.7969 246.4375,197.9531 246.9063,198.2031 C247.3906,198.4844 247.5625,198.7031 247.6563,199.1094 C247.7188,199.5156 247.75,199.6406 247.8906,199.7656 C248.0313,199.9063 248.2656,200.0156 248.4844,200.0156 C248.75,200.0156 249.0156,199.875 249.1875,199.6563 C249.2969,199.5 249.3281,199.3125 249.3281,198.8906 L249.3281,197.4688 C249.3281,197.0313 249.3125,196.9063 249.2188,196.75 C249.0625,196.4844 248.7813,196.3438 248.4844,196.3438 C248.1875,196.3438 247.9844,196.4375 247.7656,196.75 L247.5938,196.6719 Z "/><text fill="#000000" font-family="sans-serif" font-size="12" lengthAdjust="spacingAndGlyphs" textLength="43" x="265.75" y="205.1543">Shader</text><line style="stroke: #A80036; stroke-width: 1.5;" x1="167" x2="375" y1="217" y2="217"/><ellipse cx="177" cy="228" fill="none" rx="3" ry="3" style="stroke: #038048; stroke-width: 1.0;"/><text fill="#000000" font-family="sans-serif" font-size="11" lengthAdjust="spacingAndGlyphs" textLength="79" x="186" y="231.2104">String version</text><ellipse cx="177" cy="240.8047" fill="none" rx="3" ry="3" style="stroke: #038048; stroke-width: 1.0;"/><text fill="#000000" font-family="sans-serif" font-size="11" lengthAdjust="spacingAndGlyphs" textLength="46" x="186" y="244.0151">Info Info</text><ellipse cx="177" cy="253.6094" fill="none" rx="3" ry="3" style="stroke: #038048; stroke-width: 1.0;"/><text fill="#000000" font-family="sans-serif" font-size="11" lengthAdjust="spacingAndGlyphs" textLength="184" x="186" y="256.8198">List&lt;RenderPass&gt; renderPasses</text><!--MD5=[2ce409087c256806e794369f9639a134]
class Playlist--><rect fill="#FEFECE" filter="url(#f13nxh40k7z2v2)" height="91.2188" id="Playlist" style="stroke: #A80036; stroke-width: 1.5;" width="145" x="198.5" y="21"/><ellipse cx="246.75" cy="37" fill="#ADD1B2" rx="11" ry="11" style="stroke: #A80036; stroke-width: 1.0;"/><path d="M249.0938,32.6719 C248.1563,32.2344 247.5625,32.0938 246.6875,32.0938 C244.0625,32.0938 242.0625,34.1719 242.0625,36.8906 L242.0625,38.0156 C242.0625,40.5938 244.1719,42.4844 247.0625,42.4844 C248.2813,42.4844 249.4375,42.1875 250.1875,41.6406 C250.7656,41.2344 251.0938,40.7813 251.0938,40.3906 C251.0938,39.9375 250.7031,39.5469 250.2344,39.5469 C250.0156,39.5469 249.8125,39.625 249.625,39.8125 C249.1719,40.2969 249.1719,40.2969 248.9844,40.3906 C248.5625,40.6563 247.875,40.7813 247.1094,40.7813 C245.0625,40.7813 243.7656,39.6875 243.7656,37.9844 L243.7656,36.8906 C243.7656,35.1094 245.0156,33.7969 246.75,33.7969 C247.3281,33.7969 247.9375,33.9531 248.4063,34.2031 C248.8906,34.4844 249.0625,34.7031 249.1563,35.1094 C249.2188,35.5156 249.25,35.6406 249.3906,35.7656 C249.5313,35.9063 249.7656,36.0156 249.9844,36.0156 C250.25,36.0156 250.5156,35.875 250.6875,35.6563 C250.7969,35.5 250.8281,35.3125 250.8281,34.8906 L250.8281,33.4688 C250.8281,33.0313 250.8125,32.9063 250.7188,32.75 C250.5625,32.4844 250.2813,32.3438 249.9844,32.3438 C249.6875,32.3438 249.4844,32.4375 249.2656,32.75 L249.0938,32.6719 Z "/><text fill="#000000" font-family="sans-serif" font-size="12" lengthAdjust="spacingAndGlyphs" textLength="40" x="267.25" y="41.1543">Playlist</text><line style="stroke: #A80036; stroke-width: 1.5;" x1="199.5" x2="342.5" y1="53" y2="53"/><ellipse cx="209.5" cy="64" fill="none" rx="3" ry="3" style="stroke: #038048; stroke-width: 1.0;"/><text fill="#000000" font-family="sans-serif" font-size="11" lengthAdjust="spacingAndGlyphs" textLength="47" x="218.5" y="67.2104">String id</text><ellipse cx="209.5" cy="76.8047" fill="none" rx="3" ry="3" style="stroke: #038048; stroke-width: 1.0;"/><text fill="#000000" font-family="sans-serif" font-size="11" lengthAdjust="spacingAndGlyphs" textLength="70" x="218.5" y="80.0151">String name</text><ellipse cx="209.5" cy="89.6094" fill="none" rx="3" ry="3" style="stroke: #038048; stroke-width: 1.0;"/><text fill="#000000" font-family="sans-serif" font-size="11" lengthAdjust="spacingAndGlyphs" textLength="49" x="218.5" y="92.8198">int count</text><ellipse cx="209.5" cy="102.4141" fill="none" rx="3" ry="3" style="stroke: #038048; stroke-width: 1.0;"/><text fill="#000000" font-family="sans-serif" font-size="11" lengthAdjust="spacingAndGlyphs" textLength="119" x="218.5" y="105.6245">List&lt;String&gt; shaders</text><!--MD5=[1a0f3950aea44cf48f445cfd977d0e2d]
link Account to AccountType--><path d="M466,125.402 C466,147.508 466,171.907 466,190.78 " fill="none" id="Account-AccountType" style="stroke: #A80036; stroke-width: 1.0; stroke-dasharray: 7.0,7.0;"/><!--MD5=[ab66f24adcf2b00f77d0909c810dc1a9]
link Info to PublishStatus--><path d="M265.613,504.089 C262.699,529.22 259.656,555.466 257.188,576.753 " fill="none" id="Info-PublishStatus" style="stroke: #A80036; stroke-width: 1.0; stroke-dasharray: 7.0,7.0;"/><!--MD5=[e6c152588259b4f6ebf34b280c858812]
link Sampler to FilterType--><path d="M317.512,877.235 C307.741,905.86 295.68,941.194 286.289,968.7082 " fill="none" id="Sampler-FilterType" style="stroke: #A80036; stroke-width: 1.0; stroke-dasharray: 7.0,7.0;"/><!--MD5=[fa07d61fb7493726bca773c5e9965c93]
link Sampler to WrapType--><path d="M352.488,877.235 C362.259,905.86 374.32,941.194 383.711,968.7082 " fill="none" id="Sampler-WrapType" style="stroke: #A80036; stroke-width: 1.0; stroke-dasharray: 7.0,7.0;"/><!--MD5=[698a9c0837b0fead6b394295697c0722]
link Input to InputType--><path d="M423.865,681.224 C430.275,699.849 437.512,720.879 444.422,740.959 " fill="none" id="Input-InputType" style="stroke: #A80036; stroke-width: 1.0; stroke-dasharray: 7.0,7.0;"/><!--MD5=[54656a65a6b176d5f6a50ead8cca7705]
link RenderPass to RenderPassType--><path d="M570.076,472.161 C595.274,503.025 626.036,540.704 650.357,570.493 " fill="none" id="RenderPass-RenderPassType" style="stroke: #A80036; stroke-width: 1.0; stroke-dasharray: 7.0,7.0;"/><!--MD5=[8f19c8e5af5278cb995804fcff4b21af]
reverse link Shader to Info--><path d="M272.375,276.555 C272.757,290.872 273.183,306.848 273.605,322.675 " fill="none" id="Shader&lt;-Info" style="stroke: #A80036; stroke-width: 1.0;"/><polygon fill="#FFFFFF" points="272.024,263.396,268.1856,269.5007,272.3444,275.3917,276.1828,269.2871,272.024,263.396" style="stroke: #A80036; stroke-width: 1.0;"/><text fill="#000000" font-family="sans-serif" font-size="13" lengthAdjust="spacingAndGlyphs" textLength="24" x="246.1375" y="283.499">info</text><text fill="#000000" font-family="sans-serif" font-size="13" lengthAdjust="spacingAndGlyphs" textLength="8" x="265.0954" y="311.9178">1</text><!--MD5=[caff0fb8dd27e7bce1db43d75c971a9b]
reverse link Shader to RenderPass--><path d="M332.736,270.935 C367.334,296.677 410.76,328.988 447.385,356.239 " fill="none" id="Shader&lt;-RenderPass" style="stroke: #A80036; stroke-width: 1.0;"/><polygon fill="#FFFFFF" points="322.3,263.169,324.7255,269.9599,331.927,270.3329,329.5015,263.5419,322.3,263.169" style="stroke: #A80036; stroke-width: 1.0;"/><text fill="#000000" font-family="sans-serif" font-size="13" lengthAdjust="spacingAndGlyphs" textLength="87" x="353.9831" y="283.3681">renderPasses</text><text fill="#000000" font-family="sans-serif" font-size="13" lengthAdjust="spacingAndGlyphs" textLength="23" x="408.5548" y="347.7536">1..*</text><!--MD5=[b192379bd1989d5bbc4c6d9a7d1e3228]
reverse link RenderPass to Input--><path d="M483.342,483.484 C468.367,509.534 451.498,538.878 437.177,563.79 " fill="none" id="RenderPass&lt;-Input" style="stroke: #A80036; stroke-width: 1.0;"/><polygon fill="#FFFFFF" points="489.852,472.161,483.3939,475.3693,483.8715,482.5645,490.3296,479.3563,489.852,472.161" style="stroke: #A80036; stroke-width: 1.0;"/><text fill="#000000" font-family="sans-serif" font-size="13" lengthAdjust="spacingAndGlyphs" textLength="39" x="436.3021" y="491.8954">inputs</text><text fill="#000000" font-family="sans-serif" font-size="13" lengthAdjust="spacingAndGlyphs" textLength="23" x="416.8189" y="552.8061">1..*</text><!--MD5=[e49e12051756ad7174cb4f3543a7a0ec]
reverse link RenderPass to Output--><path d="M530.874,485.362 C534.792,520.629 539.336,561.528 542.413,589.22 " fill="none" id="RenderPass&lt;-Output" style="stroke: #A80036; stroke-width: 1.0;"/><polygon fill="#FFFFFF" points="529.407,472.161,526.0941,478.566,530.7322,484.0876,534.0451,477.6826,529.407,472.161" style="stroke: #A80036; stroke-width: 1.0;"/><text fill="#000000" font-family="sans-serif" font-size="13" lengthAdjust="spacingAndGlyphs" textLength="49" x="532.9806" y="491.8954">outputs</text><text fill="#000000" font-family="sans-serif" font-size="13" lengthAdjust="spacingAndGlyphs" textLength="23" x="516.4427" y="578.3099">1..*</text><!--MD5=[65c9f653de6ec396eae5b32b37f4e935]
reverse link Input to Sampler--><path d="M379.83,693.734 C370.867,719.776 360.881,748.796 352.612,772.823 " fill="none" id="Input&lt;-Sampler" style="stroke: #A80036; stroke-width: 1.0;"/><polygon fill="#FFFFFF" points="384.135,681.224,378.4004,685.596,380.2305,692.571,385.9651,688.199,384.135,681.224" style="stroke: #A80036; stroke-width: 1.0;"/><text fill="#000000" font-family="sans-serif" font-size="13" lengthAdjust="spacingAndGlyphs" textLength="52" x="322.6006" y="700.9657">sampler</text><text fill="#000000" font-family="sans-serif" font-size="13" lengthAdjust="spacingAndGlyphs" textLength="8" x="346.4411" y="761.8781">1</text><!--MD5=[a4abcfdd359daed5df70e948831b1b3f]
link Shader to User--><path d="M230.199,263.427 C211.199,281.422 188.347,303.208 168,323 C157.575,333.141 146.543,344.001 135.911,354.537 " fill="none" id="Shader-User" style="stroke: #A80036; stroke-width: 1.0;"/><!--MD5=[21a768ec75f72a901c06d38d349b6d85]
link Playlist to Shader--><path d="M271,112.06 C271,135.035 271,162.77 271,184.761 " fill="none" id="Playlist-Shader" style="stroke: #A80036; stroke-width: 1.0;"/><!--MD5=[0cef6f557dad6ebaa7df7e990b22f0f8]
link Comment to Shader--><path d="M141.867,112.06 C168.61,135.035 200.893,162.77 226.491,184.761 " fill="none" id="Comment-Shader" style="stroke: #A80036; stroke-width: 1.0;"/><!--MD5=[6a06045152f20214b4760875fd259869]
link Comment to User--><path d="M88.4435,112.249 C86.2842,174.329 82.378,286.632 80.0034,354.901 " fill="none" id="Comment-User" style="stroke: #A80036; stroke-width: 1.0;"/><!--MD5=[36e942a29ed03ee6d36217f0f8b77736]
@startuml
hide methods

class User {
 +String id
 +String picture
 +String memberSince
 +int shaders
 +int comments 
 +String about
}

enum AccountType {
    site
    api
}

class Account {
    +String name
    +AccountType type
    +bool system
    +String credentials
    +String displayName
    +String picture
}

class Comment {
    +String shaderId
    +String userId
    +DateTime date
    +String text
}

enum PublishStatus {
    private
    unlisted
    public
    public_api
}

class Info {
    +String id
    +DateTime date
    +int views 
    +String name
    +String userId
    +String description
    +int likes
    +PublishStatus publishStatus
    +int flags
    +List<String> tags
    +bool hasLiked
}

enum FilterType {
    none
    nearest
    linear
    mipmap
}

enum WrapType {
    none
    clamp
    repeat
    mirror
}

class Sampler {
    +FilterType filter
    +WrapType wrap
    +bool vflip
    +bool srgb
    +String internal
}

enum InputType {
    texture
    volume
    cubemap
    music
    musicstream
    mic
    buffer
    keyboard
    video
    webcam
}

class Input {
    +String id
    +String src
    +InputType ctype
    +int channel
    +Sampler sampler
    +int published
}

class Output {
    +String id
    +int channel
}

enum RenderPassType {
    sound
    common
    image
    buffer
    cubemap
}

class RenderPass {
    +String name
    +RenderPassType type
    +String description
    +String code
    +List<Input> inputs
    +List<Output> outputs

}

class Shader {
    +String version
    +Info Info
    +List<RenderPass> renderPasses
}

class Playlist {
    +String id
    +String name
    +int count
    +List<String> shaders
}

Account .. AccountType
Info  .. PublishStatus
Sampler .. FilterType
Sampler .. WrapType
Input .. InputType
RenderPass .. RenderPassType

Shader "info" o- - "1" Info
Shader "     renderPasses" o- - "1..*  " RenderPass
RenderPass "inputs  " o- - "1..*" Input
RenderPass "outputs" o- - "1..*" Output
Input "sampler " o- - "1" Sampler

Shader - - User
Playlist - - Shader
Comment - - Shader
Comment - - User
@enduml

PlantUML version 1.2020.09(Sun May 10 10:51:06 UTC 2020)
(GPL source distribution)
Java Runtime: Java(TM) SE Runtime Environment
JVM: Java HotSpot(TM) 64-Bit Server VM
Java Version: 14.0.1+7
Operating System: Linux
Default Encoding: UTF-8
Language: en
Country: US
--></g></svg>