<?xml version="1.0" encoding="UTF-8" standalone="no"?><svg xmlns="http://www.w3.org/2000/svg" xmlns:xlink="http://www.w3.org/1999/xlink" contentScriptType="application/ecmascript" contentStyleType="text/css" height="958px" preserveAspectRatio="none" style="width:901px;height:958px;" version="1.1" viewBox="0 0 901 958" width="901px" zoomAndPan="magnify"><defs><filter height="300%" id="f1ds2fbvxomgx1" width="300%" x="-1" y="-1"><feGaussianBlur result="blurOut" stdDeviation="2.0"/><feColorMatrix in="blurOut" result="blurOut2" type="matrix" values="0 0 0 0 0 0 0 0 0 0 0 0 0 0 0 0 0 0 .4 0"/><feOffset dx="4.0" dy="4.0" in="blurOut2" result="blurOut3"/><feBlend in="SourceGraphic" in2="blurOut3" mode="normal"/></filter></defs><g><!--MD5=[3fd616f346a44cd59a91eb10b19e157c]
class User--><rect fill="#FEFECE" filter="url(#f1ds2fbvxomgx1)" height="116.8281" id="User" style="stroke: #A80036; stroke-width: 1.5;" width="143" x="54" y="438.5"/><ellipse cx="106.75" cy="454.5" fill="#ADD1B2" rx="11" ry="11" style="stroke: #A80036; stroke-width: 1.0;"/><path d="M109.7188,460.1406 Q109.1406,460.4375 108.5,460.5781 Q107.8594,460.7344 107.1563,460.7344 Q104.6563,460.7344 103.3281,459.0938 Q102.0156,457.4375 102.0156,454.3125 Q102.0156,451.1875 103.3281,449.5313 Q104.6563,447.875 107.1563,447.875 Q107.8594,447.875 108.5,448.0313 Q109.1563,448.1875 109.7188,448.4844 L109.7188,451.2031 Q109.0938,450.625 108.5,450.3594 Q107.9063,450.0781 107.2813,450.0781 Q105.9375,450.0781 105.25,451.1563 Q104.5625,452.2188 104.5625,454.3125 Q104.5625,456.4063 105.25,457.4844 Q105.9375,458.5469 107.2813,458.5469 Q107.9063,458.5469 108.5,458.2813 Q109.0938,458 109.7188,457.4219 L109.7188,460.1406 Z "/><text fill="#000000" font-family="sans-serif" font-size="12" lengthAdjust="spacingAndGlyphs" textLength="29" x="127.25" y="458.6543">User</text><line style="stroke: #A80036; stroke-width: 1.5;" x1="55" x2="196" y1="470.5" y2="470.5"/><ellipse cx="65" cy="481.5" fill="none" rx="3" ry="3" style="stroke: #038048; stroke-width: 1.0;"/><text fill="#000000" font-family="sans-serif" font-size="11" lengthAdjust="spacingAndGlyphs" textLength="48" x="74" y="484.7104">String id</text><ellipse cx="65" cy="494.3047" fill="none" rx="3" ry="3" style="stroke: #038048; stroke-width: 1.0;"/><text fill="#000000" font-family="sans-serif" font-size="11" lengthAdjust="spacingAndGlyphs" textLength="77" x="74" y="497.5151">String picture</text><ellipse cx="65" cy="507.1094" fill="none" rx="3" ry="3" style="stroke: #038048; stroke-width: 1.0;"/><text fill="#000000" font-family="sans-serif" font-size="11" lengthAdjust="spacingAndGlyphs" textLength="117" x="74" y="510.3198">String memberSince</text><ellipse cx="65" cy="519.9141" fill="none" rx="3" ry="3" style="stroke: #038048; stroke-width: 1.0;"/><text fill="#000000" font-family="sans-serif" font-size="11" lengthAdjust="spacingAndGlyphs" textLength="68" x="74" y="523.1245">int following</text><ellipse cx="65" cy="532.7188" fill="none" rx="3" ry="3" style="stroke: #038048; stroke-width: 1.0;"/><text fill="#000000" font-family="sans-serif" font-size="11" lengthAdjust="spacingAndGlyphs" textLength="70" x="74" y="535.9292">int followers</text><ellipse cx="65" cy="545.5234" fill="none" rx="3" ry="3" style="stroke: #038048; stroke-width: 1.0;"/><text fill="#000000" font-family="sans-serif" font-size="11" lengthAdjust="spacingAndGlyphs" textLength="70" x="74" y="548.7339">String about</text><!--MD5=[042fa140da40c49659127f611bcff931]
class Comment--><rect fill="#FEFECE" filter="url(#f1ds2fbvxomgx1)" height="116.8281" id="Comment" style="stroke: #A80036; stroke-width: 1.5;" width="113" x="6" y="8"/><ellipse cx="30.9" cy="24" fill="#ADD1B2" rx="11" ry="11" style="stroke: #A80036; stroke-width: 1.0;"/><path d="M33.8688,29.6406 Q33.2906,29.9375 32.65,30.0781 Q32.0094,30.2344 31.3063,30.2344 Q28.8063,30.2344 27.4781,28.5938 Q26.1656,26.9375 26.1656,23.8125 Q26.1656,20.6875 27.4781,19.0313 Q28.8063,17.375 31.3063,17.375 Q32.0094,17.375 32.65,17.5313 Q33.3063,17.6875 33.8688,17.9844 L33.8688,20.7031 Q33.2438,20.125 32.65,19.8594 Q32.0563,19.5781 31.4313,19.5781 Q30.0875,19.5781 29.4,20.6563 Q28.7125,21.7188 28.7125,23.8125 Q28.7125,25.9063 29.4,26.9844 Q30.0875,28.0469 31.4313,28.0469 Q32.0563,28.0469 32.65,27.7813 Q33.2438,27.5 33.8688,26.9219 L33.8688,29.6406 Z "/><text fill="#000000" font-family="sans-serif" font-size="12" lengthAdjust="spacingAndGlyphs" textLength="59" x="47.1" y="28.1543">Comment</text><line style="stroke: #A80036; stroke-width: 1.5;" x1="7" x2="118" y1="40" y2="40"/><ellipse cx="17" cy="51" fill="none" rx="3" ry="3" style="stroke: #038048; stroke-width: 1.0;"/><text fill="#000000" font-family="sans-serif" font-size="11" lengthAdjust="spacingAndGlyphs" textLength="48" x="26" y="54.2104">String id</text><ellipse cx="17" cy="63.8047" fill="none" rx="3" ry="3" style="stroke: #038048; stroke-width: 1.0;"/><text fill="#000000" font-family="sans-serif" font-size="11" lengthAdjust="spacingAndGlyphs" textLength="74" x="26" y="67.0151">String userId</text><ellipse cx="17" cy="76.6094" fill="none" rx="3" ry="3" style="stroke: #038048; stroke-width: 1.0;"/><text fill="#000000" font-family="sans-serif" font-size="11" lengthAdjust="spacingAndGlyphs" textLength="77" x="26" y="79.8198">String picture</text><ellipse cx="17" cy="89.4141" fill="none" rx="3" ry="3" style="stroke: #038048; stroke-width: 1.0;"/><text fill="#000000" font-family="sans-serif" font-size="11" lengthAdjust="spacingAndGlyphs" textLength="83" x="26" y="92.6245">DateTime date</text><ellipse cx="17" cy="102.2188" fill="none" rx="3" ry="3" style="stroke: #038048; stroke-width: 1.0;"/><text fill="#000000" font-family="sans-serif" font-size="11" lengthAdjust="spacingAndGlyphs" textLength="59" x="26" y="105.4292">String text</text><ellipse cx="17" cy="115.0234" fill="none" rx="3" ry="3" style="stroke: #038048; stroke-width: 1.0;"/><text fill="#000000" font-family="sans-serif" font-size="11" lengthAdjust="spacingAndGlyphs" textLength="87" x="26" y="118.2339">boolean hidden</text><!--MD5=[03c346c7ea445837e8975099d55cba7e]
class ShaderPrivacy--><rect fill="#FEFECE" filter="url(#f1ds2fbvxomgx1)" height="91.2188" id="ShaderPrivacy" style="stroke: #A80036; stroke-width: 1.5;" width="120" x="289.5" y="451.5"/><ellipse cx="304.5" cy="467.5" fill="#EB937F" rx="11" ry="11" style="stroke: #A80036; stroke-width: 1.0;"/><path d="M308.6094,473.5 L300.8906,473.5 L300.8906,461.1094 L308.6094,461.1094 L308.6094,463.2656 L303.3438,463.2656 L303.3438,465.9375 L308.1094,465.9375 L308.1094,468.0938 L303.3438,468.0938 L303.3438,471.3438 L308.6094,471.3438 L308.6094,473.5 Z "/><text fill="#000000" font-family="sans-serif" font-size="12" lengthAdjust="spacingAndGlyphs" textLength="88" x="318.5" y="471.6543">ShaderPrivacy</text><line style="stroke: #A80036; stroke-width: 1.5;" x1="290.5" x2="408.5" y1="483.5" y2="483.5"/><text fill="#000000" font-family="sans-serif" font-size="11" lengthAdjust="spacingAndGlyphs" textLength="39" x="295.5" y="497.7104">private</text><text fill="#000000" font-family="sans-serif" font-size="11" lengthAdjust="spacingAndGlyphs" textLength="45" x="295.5" y="510.5151">unlisted</text><text fill="#000000" font-family="sans-serif" font-size="11" lengthAdjust="spacingAndGlyphs" textLength="33" x="295.5" y="523.3198">public</text><text fill="#000000" font-family="sans-serif" font-size="11" lengthAdjust="spacingAndGlyphs" textLength="56" x="295.5" y="536.1245">public_api</text><!--MD5=[88dbfe8572c16244f15eec58f6037418]
class Info--><rect fill="#FEFECE" filter="url(#f1ds2fbvxomgx1)" height="180.8516" id="Info" style="stroke: #A80036; stroke-width: 1.5;" width="151" x="332" y="185"/><ellipse cx="391.75" cy="201" fill="#ADD1B2" rx="11" ry="11" style="stroke: #A80036; stroke-width: 1.0;"/><path d="M394.7188,206.6406 Q394.1406,206.9375 393.5,207.0781 Q392.8594,207.2344 392.1563,207.2344 Q389.6563,207.2344 388.3281,205.5938 Q387.0156,203.9375 387.0156,200.8125 Q387.0156,197.6875 388.3281,196.0313 Q389.6563,194.375 392.1563,194.375 Q392.8594,194.375 393.5,194.5313 Q394.1563,194.6875 394.7188,194.9844 L394.7188,197.7031 Q394.0938,197.125 393.5,196.8594 Q392.9063,196.5781 392.2813,196.5781 Q390.9375,196.5781 390.25,197.6563 Q389.5625,198.7188 389.5625,200.8125 Q389.5625,202.9063 390.25,203.9844 Q390.9375,205.0469 392.2813,205.0469 Q392.9063,205.0469 393.5,204.7813 Q394.0938,204.5 394.7188,203.9219 L394.7188,206.6406 Z "/><text fill="#000000" font-family="sans-serif" font-size="12" lengthAdjust="spacingAndGlyphs" textLength="23" x="412.25" y="205.1543">Info</text><line style="stroke: #A80036; stroke-width: 1.5;" x1="333" x2="482" y1="217" y2="217"/><ellipse cx="343" cy="228" fill="none" rx="3" ry="3" style="stroke: #038048; stroke-width: 1.0;"/><text fill="#000000" font-family="sans-serif" font-size="11" lengthAdjust="spacingAndGlyphs" textLength="48" x="352" y="231.2104">String id</text><ellipse cx="343" cy="240.8047" fill="none" rx="3" ry="3" style="stroke: #038048; stroke-width: 1.0;"/><text fill="#000000" font-family="sans-serif" font-size="11" lengthAdjust="spacingAndGlyphs" textLength="83" x="352" y="244.0151">DateTime date</text><ellipse cx="343" cy="253.6094" fill="none" rx="3" ry="3" style="stroke: #038048; stroke-width: 1.0;"/><text fill="#000000" font-family="sans-serif" font-size="11" lengthAdjust="spacingAndGlyphs" textLength="50" x="352" y="256.8198">int views</text><ellipse cx="343" cy="266.4141" fill="none" rx="3" ry="3" style="stroke: #038048; stroke-width: 1.0;"/><text fill="#000000" font-family="sans-serif" font-size="11" lengthAdjust="spacingAndGlyphs" textLength="70" x="352" y="269.6245">String name</text><ellipse cx="343" cy="279.2188" fill="none" rx="3" ry="3" style="stroke: #038048; stroke-width: 1.0;"/><text fill="#000000" font-family="sans-serif" font-size="11" lengthAdjust="spacingAndGlyphs" textLength="74" x="352" y="282.4292">String userId</text><ellipse cx="343" cy="292.0234" fill="none" rx="3" ry="3" style="stroke: #038048; stroke-width: 1.0;"/><text fill="#000000" font-family="sans-serif" font-size="11" lengthAdjust="spacingAndGlyphs" textLength="101" x="352" y="295.2339">String description</text><ellipse cx="343" cy="304.8281" fill="none" rx="3" ry="3" style="stroke: #038048; stroke-width: 1.0;"/><text fill="#000000" font-family="sans-serif" font-size="11" lengthAdjust="spacingAndGlyphs" textLength="44" x="352" y="308.0386">int likes</text><ellipse cx="343" cy="317.6328" fill="none" rx="3" ry="3" style="stroke: #038048; stroke-width: 1.0;"/><text fill="#000000" font-family="sans-serif" font-size="11" lengthAdjust="spacingAndGlyphs" textLength="125" x="352" y="320.8433">ShaderPrivacy privacy</text><ellipse cx="343" cy="330.4375" fill="none" rx="3" ry="3" style="stroke: #038048; stroke-width: 1.0;"/><text fill="#000000" font-family="sans-serif" font-size="11" lengthAdjust="spacingAndGlyphs" textLength="46" x="352" y="333.6479">int flags</text><ellipse cx="343" cy="343.2422" fill="none" rx="3" ry="3" style="stroke: #038048; stroke-width: 1.0;"/><text fill="#000000" font-family="sans-serif" font-size="11" lengthAdjust="spacingAndGlyphs" textLength="101" x="352" y="346.4526">List&lt;String&gt; tags</text><ellipse cx="343" cy="356.0469" fill="none" rx="3" ry="3" style="stroke: #038048; stroke-width: 1.0;"/><text fill="#000000" font-family="sans-serif" font-size="11" lengthAdjust="spacingAndGlyphs" textLength="78" x="352" y="359.2573">bool hasLiked</text><!--MD5=[a936fc4126fe56f190c56d68d827f6b3]
class FilterType--><rect fill="#FEFECE" filter="url(#f1ds2fbvxomgx1)" height="91.2188" id="FilterType" style="stroke: #A80036; stroke-width: 1.5;" width="92" x="341.5" y="856"/><ellipse cx="356.5" cy="872" fill="#EB937F" rx="11" ry="11" style="stroke: #A80036; stroke-width: 1.0;"/><path d="M360.6094,878 L352.8906,878 L352.8906,865.6094 L360.6094,865.6094 L360.6094,867.7656 L355.3438,867.7656 L355.3438,870.4375 L360.1094,870.4375 L360.1094,872.5938 L355.3438,872.5938 L355.3438,875.8438 L360.6094,875.8438 L360.6094,878 Z "/><text fill="#000000" font-family="sans-serif" font-size="12" lengthAdjust="spacingAndGlyphs" textLength="60" x="370.5" y="876.1543">FilterType</text><line style="stroke: #A80036; stroke-width: 1.5;" x1="342.5" x2="432.5" y1="888" y2="888"/><text fill="#000000" font-family="sans-serif" font-size="11" lengthAdjust="spacingAndGlyphs" textLength="28" x="347.5" y="902.2104">none</text><text fill="#000000" font-family="sans-serif" font-size="11" lengthAdjust="spacingAndGlyphs" textLength="44" x="347.5" y="915.0151">nearest</text><text fill="#000000" font-family="sans-serif" font-size="11" lengthAdjust="spacingAndGlyphs" textLength="32" x="347.5" y="927.8198">linear</text><text fill="#000000" font-family="sans-serif" font-size="11" lengthAdjust="spacingAndGlyphs" textLength="46" x="347.5" y="940.6245">mipmap</text><!--MD5=[87ced7e318cf233d499af00967daf86d]
class WrapType--><rect fill="#FEFECE" filter="url(#f1ds2fbvxomgx1)" height="91.2188" id="WrapType" style="stroke: #A80036; stroke-width: 1.5;" width="93" x="469" y="856"/><ellipse cx="484" cy="872" fill="#EB937F" rx="11" ry="11" style="stroke: #A80036; stroke-width: 1.0;"/><path d="M488.1094,878 L480.3906,878 L480.3906,865.6094 L488.1094,865.6094 L488.1094,867.7656 L482.8438,867.7656 L482.8438,870.4375 L487.6094,870.4375 L487.6094,872.5938 L482.8438,872.5938 L482.8438,875.8438 L488.1094,875.8438 L488.1094,878 Z "/><text fill="#000000" font-family="sans-serif" font-size="12" lengthAdjust="spacingAndGlyphs" textLength="61" x="498" y="876.1543">WrapType</text><line style="stroke: #A80036; stroke-width: 1.5;" x1="470" x2="561" y1="888" y2="888"/><text fill="#000000" font-family="sans-serif" font-size="11" lengthAdjust="spacingAndGlyphs" textLength="28" x="475" y="902.2104">none</text><text fill="#000000" font-family="sans-serif" font-size="11" lengthAdjust="spacingAndGlyphs" textLength="34" x="475" y="915.0151">clamp</text><text fill="#000000" font-family="sans-serif" font-size="11" lengthAdjust="spacingAndGlyphs" textLength="37" x="475" y="927.8198">repeat</text><text fill="#000000" font-family="sans-serif" font-size="11" lengthAdjust="spacingAndGlyphs" textLength="36" x="475" y="940.6245">mirror</text><!--MD5=[c1863ae7a83f0d4114d1dc5ffc6f27df]
class Sampler--><rect fill="#FEFECE" filter="url(#f1ds2fbvxomgx1)" height="104.0234" id="Sampler" style="stroke: #A80036; stroke-width: 1.5;" width="113" x="395" y="660"/><ellipse cx="423.5" cy="676" fill="#ADD1B2" rx="11" ry="11" style="stroke: #A80036; stroke-width: 1.0;"/><path d="M426.4688,681.6406 Q425.8906,681.9375 425.25,682.0781 Q424.6094,682.2344 423.9063,682.2344 Q421.4063,682.2344 420.0781,680.5938 Q418.7656,678.9375 418.7656,675.8125 Q418.7656,672.6875 420.0781,671.0313 Q421.4063,669.375 423.9063,669.375 Q424.6094,669.375 425.25,669.5313 Q425.9063,669.6875 426.4688,669.9844 L426.4688,672.7031 Q425.8438,672.125 425.25,671.8594 Q424.6563,671.5781 424.0313,671.5781 Q422.6875,671.5781 422,672.6563 Q421.3125,673.7188 421.3125,675.8125 Q421.3125,677.9063 422,678.9844 Q422.6875,680.0469 424.0313,680.0469 Q424.6563,680.0469 425.25,679.7813 Q425.8438,679.5 426.4688,678.9219 L426.4688,681.6406 Z "/><text fill="#000000" font-family="sans-serif" font-size="12" lengthAdjust="spacingAndGlyphs" textLength="51" x="440.5" y="680.1543">Sampler</text><line style="stroke: #A80036; stroke-width: 1.5;" x1="396" x2="507" y1="692" y2="692"/><ellipse cx="406" cy="703" fill="none" rx="3" ry="3" style="stroke: #038048; stroke-width: 1.0;"/><text fill="#000000" font-family="sans-serif" font-size="11" lengthAdjust="spacingAndGlyphs" textLength="85" x="415" y="706.2104">FilterType filter</text><ellipse cx="406" cy="715.8047" fill="none" rx="3" ry="3" style="stroke: #038048; stroke-width: 1.0;"/><text fill="#000000" font-family="sans-serif" font-size="11" lengthAdjust="spacingAndGlyphs" textLength="87" x="415" y="719.0151">WrapType wrap</text><ellipse cx="406" cy="728.6094" fill="none" rx="3" ry="3" style="stroke: #038048; stroke-width: 1.0;"/><text fill="#000000" font-family="sans-serif" font-size="11" lengthAdjust="spacingAndGlyphs" textLength="51" x="415" y="731.8198">bool vflip</text><ellipse cx="406" cy="741.4141" fill="none" rx="3" ry="3" style="stroke: #038048; stroke-width: 1.0;"/><text fill="#000000" font-family="sans-serif" font-size="11" lengthAdjust="spacingAndGlyphs" textLength="54" x="415" y="744.6245">bool srgb</text><ellipse cx="406" cy="754.2188" fill="none" rx="3" ry="3" style="stroke: #038048; stroke-width: 1.0;"/><text fill="#000000" font-family="sans-serif" font-size="11" lengthAdjust="spacingAndGlyphs" textLength="81" x="415" y="757.4292">String internal</text><!--MD5=[d5414fa6b3869297190d3cd56d6ad7a9]
class InputType--><rect fill="#FEFECE" filter="url(#f1ds2fbvxomgx1)" height="168.0469" id="InputType" style="stroke: #A80036; stroke-width: 1.5;" width="93" x="543" y="628"/><ellipse cx="558" cy="644" fill="#EB937F" rx="11" ry="11" style="stroke: #A80036; stroke-width: 1.0;"/><path d="M562.1094,650 L554.3906,650 L554.3906,637.6094 L562.1094,637.6094 L562.1094,639.7656 L556.8438,639.7656 L556.8438,642.4375 L561.6094,642.4375 L561.6094,644.5938 L556.8438,644.5938 L556.8438,647.8438 L562.1094,647.8438 L562.1094,650 Z "/><text fill="#000000" font-family="sans-serif" font-size="12" lengthAdjust="spacingAndGlyphs" textLength="61" x="572" y="648.1543">InputType</text><line style="stroke: #A80036; stroke-width: 1.5;" x1="544" x2="635" y1="660" y2="660"/><text fill="#000000" font-family="sans-serif" font-size="11" lengthAdjust="spacingAndGlyphs" textLength="40" x="549" y="674.2104">texture</text><text fill="#000000" font-family="sans-serif" font-size="11" lengthAdjust="spacingAndGlyphs" textLength="41" x="549" y="687.0151">volume</text><text fill="#000000" font-family="sans-serif" font-size="11" lengthAdjust="spacingAndGlyphs" textLength="52" x="549" y="699.8198">cubemap</text><text fill="#000000" font-family="sans-serif" font-size="11" lengthAdjust="spacingAndGlyphs" textLength="34" x="549" y="712.6245">music</text><text fill="#000000" font-family="sans-serif" font-size="11" lengthAdjust="spacingAndGlyphs" textLength="75" x="549" y="725.4292">musicstream</text><text fill="#000000" font-family="sans-serif" font-size="11" lengthAdjust="spacingAndGlyphs" textLength="20" x="549" y="738.2339">mic</text><text fill="#000000" font-family="sans-serif" font-size="11" lengthAdjust="spacingAndGlyphs" textLength="34" x="549" y="751.0386">buffer</text><text fill="#000000" font-family="sans-serif" font-size="11" lengthAdjust="spacingAndGlyphs" textLength="52" x="549" y="763.8433">keyboard</text><text fill="#000000" font-family="sans-serif" font-size="11" lengthAdjust="spacingAndGlyphs" textLength="30" x="549" y="776.6479">video</text><text fill="#000000" font-family="sans-serif" font-size="11" lengthAdjust="spacingAndGlyphs" textLength="47" x="549" y="789.4526">webcam</text><!--MD5=[3cab58e622330109321580dbb0b85605]
class Input--><rect fill="#FEFECE" filter="url(#f1ds2fbvxomgx1)" height="142.4375" id="Input" style="stroke: #A80036; stroke-width: 1.5;" width="152" x="444.5" y="426"/><ellipse cx="500.25" cy="442" fill="#ADD1B2" rx="11" ry="11" style="stroke: #A80036; stroke-width: 1.0;"/><path d="M503.2188,447.6406 Q502.6406,447.9375 502,448.0781 Q501.3594,448.2344 500.6563,448.2344 Q498.1563,448.2344 496.8281,446.5938 Q495.5156,444.9375 495.5156,441.8125 Q495.5156,438.6875 496.8281,437.0313 Q498.1563,435.375 500.6563,435.375 Q501.3594,435.375 502,435.5313 Q502.6563,435.6875 503.2188,435.9844 L503.2188,438.7031 Q502.5938,438.125 502,437.8594 Q501.4063,437.5781 500.7813,437.5781 Q499.4375,437.5781 498.75,438.6563 Q498.0625,439.7188 498.0625,441.8125 Q498.0625,443.9063 498.75,444.9844 Q499.4375,446.0469 500.7813,446.0469 Q501.4063,446.0469 502,445.7813 Q502.5938,445.5 503.2188,444.9219 L503.2188,447.6406 Z "/><text fill="#000000" font-family="sans-serif" font-size="12" lengthAdjust="spacingAndGlyphs" textLength="32" x="520.75" y="446.1543">Input</text><line style="stroke: #A80036; stroke-width: 1.5;" x1="445.5" x2="595.5" y1="458" y2="458"/><ellipse cx="455.5" cy="469" fill="none" rx="3" ry="3" style="stroke: #038048; stroke-width: 1.0;"/><text fill="#000000" font-family="sans-serif" font-size="11" lengthAdjust="spacingAndGlyphs" textLength="48" x="464.5" y="472.2104">String id</text><ellipse cx="455.5" cy="481.8047" fill="none" rx="3" ry="3" style="stroke: #038048; stroke-width: 1.0;"/><text fill="#000000" font-family="sans-serif" font-size="11" lengthAdjust="spacingAndGlyphs" textLength="56" x="464.5" y="485.0151">String src</text><ellipse cx="455.5" cy="494.6094" fill="none" rx="3" ry="3" style="stroke: #038048; stroke-width: 1.0;"/><text fill="#000000" font-family="sans-serif" font-size="11" lengthAdjust="spacingAndGlyphs" textLength="80" x="464.5" y="497.8198">String filePath</text><ellipse cx="455.5" cy="507.4141" fill="none" rx="3" ry="3" style="stroke: #038048; stroke-width: 1.0;"/><text fill="#000000" font-family="sans-serif" font-size="11" lengthAdjust="spacingAndGlyphs" textLength="126" x="464.5" y="510.6245">String previewFilePath</text><ellipse cx="455.5" cy="520.2188" fill="none" rx="3" ry="3" style="stroke: #038048; stroke-width: 1.0;"/><text fill="#000000" font-family="sans-serif" font-size="11" lengthAdjust="spacingAndGlyphs" textLength="83" x="464.5" y="523.4292">InputType type</text><ellipse cx="455.5" cy="533.0234" fill="none" rx="3" ry="3" style="stroke: #038048; stroke-width: 1.0;"/><text fill="#000000" font-family="sans-serif" font-size="11" lengthAdjust="spacingAndGlyphs" textLength="62" x="464.5" y="536.2339">int channel</text><ellipse cx="455.5" cy="545.8281" fill="none" rx="3" ry="3" style="stroke: #038048; stroke-width: 1.0;"/><text fill="#000000" font-family="sans-serif" font-size="11" lengthAdjust="spacingAndGlyphs" textLength="99" x="464.5" y="549.0386">Sampler sampler</text><ellipse cx="455.5" cy="558.6328" fill="none" rx="3" ry="3" style="stroke: #038048; stroke-width: 1.0;"/><text fill="#000000" font-family="sans-serif" font-size="11" lengthAdjust="spacingAndGlyphs" textLength="73" x="464.5" y="561.8433">int published</text><!--MD5=[847fc839c78cd68cdbea65b88e602834]
class Output--><rect fill="#FEFECE" filter="url(#f1ds2fbvxomgx1)" height="65.6094" id="Output" style="stroke: #A80036; stroke-width: 1.5;" width="88" x="631.5" y="464"/><ellipse cx="652.35" cy="480" fill="#ADD1B2" rx="11" ry="11" style="stroke: #A80036; stroke-width: 1.0;"/><path d="M655.3188,485.6406 Q654.7406,485.9375 654.1,486.0781 Q653.4594,486.2344 652.7563,486.2344 Q650.2563,486.2344 648.9281,484.5938 Q647.6156,482.9375 647.6156,479.8125 Q647.6156,476.6875 648.9281,475.0313 Q650.2563,473.375 652.7563,473.375 Q653.4594,473.375 654.1,473.5313 Q654.7563,473.6875 655.3188,473.9844 L655.3188,476.7031 Q654.6938,476.125 654.1,475.8594 Q653.5063,475.5781 652.8813,475.5781 Q651.5375,475.5781 650.85,476.6563 Q650.1625,477.7188 650.1625,479.8125 Q650.1625,481.9063 650.85,482.9844 Q651.5375,484.0469 652.8813,484.0469 Q653.5063,484.0469 654.1,483.7813 Q654.6938,483.5 655.3188,482.9219 L655.3188,485.6406 Z "/><text fill="#000000" font-family="sans-serif" font-size="12" lengthAdjust="spacingAndGlyphs" textLength="43" x="667.65" y="484.1543">Output</text><line style="stroke: #A80036; stroke-width: 1.5;" x1="632.5" x2="718.5" y1="496" y2="496"/><ellipse cx="642.5" cy="507" fill="none" rx="3" ry="3" style="stroke: #038048; stroke-width: 1.0;"/><text fill="#000000" font-family="sans-serif" font-size="11" lengthAdjust="spacingAndGlyphs" textLength="48" x="651.5" y="510.2104">String id</text><ellipse cx="642.5" cy="519.8047" fill="none" rx="3" ry="3" style="stroke: #038048; stroke-width: 1.0;"/><text fill="#000000" font-family="sans-serif" font-size="11" lengthAdjust="spacingAndGlyphs" textLength="62" x="651.5" y="523.0151">int channel</text><!--MD5=[e5a5830e1720fde2dd5bf575a16e759f]
class RenderPassType--><rect fill="#FEFECE" filter="url(#f1ds2fbvxomgx1)" height="104.0234" id="RenderPassType" style="stroke: #A80036; stroke-width: 1.5;" width="136" x="754.5" y="445"/><ellipse cx="769.5" cy="461" fill="#EB937F" rx="11" ry="11" style="stroke: #A80036; stroke-width: 1.0;"/><path d="M773.6094,467 L765.8906,467 L765.8906,454.6094 L773.6094,454.6094 L773.6094,456.7656 L768.3438,456.7656 L768.3438,459.4375 L773.1094,459.4375 L773.1094,461.5938 L768.3438,461.5938 L768.3438,464.8438 L773.6094,464.8438 L773.6094,467 Z "/><text fill="#000000" font-family="sans-serif" font-size="12" lengthAdjust="spacingAndGlyphs" textLength="104" x="783.5" y="465.1543">RenderPassType</text><line style="stroke: #A80036; stroke-width: 1.5;" x1="755.5" x2="889.5" y1="477" y2="477"/><text fill="#000000" font-family="sans-serif" font-size="11" lengthAdjust="spacingAndGlyphs" textLength="35" x="760.5" y="491.2104">sound</text><text fill="#000000" font-family="sans-serif" font-size="11" lengthAdjust="spacingAndGlyphs" textLength="49" x="760.5" y="504.0151">common</text><text fill="#000000" font-family="sans-serif" font-size="11" lengthAdjust="spacingAndGlyphs" textLength="35" x="760.5" y="516.8198">image</text><text fill="#000000" font-family="sans-serif" font-size="11" lengthAdjust="spacingAndGlyphs" textLength="34" x="760.5" y="529.6245">buffer</text><text fill="#000000" font-family="sans-serif" font-size="11" lengthAdjust="spacingAndGlyphs" textLength="52" x="760.5" y="542.4292">cubemap</text><!--MD5=[238882db1a9318ba3cb11d591dea3b78]
class RenderPass--><rect fill="#FEFECE" filter="url(#f1ds2fbvxomgx1)" height="116.8281" id="RenderPass" style="stroke: #A80036; stroke-width: 1.5;" width="149" x="560" y="217"/><ellipse cx="593.9" cy="233" fill="#ADD1B2" rx="11" ry="11" style="stroke: #A80036; stroke-width: 1.0;"/><path d="M596.8688,238.6406 Q596.2906,238.9375 595.65,239.0781 Q595.0094,239.2344 594.3063,239.2344 Q591.8063,239.2344 590.4781,237.5938 Q589.1656,235.9375 589.1656,232.8125 Q589.1656,229.6875 590.4781,228.0313 Q591.8063,226.375 594.3063,226.375 Q595.0094,226.375 595.65,226.5313 Q596.3063,226.6875 596.8688,226.9844 L596.8688,229.7031 Q596.2438,229.125 595.65,228.8594 Q595.0563,228.5781 594.4313,228.5781 Q593.0875,228.5781 592.4,229.6563 Q591.7125,230.7188 591.7125,232.8125 Q591.7125,234.9063 592.4,235.9844 Q593.0875,237.0469 594.4313,237.0469 Q595.0563,237.0469 595.65,236.7813 Q596.2438,236.5 596.8688,235.9219 L596.8688,238.6406 Z "/><text fill="#000000" font-family="sans-serif" font-size="12" lengthAdjust="spacingAndGlyphs" textLength="75" x="612.1" y="237.1543">RenderPass</text><line style="stroke: #A80036; stroke-width: 1.5;" x1="561" x2="708" y1="249" y2="249"/><ellipse cx="571" cy="260" fill="none" rx="3" ry="3" style="stroke: #038048; stroke-width: 1.0;"/><text fill="#000000" font-family="sans-serif" font-size="11" lengthAdjust="spacingAndGlyphs" textLength="70" x="580" y="263.2104">String name</text><ellipse cx="571" cy="272.8047" fill="none" rx="3" ry="3" style="stroke: #038048; stroke-width: 1.0;"/><text fill="#000000" font-family="sans-serif" font-size="11" lengthAdjust="spacingAndGlyphs" textLength="123" x="580" y="276.0151">RenderPassType type</text><ellipse cx="571" cy="285.6094" fill="none" rx="3" ry="3" style="stroke: #038048; stroke-width: 1.0;"/><text fill="#000000" font-family="sans-serif" font-size="11" lengthAdjust="spacingAndGlyphs" textLength="101" x="580" y="288.8198">String description</text><ellipse cx="571" cy="298.4141" fill="none" rx="3" ry="3" style="stroke: #038048; stroke-width: 1.0;"/><text fill="#000000" font-family="sans-serif" font-size="11" lengthAdjust="spacingAndGlyphs" textLength="65" x="580" y="301.6245">String code</text><ellipse cx="571" cy="311.2188" fill="none" rx="3" ry="3" style="stroke: #038048; stroke-width: 1.0;"/><text fill="#000000" font-family="sans-serif" font-size="11" lengthAdjust="spacingAndGlyphs" textLength="105" x="580" y="314.4292">List&lt;Input&gt; inputs</text><ellipse cx="571" cy="324.0234" fill="none" rx="3" ry="3" style="stroke: #038048; stroke-width: 1.0;"/><text fill="#000000" font-family="sans-serif" font-size="11" lengthAdjust="spacingAndGlyphs" textLength="123" x="580" y="327.2339">List&lt;Output&gt; outputs</text><!--MD5=[03b04ed89c1f7ac76f6e629bfb39a406]
class Shader--><rect fill="#FEFECE" filter="url(#f1ds2fbvxomgx1)" height="78.4141" id="Shader" style="stroke: #A80036; stroke-width: 1.5;" width="216" x="428.5" y="27.5"/><ellipse cx="509.75" cy="43.5" fill="#ADD1B2" rx="11" ry="11" style="stroke: #A80036; stroke-width: 1.0;"/><path d="M512.7188,49.1406 Q512.1406,49.4375 511.5,49.5781 Q510.8594,49.7344 510.1563,49.7344 Q507.6563,49.7344 506.3281,48.0938 Q505.0156,46.4375 505.0156,43.3125 Q505.0156,40.1875 506.3281,38.5313 Q507.6563,36.875 510.1563,36.875 Q510.8594,36.875 511.5,37.0313 Q512.1563,37.1875 512.7188,37.4844 L512.7188,40.2031 Q512.0938,39.625 511.5,39.3594 Q510.9063,39.0781 510.2813,39.0781 Q508.9375,39.0781 508.25,40.1563 Q507.5625,41.2188 507.5625,43.3125 Q507.5625,45.4063 508.25,46.4844 Q508.9375,47.5469 510.2813,47.5469 Q510.9063,47.5469 511.5,47.2813 Q512.0938,47 512.7188,46.4219 L512.7188,49.1406 Z "/><text fill="#000000" font-family="sans-serif" font-size="12" lengthAdjust="spacingAndGlyphs" textLength="45" x="530.25" y="47.6543">Shader</text><line style="stroke: #A80036; stroke-width: 1.5;" x1="429.5" x2="643.5" y1="59.5" y2="59.5"/><ellipse cx="439.5" cy="70.5" fill="none" rx="3" ry="3" style="stroke: #038048; stroke-width: 1.0;"/><text fill="#000000" font-family="sans-serif" font-size="11" lengthAdjust="spacingAndGlyphs" textLength="80" x="448.5" y="73.7104">String version</text><ellipse cx="439.5" cy="83.3047" fill="none" rx="3" ry="3" style="stroke: #038048; stroke-width: 1.0;"/><text fill="#000000" font-family="sans-serif" font-size="11" lengthAdjust="spacingAndGlyphs" textLength="46" x="448.5" y="86.5151">Info Info</text><ellipse cx="439.5" cy="96.1094" fill="none" rx="3" ry="3" style="stroke: #038048; stroke-width: 1.0;"/><text fill="#000000" font-family="sans-serif" font-size="11" lengthAdjust="spacingAndGlyphs" textLength="190" x="448.5" y="99.3198">List&lt;RenderPass&gt; renderPasses</text><!--MD5=[51f5317a6dc5adfb9dc1aa9e10bafca5]
class PlaylistPrivacy--><rect fill="#FEFECE" filter="url(#f1ds2fbvxomgx1)" height="78.4141" id="PlaylistPrivacy" style="stroke: #A80036; stroke-width: 1.5;" width="118" x="178.5" y="236.5"/><ellipse cx="193.5" cy="252.5" fill="#EB937F" rx="11" ry="11" style="stroke: #A80036; stroke-width: 1.0;"/><path d="M197.6094,258.5 L189.8906,258.5 L189.8906,246.1094 L197.6094,246.1094 L197.6094,248.2656 L192.3438,248.2656 L192.3438,250.9375 L197.1094,250.9375 L197.1094,253.0938 L192.3438,253.0938 L192.3438,256.3438 L197.6094,256.3438 L197.6094,258.5 Z "/><text fill="#000000" font-family="sans-serif" font-size="12" lengthAdjust="spacingAndGlyphs" textLength="86" x="207.5" y="256.6543">PlaylistPrivacy</text><line style="stroke: #A80036; stroke-width: 1.5;" x1="179.5" x2="295.5" y1="268.5" y2="268.5"/><text fill="#000000" font-family="sans-serif" font-size="11" lengthAdjust="spacingAndGlyphs" textLength="39" x="184.5" y="282.7104">private</text><text fill="#000000" font-family="sans-serif" font-size="11" lengthAdjust="spacingAndGlyphs" textLength="45" x="184.5" y="295.5151">unlisted</text><text fill="#000000" font-family="sans-serif" font-size="11" lengthAdjust="spacingAndGlyphs" textLength="33" x="184.5" y="308.3198">public</text><!--MD5=[2ce409087c256806e794369f9639a134]
class Playlist--><rect fill="#FEFECE" filter="url(#f1ds2fbvxomgx1)" height="104.0234" id="Playlist" style="stroke: #A80036; stroke-width: 1.5;" width="150" x="162.5" y="14.5"/><ellipse cx="211.75" cy="30.5" fill="#ADD1B2" rx="11" ry="11" style="stroke: #A80036; stroke-width: 1.0;"/><path d="M214.7188,36.1406 Q214.1406,36.4375 213.5,36.5781 Q212.8594,36.7344 212.1563,36.7344 Q209.6563,36.7344 208.3281,35.0938 Q207.0156,33.4375 207.0156,30.3125 Q207.0156,27.1875 208.3281,25.5313 Q209.6563,23.875 212.1563,23.875 Q212.8594,23.875 213.5,24.0313 Q214.1563,24.1875 214.7188,24.4844 L214.7188,27.2031 Q214.0938,26.625 213.5,26.3594 Q212.9063,26.0781 212.2813,26.0781 Q210.9375,26.0781 210.25,27.1563 Q209.5625,28.2188 209.5625,30.3125 Q209.5625,32.4063 210.25,33.4844 Q210.9375,34.5469 212.2813,34.5469 Q212.9063,34.5469 213.5,34.2813 Q214.0938,34 214.7188,33.4219 L214.7188,36.1406 Z "/><text fill="#000000" font-family="sans-serif" font-size="12" lengthAdjust="spacingAndGlyphs" textLength="43" x="232.25" y="34.6543">Playlist</text><line style="stroke: #A80036; stroke-width: 1.5;" x1="163.5" x2="311.5" y1="46.5" y2="46.5"/><ellipse cx="173.5" cy="57.5" fill="none" rx="3" ry="3" style="stroke: #038048; stroke-width: 1.0;"/><text fill="#000000" font-family="sans-serif" font-size="11" lengthAdjust="spacingAndGlyphs" textLength="48" x="182.5" y="60.7104">String id</text><ellipse cx="173.5" cy="70.3047" fill="none" rx="3" ry="3" style="stroke: #038048; stroke-width: 1.0;"/><text fill="#000000" font-family="sans-serif" font-size="11" lengthAdjust="spacingAndGlyphs" textLength="74" x="182.5" y="73.5151">String userId</text><ellipse cx="173.5" cy="83.1094" fill="none" rx="3" ry="3" style="stroke: #038048; stroke-width: 1.0;"/><text fill="#000000" font-family="sans-serif" font-size="11" lengthAdjust="spacingAndGlyphs" textLength="70" x="182.5" y="86.3198">String name</text><ellipse cx="173.5" cy="95.9141" fill="none" rx="3" ry="3" style="stroke: #038048; stroke-width: 1.0;"/><text fill="#000000" font-family="sans-serif" font-size="11" lengthAdjust="spacingAndGlyphs" textLength="101" x="182.5" y="99.1245">String description</text><ellipse cx="173.5" cy="108.7188" fill="none" rx="3" ry="3" style="stroke: #038048; stroke-width: 1.0;"/><text fill="#000000" font-family="sans-serif" font-size="11" lengthAdjust="spacingAndGlyphs" textLength="124" x="182.5" y="111.9292">PlaylistPrivacy privacy</text><!--MD5=[279d4fab721081fe8028071c83eb16bd]
link Info to ShaderPrivacy--><path d="M383.83,366.1 C376.06,395.49 367.76,426.89 361.27,451.45 " fill="none" id="Info-ShaderPrivacy" style="stroke: #A80036; stroke-width: 1.0; stroke-dasharray: 7.0,7.0;"/><!--MD5=[e6c152588259b4f6ebf34b280c858812]
link Sampler to FilterType--><path d="M434.01,764.24 C424.24,792.86 412.18,828.19 402.79,855.71 " fill="none" id="Sampler-FilterType" style="stroke: #A80036; stroke-width: 1.0; stroke-dasharray: 7.0,7.0;"/><!--MD5=[fa07d61fb7493726bca773c5e9965c93]
link Sampler to WrapType--><path d="M468.99,764.24 C478.76,792.86 490.82,828.19 500.21,855.71 " fill="none" id="Sampler-WrapType" style="stroke: #A80036; stroke-width: 1.0; stroke-dasharray: 7.0,7.0;"/><!--MD5=[698a9c0837b0fead6b394295697c0722]
link Input to InputType--><path d="M543.19,568.04 C549.39,587.2 556.18,608.15 562.6,627.95 " fill="none" id="Input-InputType" style="stroke: #A80036; stroke-width: 1.0; stroke-dasharray: 7.0,7.0;"/><!--MD5=[54656a65a6b176d5f6a50ead8cca7705]
link RenderPass to RenderPassType--><path d="M683.89,334.17 C713.27,368.47 750.21,411.59 778.56,444.7 " fill="none" id="RenderPass-RenderPassType" style="stroke: #A80036; stroke-width: 1.0; stroke-dasharray: 7.0,7.0;"/><!--MD5=[282f3bf7ae85f06707cf7ceb38c271ec]
link Playlist to PlaylistPrivacy--><path d="M237.5,118.67 C237.5,155.06 237.5,203.18 237.5,236.26 " fill="none" id="Playlist-PlaylistPrivacy" style="stroke: #A80036; stroke-width: 1.0; stroke-dasharray: 7.0,7.0;"/><!--MD5=[8f19c8e5af5278cb995804fcff4b21af]
reverse link Shader to Info--><path d="M505.59,117.11 C492.94,137.4 477.9,161.53 463.45,184.72 " fill="none" id="Shader&lt;-Info" style="stroke: #A80036; stroke-width: 1.0;"/><polygon fill="#FFFFFF" points="512.54,105.95,505.9722,108.9272,506.1942,116.1349,512.7621,113.1577,512.54,105.95" style="stroke: #A80036; stroke-width: 1.0;"/><text fill="#000000" font-family="sans-serif" font-size="13" lengthAdjust="spacingAndGlyphs" textLength="23" x="478.9766" y="126.0623">info</text><text fill="#000000" font-family="sans-serif" font-size="13" lengthAdjust="spacingAndGlyphs" textLength="8" x="459.5898" y="173.9664">1</text><!--MD5=[caff0fb8dd27e7bce1db43d75c971a9b]
reverse link Shader to RenderPass--><path d="M560.31,117.79 C574.44,147.64 592.42,185.61 607.14,216.7 " fill="none" id="Shader&lt;-RenderPass" style="stroke: #A80036; stroke-width: 1.0;"/><polygon fill="#FFFFFF" points="554.7,105.95,553.6547,113.0849,559.8387,116.794,560.8841,109.6591,554.7,105.95" style="stroke: #A80036; stroke-width: 1.0;"/><text fill="#000000" font-family="sans-serif" font-size="13" lengthAdjust="spacingAndGlyphs" textLength="87" x="587.0234" y="126.0623">renderPasses</text><text fill="#000000" font-family="sans-serif" font-size="13" lengthAdjust="spacingAndGlyphs" textLength="23" x="571.1843" y="206.1186">1..*</text><!--MD5=[b192379bd1989d5bbc4c6d9a7d1e3228]
reverse link RenderPass to Input--><path d="M598.41,345.99 C585.18,371.45 570.22,400.27 556.96,425.8 " fill="none" id="RenderPass&lt;-Input" style="stroke: #A80036; stroke-width: 1.0;"/><polygon fill="#FFFFFF" points="604.55,334.17,598.2318,337.6457,599.01,344.8147,605.3282,341.339,604.55,334.17" style="stroke: #A80036; stroke-width: 1.0;"/><text fill="#000000" font-family="sans-serif" font-size="13" lengthAdjust="spacingAndGlyphs" textLength="39" x="551.3698" y="353.9054">inputs</text><text fill="#000000" font-family="sans-serif" font-size="13" lengthAdjust="spacingAndGlyphs" textLength="23" x="536.534" y="414.7352">1..*</text><!--MD5=[e49e12051756ad7174cb4f3543a7a0ec]
reverse link RenderPass to Output--><path d="M647.7,347.15 C655.03,386.4 663.79,433.31 669.49,463.84 " fill="none" id="RenderPass&lt;-Output" style="stroke: #A80036; stroke-width: 1.0;"/><polygon fill="#FFFFFF" points="645.27,334.17,642.4469,340.8055,647.4862,345.9636,650.3093,339.328,645.27,334.17" style="stroke: #A80036; stroke-width: 1.0;"/><text fill="#000000" font-family="sans-serif" font-size="13" lengthAdjust="spacingAndGlyphs" textLength="49" x="649.3481" y="353.9054">outputs</text><text fill="#000000" font-family="sans-serif" font-size="13" lengthAdjust="spacingAndGlyphs" textLength="23" x="643.0427" y="452.9535">1..*</text><!--MD5=[65c9f653de6ec396eae5b32b37f4e935]
reverse link Input to Sampler--><path d="M493.76,580.54 C485.11,607.25 475.77,636.07 468.08,659.82 " fill="none" id="Input&lt;-Sampler" style="stroke: #A80036; stroke-width: 1.0;"/><polygon fill="#FFFFFF" points="497.81,568.04,492.1519,572.5106,494.1025,579.4529,499.7605,574.9823,497.81,568.04" style="stroke: #A80036; stroke-width: 1.0;"/><text fill="#000000" font-family="sans-serif" font-size="13" lengthAdjust="spacingAndGlyphs" textLength="52" x="436.2658" y="588.6805">sampler</text><text fill="#000000" font-family="sans-serif" font-size="13" lengthAdjust="spacingAndGlyphs" textLength="8" x="461.7704" y="648.8747">1</text><!--MD5=[41c570bcc2d1df6f5d63710391dac55c]
link Info to User--><path d="M331.78,351.28 C326.03,356.37 320.23,361.33 314.5,366 C277.32,396.34 233.26,426.92 197.05,450.79 " fill="none" id="Info-User" style="stroke: #A80036; stroke-width: 1.0;"/><!--MD5=[bae4ea4bf9c09909ed509b11f4a10ce1]
link Playlist to Info--><path d="M279.52,118.67 C295.94,138.66 315.27,162.19 333.85,184.82 " fill="none" id="Playlist-Info" style="stroke: #A80036; stroke-width: 1.0;"/><!--MD5=[03b83e5f34cd6aa5644f981585d82b91]
link Playlist to User--><path d="M196.39,118.79 C182.74,138.42 168.9,161.71 160.5,185 C130.04,269.46 124.32,374.47 124.09,438.31 " fill="none" id="Playlist-User" style="stroke: #A80036; stroke-width: 1.0;"/><!--MD5=[eefc92865afa0eb0479af9e237f1c4f7]
link Comment to Info--><path d="M119.05,110.08 C127.36,115.47 136,120.62 144.5,125 C215.74,161.67 246.31,142.93 314.5,185 C320.41,188.65 326.26,192.72 331.96,197.07 " fill="none" id="Comment-Info" style="stroke: #A80036; stroke-width: 1.0;"/><!--MD5=[6a06045152f20214b4760875fd259869]
link Comment to User--><path d="M68.37,125.18 C74.8,185.44 86.01,282.62 99.5,366 C103.34,389.74 108.38,415.76 113,438.25 " fill="none" id="Comment-User" style="stroke: #A80036; stroke-width: 1.0;"/><!--MD5=[44ca2c0c528b62932c55b7c36bd61306]
@startuml model

hide methods

class User {
 +String id
 +String picture
 +String memberSince
 +int following
 +int followers
 +String about
}

class Comment {
    +String id
    +String userId
    +String picture
    +DateTime date
    +String text
    +boolean hidden
}

enum ShaderPrivacy {
    private
    unlisted
    public
    public_api
}

class Info {
    +String id
    +DateTime date
    +int views 
    +String name
    +String userId
    +String description
    +int likes
    +ShaderPrivacy privacy
    +int flags
    +List<String> tags
    +bool hasLiked
}

enum FilterType {
    none
    nearest
    linear
    mipmap
}

enum WrapType {
    none
    clamp
    repeat
    mirror
}

class Sampler {
    +FilterType filter
    +WrapType wrap
    +bool vflip
    +bool srgb
    +String internal
}

enum InputType {
    texture
    volume
    cubemap
    music
    musicstream
    mic
    buffer
    keyboard
    video
    webcam
}

class Input {
    +String id
    +String src
    +String filePath
    +String previewFilePath
    +InputType type
    +int channel
    +Sampler sampler
    +int published
}

class Output {
    +String id
    +int channel
}

enum RenderPassType {
    sound
    common
    image
    buffer
    cubemap
}

class RenderPass {
    +String name
    +RenderPassType type
    +String description
    +String code
    +List<Input> inputs
    +List<Output> outputs

}

class Shader {
    +String version
    +Info Info
    +List<RenderPass> renderPasses
}

enum PlaylistPrivacy {
    private
    unlisted
    public
}

class Playlist {
    +String id
    +String userId
    +String name
    +String description
    +PlaylistPrivacy privacy
}

Info  .. ShaderPrivacy
Sampler .. FilterType
Sampler .. WrapType
Input .. InputType
RenderPass .. RenderPassType
Playlist .. PlaylistPrivacy

Shader "             info" o- - "1" Info
Shader "     renderPasses" o- - "1..*  " RenderPass
RenderPass "inputs  " o- - "1..*" Input
RenderPass "outputs" o- - "1..*" Output
Input "sampler " o- - "1" Sampler

Info - - User
Playlist - - Info
Playlist - - User
Comment - - Info
Comment - - User


@enduml

PlantUML version 1.2020.02(Sun Mar 01 10:22:07 GMT 2020)
(GPL source distribution)
Java Runtime: OpenJDK Runtime Environment
JVM: OpenJDK 64-Bit Server VM
Java Version: 11.0.9+11-Ubuntu-0ubuntu1
Operating System: Linux
Default Encoding: ANSI_X3.4-1968
Language: en
Country: US
--></g></svg>